{
.appVersion = "1271";
DisplayStrings = (
" ",
" "
);
classes = (
{

glyphs = (
{
glyphname = .notdef;
lastChange = "2019-10-25 11:35:51 +0000";
layers = (
{
layerId = "926CF2F4-31F1-4036-BA3C-0F7EE51EF36A";
paths = (
{
closed = 1;
nodes = (
"408 0 LINE",
"819 0 LINE",
"819 714 LINE",
"408 714 LINE"
);
},
{
closed = 1;
nodes = (
"459 663 LINE",
"768 663 LINE",
"768 51 LINE",
"459 51 LINE"
);
}
);
width = 1229;
},
{
layerId = "639D56B4-59BE-4993-85FD-8F80ECD3B0F6";
paths = (
{
closed = 1;
nodes = (
"408 0 LINE",
"819 0 LINE",
"819 714 LINE",
"408 714 LINE"
);
},
{
closed = 1;
nodes = (
"459 663 LINE",
"768 663 LINE",
"768 51 LINE",
"459 51 LINE"
);
}
);
width = 1229;
},
{
layerId = "EAF3E1E9-0001-42EF-B2A4-765526B8C83B";
paths = (
{
closed = 1;
nodes = (
"408 0 LINE",
"819 0 LINE",
"819 714 LINE",
"408 714 LINE"
);
},
{
closed = 1;
nodes = (
"459 663 LINE",
"768 663 LINE",
"768 51 LINE",
"459 51 LINE"
);
}
);
width = 1229;
},
{
layerId = "A6029D4D-1571-45DB-86AE-EDC9D2308E6F";
paths = (
{
closed = 1;
nodes = (
"408 0 LINE",
"819 0 LINE",
"819 714 LINE",
"408 714 LINE"
);
},
{
closed = 1;
nodes = (
"459 663 LINE",
"768 663 LINE",
"768 51 LINE",
"459 51 LINE"
);
}
);
width = 1229;
}
);
note = .notdef;
},
{
glyphname = "candraBindu-oriya";
lastChange = "2019-10-25 11:35:51 +0000";
layers = (
{
anchors = (
{
name = _topright;
position = "{400, 658}";
}
);
layerId = "926CF2F4-31F1-4036-BA3C-0F7EE51EF36A";
paths = (
{
closed = 1;
nodes = (
"497 704 OFFCURVE",
"562 766 OFFCURVE",
"573 870 CURVE",
"547 873 LINE",
"536 781 OFFCURVE",
"481 727 OFFCURVE",
"398 727 CURVE SMOOTH",
"317 727 OFFCURVE",
"263 781 OFFCURVE",
"254 873 CURVE",
"228 870 LINE",
"238 766 OFFCURVE",
"302 704 OFFCURVE",
"399 704 CURVE SMOOTH"
);
},
{
closed = 1;
nodes = (
"412 816 OFFCURVE",
"422 826 OFFCURVE",
"422 839 CURVE SMOOTH",
"422 853 OFFCURVE",
"411 863 OFFCURVE",
"399 863 CURVE SMOOTH",
"386 863 OFFCURVE",
"375 853 OFFCURVE",
"375 839 CURVE SMOOTH",
"375 826 OFFCURVE",
"385 816 OFFCURVE",
"399 816 CURVE SMOOTH"
);
}
);
width = 800;
},
{
anchors = (
{
name = _topright;
position = "{400, 658}";
}
);
layerId = "639D56B4-59BE-4993-85FD-8F80ECD3B0F6";
paths = (
{
closed = 1;
nodes = (
"524 678 OFFCURVE",
"612 756 OFFCURVE",
"629 920 CURVE",
"512 933 LINE",
"493 828 OFFCURVE",
"461 786 OFFCURVE",
"400 786 CURVE SMOOTH",
"338 786 OFFCURVE",
"307 828 OFFCURVE",
"290 933 CURVE",
"171 920 LINE",
"188 756 OFFCURVE",
"276 678 OFFCURVE",
"400 678 CURVE SMOOTH"
);
},
{
closed = 1;
nodes = (
"438 824 OFFCURVE",
"462 846 OFFCURVE",
"462 889 CURVE SMOOTH",
"462 929 OFFCURVE",
"438 950 OFFCURVE",
"400 950 CURVE SMOOTH",
"363 950 OFFCURVE",
"338 929 OFFCURVE",
"338 889 CURVE SMOOTH",
"338 848 OFFCURVE",
"363 824 OFFCURVE",
"400 824 CURVE SMOOTH"
);
}
);
width = 800;
},
{
anchors = (
{
name = _topright;
position = "{300, 658}";
}
);
guideLines = (
{
position = "{31, 814}";
}
);
layerId = "EAF3E1E9-0001-42EF-B2A4-765526B8C83B";
paths = (
{
closed = 1;
nodes = (
"373 704 OFFCURVE",
"422 766 OFFCURVE",
"430 870 CURVE",
"405 873 LINE",
"398 782 OFFCURVE",
"358 728 OFFCURVE",
"298 728 CURVE SMOOTH",
"239 728 OFFCURVE",
"200 782 OFFCURVE",
"194 873 CURVE",
"169 870 LINE",
"176 766 OFFCURVE",
"225 704 OFFCURVE",
"298 704 CURVE SMOOTH"
);
},
{
closed = 1;
nodes = (
"309 816 OFFCURVE",
"316 825 OFFCURVE",
"316 839 CURVE SMOOTH",
"316 853 OFFCURVE",
"309 863 OFFCURVE",
"298 863 CURVE SMOOTH",
"287 863 OFFCURVE",
"280 853 OFFCURVE",
"280 839 CURVE SMOOTH",
"280 825 OFFCURVE",
"287 816 OFFCURVE",
"298 816 CURVE SMOOTH"
);
}
);
width = 600;
},
{
anchors = (
{
name = _topright;
position = "{300, 658}";
}
);
layerId = "A6029D4D-1571-45DB-86AE-EDC9D2308E6F";
paths = (
{
closed = 1;
nodes = (
"413 678 OFFCURVE",
"483 768 OFFCURVE",
"490 924 CURVE",
"395 933 LINE",
"391 824 OFFCURVE",
"354 778 OFFCURVE",
"300 778 CURVE SMOOTH",
"246 778 OFFCURVE",
"208 824 OFFCURVE",
"204 933 CURVE",
"109 924 LINE",
"116 768 OFFCURVE",
"186 678 OFFCURVE",
"300 678 CURVE SMOOTH"
);
},
{
closed = 1;
nodes = (
"331 824 OFFCURVE",
"352 849 OFFCURVE",
"352 887 CURVE SMOOTH",
"352 925 OFFCURVE",
"331 950 OFFCURVE",
"300 950 CURVE SMOOTH",
"269 950 OFFCURVE",
"248 925 OFFCURVE",
"248 887 CURVE SMOOTH",
"248 849 OFFCURVE",
"269 824 OFFCURVE",
"300 824 CURVE SMOOTH"
);
}
);
width = 600;
},
{
anchors = (
{
name = _topright;
position = "{400, 658}";
}
);
associatedMasterId = "639D56B4-59BE-4993-85FD-8F80ECD3B0F6";
background = {
paths = (
{
closed = 1;
nodes = (
"462 952 OFFCURVE",
"438 973 OFFCURVE",
"400 973 CURVE SMOOTH",
"363 973 OFFCURVE",
"338 952 OFFCURVE",
"338 912 CURVE SMOOTH",
"338 871 OFFCURVE",
"363 847 OFFCURVE",
"400 847 CURVE SMOOTH",
"438 847 OFFCURVE",
"462 869 OFFCURVE",
"462 912 CURVE SMOOTH"
);
},
{
closed = 1;
nodes = (
"188 779 OFFCURVE",
"276 701 OFFCURVE",
"400 701 CURVE SMOOTH",
"524 701 OFFCURVE",
"612 779 OFFCURVE",
"629 943 CURVE",
"512 956 LINE",
"493 851 OFFCURVE",
"461 809 OFFCURVE",
"400 809 CURVE SMOOTH",
"338 809 OFFCURVE",
"307 851 OFFCURVE",
"290 956 CURVE",
"171 943 LINE"
);
}
);
};
layerId = "93B0C983-998E-404B-A218-1878817AA0E5";
name = "Black ]141]";
paths = (
{
closed = 1;
nodes = (
"524 678 OFFCURVE",
"612 758 OFFCURVE",
"629 920 CURVE",
"501 934 LINE",
"494 830 OFFCURVE",
"458 786 OFFCURVE",
"400 786 CURVE SMOOTH",
"342 786 OFFCURVE",
"306 830 OFFCURVE",
"299 934 CURVE",
"171 920 LINE",
"188 758 OFFCURVE",
"276 678 OFFCURVE",
"400 678 CURVE SMOOTH"
);
},
{
closed = 1;
nodes = (
"443 807 OFFCURVE",
"470 832 OFFCURVE",
"470 880 CURVE SMOOTH",
"470 925 OFFCURVE",
"443 949 OFFCURVE",
"400 949 CURVE SMOOTH",
"358 949 OFFCURVE",
"330 925 OFFCURVE",
"330 880 CURVE SMOOTH",
"330 834 OFFCURVE",
"358 807 OFFCURVE",
"400 807 CURVE SMOOTH"
);
}
);
width = 800;
},
{
anchors = (
{
name = _topright;
position = "{300, 658}";
}
);
associatedMasterId = "A6029D4D-1571-45DB-86AE-EDC9D2308E6F";
background = {
paths = (
{
closed = 1;
nodes = (
"363 938 OFFCURVE",
"338 969 OFFCURVE",
"300 969 CURVE SMOOTH",
"262 969 OFFCURVE",
"237 938 OFFCURVE",
"237 892 CURVE SMOOTH",
"237 846 OFFCURVE",
"262 815 OFFCURVE",
"300 815 CURVE SMOOTH",
"338 815 OFFCURVE",
"363 846 OFFCURVE",
"363 892 CURVE SMOOTH"
);
},
{
closed = 1;
nodes = (
"120 783 OFFCURVE",
"189 701 OFFCURVE",
"300 701 CURVE SMOOTH",
"411 701 OFFCURVE",
"480 783 OFFCURVE",
"487 925 CURVE",
"387 939 LINE",
"383 840 OFFCURVE",
"357 798 OFFCURVE",
"300 798 CURVE SMOOTH",
"243 798 OFFCURVE",
"217 840 OFFCURVE",
"213 939 CURVE",
"113 925 LINE"
);
}
);
};
layerId = "1483E9E3-4C9C-4718-B8F6-A0209C2EB0F2";
name = "ExtraCondensed Black ]141]";
paths = (
{
closed = 1;
nodes = (
"413 678 OFFCURVE",
"483 768 OFFCURVE",
"490 924 CURVE",
"385 934 LINE",
"381 824 OFFCURVE",
"349 778 OFFCURVE",
"300 778 CURVE SMOOTH",
"250 778 OFFCURVE",
"217 824 OFFCURVE",
"214 934 CURVE",
"109 924 LINE",
"116 768 OFFCURVE",
"186 678 OFFCURVE",
"300 678 CURVE SMOOTH"
);
},
{
closed = 1;
nodes = (
"339 806 OFFCURVE",
"358 842 OFFCURVE",
"358 878 CURVE SMOOTH",
"358 926 OFFCURVE",
"329 950 OFFCURVE",
"300 950 CURVE SMOOTH",
"271 950 OFFCURVE",
"242 926 OFFCURVE",
"242 878 CURVE SMOOTH",
"242 842 OFFCURVE",
"261 806 OFFCURVE",
"300 806 CURVE SMOOTH"
);
}
);
width = 600;
}
);
note = candrabinduorya;
unicode = 0B01;
},
{
glyphname = "anusvara-oriya";
lastChange = "2019-10-25 11:35:51 +0000";
layers = (
{
layerId = "926CF2F4-31F1-4036-BA3C-0F7EE51EF36A";
paths = (
{
closed = 1;
nodes = (
"213 428 OFFCURVE",
"263 475 OFFCURVE",
"263 545 CURVE SMOOTH",
"263 616 OFFCURVE",
"211 666 OFFCURVE",
"141 666 CURVE SMOOTH",
"70 666 OFFCURVE",
"20 616 OFFCURVE",
"20 548 CURVE SMOOTH",
"20 475 OFFCURVE",
"71 428 OFFCURVE",
"142 428 CURVE SMOOTH"
);
},
{
closed = 1;
nodes = (
"196 642 OFFCURVE",
"237 602 OFFCURVE",
"237 546 CURVE SMOOTH",
"237 492 OFFCURVE",
"196 453 OFFCURVE",
"141 453 CURVE SMOOTH",
"88 453 OFFCURVE",
"46 490 OFFCURVE",
"46 547 CURVE SMOOTH",
"46 600 OFFCURVE",
"84 642 OFFCURVE",
"141 642 CURVE SMOOTH"
);
}
);
width = 283;
},
{
layerId = "639D56B4-59BE-4993-85FD-8F80ECD3B0F6";
paths = (
{
closed = 1;
nodes = (
"267 364 OFFCURVE",
"331 426 OFFCURVE",
"331 515 CURVE SMOOTH",
"331 607 OFFCURVE",
"264 666 OFFCURVE",
"171 666 CURVE SMOOTH",
"74 666 OFFCURVE",
"10 604 OFFCURVE",
"10 515 CURVE SMOOTH",
"10 422 OFFCURVE",
"76 364 OFFCURVE",
"171 364 CURVE SMOOTH"
);
},
{
closed = 1;
nodes = (
"196 556 OFFCURVE",
"211 541 OFFCURVE",
"211 515 CURVE SMOOTH",
"211 491 OFFCURVE",
"197 474 OFFCURVE",
"171 474 CURVE SMOOTH",
"145 474 OFFCURVE",
"130 487 OFFCURVE",
"130 515 CURVE SMOOTH",
"130 539 OFFCURVE",
"143 556 OFFCURVE",
"171 556 CURVE SMOOTH"
);
}
);
width = 341;
},
{
layerId = "EAF3E1E9-0001-42EF-B2A4-765526B8C83B";
paths = (
{
closed = 1;
nodes = (
"165 428 OFFCURVE",
"205 475 OFFCURVE",
"205 545 CURVE SMOOTH",
"205 616 OFFCURVE",
"163 666 OFFCURVE",
"107 666 CURVE SMOOTH",
"50 666 OFFCURVE",
"10 616 OFFCURVE",
"10 546 CURVE SMOOTH",
"10 475 OFFCURVE",
"51 428 OFFCURVE",
"108 428 CURVE SMOOTH"
);
},
{
closed = 1;
nodes = (
"149 641 OFFCURVE",
"180 601 OFFCURVE",
"180 547 CURVE SMOOTH",
"180 492 OFFCURVE",
"148 453 OFFCURVE",
"107 453 CURVE SMOOTH",
"67 453 OFFCURVE",
"35 490 OFFCURVE",
"35 546 CURVE SMOOTH",
"35 599 OFFCURVE",
"64 641 OFFCURVE",
"107 641 CURVE SMOOTH"
);
}
);
width = 215;
},
{
layerId = "A6029D4D-1571-45DB-86AE-EDC9D2308E6F";
paths = (
{
closed = 1;
nodes = (
"217 364 OFFCURVE",
"271 424 OFFCURVE",
"271 515 CURVE SMOOTH",
"271 606 OFFCURVE",
"217 666 OFFCURVE",
"136 666 CURVE SMOOTH",
"54 666 OFFCURVE",
"0 606 OFFCURVE",
"0 515 CURVE SMOOTH",
"0 424 OFFCURVE",
"54 364 OFFCURVE",
"136 364 CURVE SMOOTH"
);
},
{
closed = 1;
nodes = (
"156 568 OFFCURVE",
"166 550 OFFCURVE",
"166 515 CURVE SMOOTH",
"166 480 OFFCURVE",
"156 462 OFFCURVE",
"136 462 CURVE SMOOTH",
"115 462 OFFCURVE",
"105 480 OFFCURVE",
"105 515 CURVE SMOOTH",
"105 550 OFFCURVE",
"115 568 OFFCURVE",
"136 568 CURVE SMOOTH"
);
}
);
width = 271;
}
);
note = anusvaraorya;
unicode = 0B02;
},
{
glyphname = "visarga-oriya";
lastChange = "2019-10-25 11:35:51 +0000";
layers = (
{
layerId = "926CF2F4-31F1-4036-BA3C-0F7EE51EF36A";
paths = (
{
closed = 1;
nodes = (
"300 642 OFFCURVE",
"348 592 OFFCURVE",
"348 516 CURVE SMOOTH",
"348 325 OFFCURVE",
"40 335 OFFCURVE",
"40 141 CURVE SMOOTH",
"40 56 OFFCURVE",
"100 -8 OFFCURVE",
"208 -8 CURVE SMOOTH",
"317 -8 OFFCURVE",
"376 57 OFFCURVE",
"376 143 CURVE SMOOTH",
"376 339 OFFCURVE",
"68 333 OFFCURVE",
"68 518 CURVE SMOOTH",
"68 591 OFFCURVE",
"116 642 OFFCURVE",
"208 642 CURVE SMOOTH"
);
},
{
closed = 1;
nodes = (
"99 666 OFFCURVE",
"42 600 OFFCURVE",
"42 515 CURVE SMOOTH",
"42 319 OFFCURVE",
"350 322 OFFCURVE",
"350 144 CURVE SMOOTH",
"350 62 OFFCURVE",
"284 16 OFFCURVE",
"210 16 CURVE SMOOTH",
"135 16 OFFCURVE",
"66 62 OFFCURVE",
"66 144 CURVE SMOOTH",
"66 318 OFFCURVE",
"374 319 OFFCURVE",
"374 516 CURVE SMOOTH",
"374 600 OFFCURVE",
"318 666 OFFCURVE",
"209 666 CURVE SMOOTH"
);
}
);
width = 416;
},
{
layerId = "639D56B4-59BE-4993-85FD-8F80ECD3B0F6";
paths = (
{
closed = 1;
nodes = (
"292 526 OFFCURVE",
"308 506 OFFCURVE",
"308 482 CURVE SMOOTH",
"308 384 OFFCURVE",
"30 331 OFFCURVE",
"30 154 CURVE SMOOTH",
"30 51 OFFCURVE",
"124 -11 OFFCURVE",
"256 -11 CURVE SMOOTH",
"391 -11 OFFCURVE",
"484 52 OFFCURVE",
"484 154 CURVE SMOOTH",
"484 329 OFFCURVE",
"206 377 OFFCURVE",
"206 481 CURVE SMOOTH",
"206 504 OFFCURVE",
"219 526 OFFCURVE",
"256 526 CURVE SMOOTH"
);
},
{
closed = 1;
nodes = (
"126 666 OFFCURVE",
"32 597 OFFCURVE",
"32 496 CURVE SMOOTH",
"32 323 OFFCURVE",
"310 283 OFFCURVE",
"310 172 CURVE SMOOTH",
"310 146 OFFCURVE",
"295 129 OFFCURVE",
"258 129 CURVE SMOOTH",
"220 129 OFFCURVE",
"204 147 OFFCURVE",
"204 174 CURVE SMOOTH",
"204 288 OFFCURVE",
"482 314 OFFCURVE",
"482 497 CURVE SMOOTH",
"482 607 OFFCURVE",
"383 666 OFFCURVE",
"259 666 CURVE SMOOTH"
);
}
);
width = 514;
},
{
layerId = "EAF3E1E9-0001-42EF-B2A4-765526B8C83B";
paths = (
{
closed = 1;
nodes = (
"233 641 OFFCURVE",
"269 591 OFFCURVE",
"269 517 CURVE SMOOTH",
"269 326 OFFCURVE",
"30 334 OFFCURVE",
"30 142 CURVE SMOOTH",
"30 52 OFFCURVE",
"83 -8 OFFCURVE",
"165 -8 CURVE SMOOTH",
"251 -8 OFFCURVE",
"296 57 OFFCURVE",
"296 143 CURVE SMOOTH",
"296 340 OFFCURVE",
"57 333 OFFCURVE",
"57 518 CURVE SMOOTH",
"57 590 OFFCURVE",
"93 641 OFFCURVE",
"163 641 CURVE SMOOTH"
);
},
{
closed = 1;
nodes = (
"76 666 OFFCURVE",
"31 600 OFFCURVE",
"31 515 CURVE SMOOTH",
"31 319 OFFCURVE",
"271 322 OFFCURVE",
"271 144 CURVE SMOOTH",
"271 63 OFFCURVE",
"221 17 OFFCURVE",
"165 17 CURVE SMOOTH",
"108 17 OFFCURVE",
"55 63 OFFCURVE",
"55 144 CURVE SMOOTH",
"55 316 OFFCURVE",
"295 319 OFFCURVE",
"295 516 CURVE SMOOTH",
"295 600 OFFCURVE",
"250 666 OFFCURVE",
"164 666 CURVE SMOOTH"
);
}
);
width = 326;
},
{
layerId = "A6029D4D-1571-45DB-86AE-EDC9D2308E6F";
paths = (
{
closed = 1;
nodes = (
"228 538 OFFCURVE",
"241 524 OFFCURVE",
"241 496 CURVE SMOOTH",
"241 381 OFFCURVE",
"22 331 OFFCURVE",
"22 157 CURVE SMOOTH",
"22 58 OFFCURVE",
"93 -8 OFFCURVE",
"205 -8 CURVE SMOOTH",
"317 -8 OFFCURVE",
"393 59 OFFCURVE",
"393 158 CURVE SMOOTH",
"393 327 OFFCURVE",
"174 375 OFFCURVE",
"174 494 CURVE SMOOTH",
"174 525 OFFCURVE",
"189 538 OFFCURVE",
"208 538 CURVE SMOOTH"
);
},
{
closed = 1;
nodes = (
"98 666 OFFCURVE",
"27 596 OFFCURVE",
"27 501 CURVE SMOOTH",
"27 334 OFFCURVE",
"243 294 OFFCURVE",
"243 167 CURVE SMOOTH",
"243 136 OFFCURVE",
"230 120 OFFCURVE",
"208 120 CURVE SMOOTH",
"186 120 OFFCURVE",
"172 136 OFFCURVE",
"172 169 CURVE SMOOTH",
"172 298 OFFCURVE",
"388 327 OFFCURVE",
"388 499 CURVE SMOOTH",
"388 598 OFFCURVE",
"317 666 OFFCURVE",
"208 666 CURVE SMOOTH"
);
}
);
width = 415;
}
);
note = visargaorya;
unicode = 0B03;
},
{
glyphname = "a-oriya";
lastChange = "2019-10-25 11:35:51 +0000";
layers = (
{
anchors = (
{
name = topright;
position = "{551, 658}";
}
);
guideLines = (
{
angle = 90;
position = "{31, 440}";
}
);
layerId = "926CF2F4-31F1-4036-BA3C-0F7EE51EF36A";
paths = (
{
closed = 1;
nodes = (
"360 -8 OFFCURVE",
"487 53 OFFCURVE",
"561 155 CURVE",
"559 193 LINE",
"477 76 OFFCURVE",
"355 16 OFFCURVE",
"244 16 CURVE SMOOTH",
"132 16 OFFCURVE",
"58 79 OFFCURVE",
"58 175 CURVE SMOOTH",
"58 269 OFFCURVE",
"121 297 OFFCURVE",
"244 338 CURVE SMOOTH",
"256 342 LINE SMOOTH",
"312 361 OFFCURVE",
"430 399 OFFCURVE",
"430 539 CURVE SMOOTH",
"430 619 OFFCURVE",
"390 666 OFFCURVE",
"322 666 CURVE SMOOTH",
"261 666 OFFCURVE",
"224 624 OFFCURVE",
"224 554 CURVE",
"239 554 LINE",
"239 624 OFFCURVE",
"200 666 OFFCURVE",
"135 666 CURVE SMOOTH",
"71 666 OFFCURVE",
"32 624 OFFCURVE",
"32 554 CURVE SMOOTH",
"32 515 OFFCURVE",
"43 467 OFFCURVE",
"73 428 CURVE",
"32 450 LINE",
"76 470 LINE",
"62 500 OFFCURVE",
"58 529 OFFCURVE",
"58 552 CURVE SMOOTH",
"58 609 OFFCURVE",
"88 642 OFFCURVE",
"137 642 CURVE SMOOTH",
"188 642 OFFCURVE",
"218 607 OFFCURVE",
"218 549 CURVE SMOOTH",
"218 468 LINE",
"244 468 LINE",
"244 549 LINE SMOOTH",
"244 607 OFFCURVE",
"273 642 OFFCURVE",
"322 642 CURVE SMOOTH",
"374 642 OFFCURVE",
"404 605 OFFCURVE",
"404 542 CURVE SMOOTH",
"404 414 OFFCURVE",
"303 382 OFFCURVE",
"242 362 CURVE SMOOTH",
"230 358 LINE SMOOTH",
"133 326 OFFCURVE",
"32 297 OFFCURVE",
"32 172 CURVE SMOOTH",
"32 59 OFFCURVE",
"116 -8 OFFCURVE",
"243 -8 CURVE SMOOTH"
);
},
{
closed = 1;
nodes = (
"564 0 LINE",
"564 658 LINE",
"538 658 LINE",
"538 156 LINE",
"538 140 LINE",
"538 0 LINE"
);
}
);
width = 634;
},
{
anchors = (
{
name = topright;
position = "{667, 658}";
}
);
layerId = "639D56B4-59BE-4993-85FD-8F80ECD3B0F6";
paths = (
{
closed = 1;
nodes = (
"434 -8 OFFCURVE",
"560 37 OFFCURVE",
"639 129 CURVE",
"628 330 LINE",
"539 202 OFFCURVE",
"401 152 OFFCURVE",
"296 152 CURVE SMOOTH",
"240 152 OFFCURVE",
"218 166 OFFCURVE",
"218 192 CURVE SMOOTH",
"218 225 OFFCURVE",
"245 237 OFFCURVE",
"311 257 CURVE SMOOTH",
"344 267 LINE SMOOTH",
"431 293 OFFCURVE",
"550 332 OFFCURVE",
"550 488 CURVE SMOOTH",
"550 601 OFFCURVE",
"487 666 OFFCURVE",
"401 666 CURVE SMOOTH",
"314 666 OFFCURVE",
"255 599 OFFCURVE",
"255 498 CURVE",
"313 498 LINE",
"313 593 OFFCURVE",
"264 666 OFFCURVE",
"163 666 CURVE SMOOTH",
"71 666 OFFCURVE",
"18 607 OFFCURVE",
"18 526 CURVE SMOOTH",
"18 486 OFFCURVE",
"31 441 OFFCURVE",
"58 395 CURVE",
"-10 411 LINE",
"181 452 LINE",
"173 473 OFFCURVE",
"168 490 OFFCURVE",
"168 509 CURVE SMOOTH",
"168 532 OFFCURVE",
"177 544 OFFCURVE",
"192 544 CURVE SMOOTH",
"214 544 OFFCURVE",
"214 517 OFFCURVE",
"214 501 CURVE SMOOTH",
"214 453 LINE",
"354 453 LINE",
"354 498 LINE SMOOTH",
"354 513 OFFCURVE",
"354 544 OFFCURVE",
"377 544 CURVE SMOOTH",
"393 544 OFFCURVE",
"400 530 OFFCURVE",
"400 502 CURVE SMOOTH",
"400 432 OFFCURVE",
"354 419 OFFCURVE",
"287 400 CURVE SMOOTH",
"244 388 LINE SMOOTH",
"181 370 OFFCURVE",
"44 334 OFFCURVE",
"44 185 CURVE SMOOTH",
"44 67 OFFCURVE",
"129 -8 OFFCURVE",
"301 -8 CURVE SMOOTH"
);
},
{
closed = 1;
nodes = (
"752 0 LINE",
"752 658 LINE",
"582 658 LINE",
"582 209 LINE",
"592 149 LINE",
"582 0 LINE"
);
}
);
width = 798;
},
{
anchors = (
{
name = topright;
position = "{454, 658}";
}
);
guideLines = (
{
angle = 90;
position = "{57, 440}";
}
);
layerId = "EAF3E1E9-0001-42EF-B2A4-765526B8C83B";
paths = (
{
closed = 1;
nodes = (
"299 -8 OFFCURVE",
"391 40 OFFCURVE",
"453 139 CURVE",
"450 184 LINE",
"397 74 OFFCURVE",
"300 17 OFFCURVE",
"219 17 CURVE SMOOTH",
"144 17 OFFCURVE",
"82 67 OFFCURVE",
"82 171 CURVE SMOOTH",
"82 268 OFFCURVE",
"141 295 OFFCURVE",
"203 326 CURVE SMOOTH",
"213 331 LINE SMOOTH",
"290 370 OFFCURVE",
"366 405 OFFCURVE",
"366 539 CURVE SMOOTH",
"366 638 OFFCURVE",
"325 666 OFFCURVE",
"281 666 CURVE SMOOTH",
"236 666 OFFCURVE",
"213 636 OFFCURVE",
"203 574 CURVE",
"221 574 LINE",
"210 636 OFFCURVE",
"187 666 OFFCURVE",
"141 666 CURVE SMOOTH",
"88 666 OFFCURVE",
"56 628 OFFCURVE",
"56 553 CURVE SMOOTH",
"56 516 OFFCURVE",
"64 468 OFFCURVE",
"89 429 CURVE",
"56 460 LINE",
"95 471 LINE",
"87 495 OFFCURVE",
"82 524 OFFCURVE",
"82 552 CURVE SMOOTH",
"82 598 OFFCURVE",
"94 641 OFFCURVE",
"138 641 CURVE SMOOTH",
"179 641 OFFCURVE",
"198 604 OFFCURVE",
"198 550 CURVE SMOOTH",
"198 469 LINE",
"224 469 LINE",
"224 550 LINE SMOOTH",
"224 599 OFFCURVE",
"241 641 OFFCURVE",
"284 641 CURVE SMOOTH",
"317 641 OFFCURVE",
"340 616 OFFCURVE",
"340 544 CURVE SMOOTH",
"340 423 OFFCURVE",
"277 390 OFFCURVE",
"200 352 CURVE SMOOTH",
"194 349 LINE SMOOTH",
"125 315 OFFCURVE",
"56 282 OFFCURVE",
"56 169 CURVE SMOOTH",
"56 52 OFFCURVE",
"130 -8 OFFCURVE",
"219 -8 CURVE SMOOTH"
);
},
{
closed = 1;
nodes = (
"467 0 LINE",
"467 658 LINE",
"441 658 LINE",
"441 154 LINE",
"441 140 LINE",
"441 0 LINE"
);
}
);
width = 519;
},
{
anchors = (
{
name = topright;
position = "{540, 658}";
}
);
layerId = "A6029D4D-1571-45DB-86AE-EDC9D2308E6F";
paths = (
{
closed = 1;
nodes = (
"323 -8 OFFCURVE",
"425 32 OFFCURVE",
"502 112 CURVE",
"477 301 LINE",
"431 204 OFFCURVE",
"316 138 OFFCURVE",
"244 138 CURVE SMOOTH",
"207 138 OFFCURVE",
"181 155 OFFCURVE",
"181 192 CURVE SMOOTH",
"181 232 OFFCURVE",
"212 246 OFFCURVE",
"249 261 CURVE SMOOTH",
"274 271 LINE SMOOTH",
"364 307 OFFCURVE",
"441 340 OFFCURVE",
"441 490 CURVE SMOOTH",
"441 608 OFFCURVE",
"395 666 OFFCURVE",
"317 666 CURVE SMOOTH",
"268 666 OFFCURVE",
"199 640 OFFCURVE",
"199 498 CURVE",
"243 498 LINE",
"243 603 OFFCURVE",
"210 666 OFFCURVE",
"129 666 CURVE SMOOTH",
"56 666 OFFCURVE",
"14 615 OFFCURVE",
"14 533 CURVE SMOOTH",
"14 497 OFFCURVE",
"24 436 OFFCURVE",
"45 395 CURVE",
"4 415 LINE",
"147 452 LINE",
"141 473 OFFCURVE",
"137 501 OFFCURVE",
"137 516 CURVE SMOOTH",
"137 536 OFFCURVE",
"144 548 OFFCURVE",
"155 548 CURVE SMOOTH",
"166 548 OFFCURVE",
"171 533 OFFCURVE",
"171 511 CURVE SMOOTH",
"171 453 LINE",
"283 453 LINE",
"283 511 LINE SMOOTH",
"283 532 OFFCURVE",
"286 548 OFFCURVE",
"298 548 CURVE SMOOTH",
"311 548 OFFCURVE",
"318 532 OFFCURVE",
"318 502 CURVE SMOOTH",
"318 427 OFFCURVE",
"268 407 OFFCURVE",
"228 394 CURVE SMOOTH",
"198 384 LINE SMOOTH",
"139 364 OFFCURVE",
"29 327 OFFCURVE",
"29 185 CURVE SMOOTH",
"29 56 OFFCURVE",
"122 -8 OFFCURVE",
"234 -8 CURVE SMOOTH"
);
},
{
closed = 1;
nodes = (
"613 0 LINE",
"613 658 LINE",
"466 658 LINE",
"466 209 LINE",
"491 149 LINE",
"466 0 LINE"
);
}
);
width = 647;
},
{
anchors = (
{
name = topright;
position = "{667, 658}";
}
);
associatedMasterId = "639D56B4-59BE-4993-85FD-8F80ECD3B0F6";
background = {
paths = (
{
closed = 1;
nodes = (
"434 -8 OFFCURVE",
"560 37 OFFCURVE",
"639 129 CURVE",
"628 330 LINE",
"539 202 OFFCURVE",
"401 152 OFFCURVE",
"296 152 CURVE SMOOTH",
"240 152 OFFCURVE",
"218 166 OFFCURVE",
"218 192 CURVE SMOOTH",
"218 225 OFFCURVE",
"245 237 OFFCURVE",
"311 257 CURVE SMOOTH",
"344 267 LINE SMOOTH",
"431 293 OFFCURVE",
"550 332 OFFCURVE",
"550 488 CURVE SMOOTH",
"550 601 OFFCURVE",
"487 666 OFFCURVE",
"401 666 CURVE SMOOTH",
"314 666 OFFCURVE",
"255 599 OFFCURVE",
"255 498 CURVE",
"313 498 LINE",
"313 593 OFFCURVE",
"264 666 OFFCURVE",
"163 666 CURVE SMOOTH",
"71 666 OFFCURVE",
"18 607 OFFCURVE",
"18 526 CURVE SMOOTH",
"18 486 OFFCURVE",
"31 441 OFFCURVE",
"58 395 CURVE",
"-10 411 LINE",
"181 452 LINE",
"173 473 OFFCURVE",
"168 490 OFFCURVE",
"168 509 CURVE SMOOTH",
"168 532 OFFCURVE",
"177 544 OFFCURVE",
"192 544 CURVE SMOOTH",
"214 544 OFFCURVE",
"214 517 OFFCURVE",
"214 501 CURVE SMOOTH",
"214 453 LINE",
"354 453 LINE",
"354 498 LINE SMOOTH",
"354 513 OFFCURVE",
"354 544 OFFCURVE",
"377 544 CURVE SMOOTH",
"393 544 OFFCURVE",
"400 530 OFFCURVE",
"400 502 CURVE SMOOTH",
"400 432 OFFCURVE",
"354 419 OFFCURVE",
"287 400 CURVE SMOOTH",
"244 388 LINE SMOOTH",
"181 370 OFFCURVE",
"44 334 OFFCURVE",
"44 185 CURVE SMOOTH",
"44 67 OFFCURVE",
"129 -8 OFFCURVE",
"301 -8 CURVE SMOOTH"
);
},
{
closed = 1;
nodes = (
"752 0 LINE",
"752 658 LINE",
"582 658 LINE",
"582 209 LINE",
"592 149 LINE",
"582 0 LINE"
);
}
);
};
layerId = "894C2807-A412-44C5-8905-0F9C562FDF5F";
name = "Black ]141]";
paths = (
{
closed = 1;
nodes = (
"434 -8 OFFCURVE",
"560 37 OFFCURVE",
"639 129 CURVE",
"628 330 LINE",
"539 202 OFFCURVE",
"401 152 OFFCURVE",
"296 152 CURVE SMOOTH",
"240 152 OFFCURVE",
"218 166 OFFCURVE",
"218 192 CURVE SMOOTH",
"218 225 OFFCURVE",
"245 237 OFFCURVE",
"311 257 CURVE SMOOTH",
"344 267 LINE SMOOTH",
"431 293 OFFCURVE",
"550 332 OFFCURVE",
"550 488 CURVE SMOOTH",
"550 601 OFFCURVE",
"487 666 OFFCURVE",
"401 666 CURVE SMOOTH",
"314 666 OFFCURVE",
"255 599 OFFCURVE",
"255 498 CURVE",
"313 498 LINE",
"313 593 OFFCURVE",
"264 666 OFFCURVE",
"163 666 CURVE SMOOTH",
"71 666 OFFCURVE",
"18 607 OFFCURVE",
"18 526 CURVE SMOOTH",
"18 486 OFFCURVE",
"31 441 OFFCURVE",
"58 395 CURVE",
"-10 411 LINE",
"191 452 LINE",
"183 473 OFFCURVE",
"178 488 OFFCURVE",
"178 499 CURVE SMOOTH",
"178 512 OFFCURVE",
"183 524 OFFCURVE",
"194 524 CURVE SMOOTH",
"207 524 OFFCURVE",
"210 511 OFFCURVE",
"210 496 CURVE SMOOTH",
"210 453 LINE",
"358 453 LINE",
"358 494 LINE SMOOTH",
"358 511 OFFCURVE",
"362 524 OFFCURVE",
"374 524 CURVE SMOOTH",
"384 524 OFFCURVE",
"390 513 OFFCURVE",
"390 492 CURVE SMOOTH",
"390 436 OFFCURVE",
"354 419 OFFCURVE",
"287 400 CURVE SMOOTH",
"244 388 LINE SMOOTH",
"181 370 OFFCURVE",
"44 334 OFFCURVE",
"44 185 CURVE SMOOTH",
"44 67 OFFCURVE",
"129 -8 OFFCURVE",
"301 -8 CURVE SMOOTH"
);
},
{
closed = 1;
nodes = (
"752 0 LINE",
"752 658 LINE",
"582 658 LINE",
"582 209 LINE",
"592 149 LINE",
"582 0 LINE"
);
}
);
width = 798;
},
{
anchors = (
{
name = topright;
position = "{540, 658}";
}
);
associatedMasterId = "A6029D4D-1571-45DB-86AE-EDC9D2308E6F";
background = {
paths = (
{
closed = 1;
nodes = (
"323 -8 OFFCURVE",
"425 32 OFFCURVE",
"502 112 CURVE",
"477 301 LINE",
"431 204 OFFCURVE",
"316 138 OFFCURVE",
"244 138 CURVE SMOOTH",
"207 138 OFFCURVE",
"181 155 OFFCURVE",
"181 192 CURVE SMOOTH",
"181 232 OFFCURVE",
"212 246 OFFCURVE",
"249 261 CURVE SMOOTH",
"274 271 LINE SMOOTH",
"364 307 OFFCURVE",
"441 340 OFFCURVE",
"441 490 CURVE SMOOTH",
"441 608 OFFCURVE",
"395 666 OFFCURVE",
"317 666 CURVE SMOOTH",
"268 666 OFFCURVE",
"199 640 OFFCURVE",
"199 498 CURVE",
"243 498 LINE",
"243 603 OFFCURVE",
"210 666 OFFCURVE",
"129 666 CURVE SMOOTH",
"56 666 OFFCURVE",
"14 615 OFFCURVE",
"14 533 CURVE SMOOTH",
"14 497 OFFCURVE",
"24 436 OFFCURVE",
"45 395 CURVE",
"4 415 LINE",
"147 452 LINE",
"141 473 OFFCURVE",
"137 501 OFFCURVE",
"137 516 CURVE SMOOTH",
"137 532 OFFCURVE",
"144 542 OFFCURVE",
"155 542 CURVE SMOOTH",
"166 542 OFFCURVE",
"171 529 OFFCURVE",
"171 511 CURVE SMOOTH",
"171 453 LINE",
"283 453 LINE",
"283 511 LINE SMOOTH",
"283 528 OFFCURVE",
"286 542 OFFCURVE",
"298 542 CURVE SMOOTH",
"311 542 OFFCURVE",
"318 528 OFFCURVE",
"318 502 CURVE SMOOTH",
"318 427 OFFCURVE",
"268 407 OFFCURVE",
"228 394 CURVE SMOOTH",
"198 384 LINE SMOOTH",
"139 364 OFFCURVE",
"29 327 OFFCURVE",
"29 185 CURVE SMOOTH",
"29 56 OFFCURVE",
"122 -8 OFFCURVE",
"234 -8 CURVE SMOOTH"
);
},
{
closed = 1;
nodes = (
"613 0 LINE",
"613 658 LINE",
"466 658 LINE",
"466 209 LINE",
"474 149 LINE",
"466 0 LINE"
);
}
);
};
layerId = "9D093AD4-4D99-4E29-9512-A5EE1B4DD0BD";
name = "ExtraCondensed Black ]141]";
paths = (
{
closed = 1;
nodes = (
"323 -8 OFFCURVE",
"425 32 OFFCURVE",
"502 112 CURVE",
"477 301 LINE",
"431 204 OFFCURVE",
"316 138 OFFCURVE",
"244 138 CURVE SMOOTH",
"207 138 OFFCURVE",
"181 155 OFFCURVE",
"181 192 CURVE SMOOTH",
"181 232 OFFCURVE",
"212 246 OFFCURVE",
"249 261 CURVE SMOOTH",
"274 271 LINE SMOOTH",
"364 307 OFFCURVE",
"441 340 OFFCURVE",
"441 491 CURVE SMOOTH",
"441 609 OFFCURVE",
"394 666 OFFCURVE",
"319 666 CURVE SMOOTH",
"268 666 OFFCURVE",
"199 640 OFFCURVE",
"199 498 CURVE",
"243 498 LINE",
"243 603 OFFCURVE",
"210 666 OFFCURVE",
"129 666 CURVE SMOOTH",
"56 666 OFFCURVE",
"14 615 OFFCURVE",
"14 533 CURVE SMOOTH",
"14 497 OFFCURVE",
"24 436 OFFCURVE",
"45 395 CURVE",
"4 415 LINE",
"151 452 LINE",
"145 474 OFFCURVE",
"141 494 OFFCURVE",
"141 504 CURVE SMOOTH",
"141 518 OFFCURVE",
"144 528 OFFCURVE",
"154 528 CURVE SMOOTH",
"167 528 OFFCURVE",
"167 513 OFFCURVE",
"167 501 CURVE SMOOTH",
"167 453 LINE",
"287 453 LINE",
"287 500 LINE SMOOTH",
"287 516 OFFCURVE",
"289 528 OFFCURVE",
"300 528 CURVE SMOOTH",
"309 528 OFFCURVE",
"314 517 OFFCURVE",
"314 498 CURVE SMOOTH",
"314 428 OFFCURVE",
"266 407 OFFCURVE",
"228 394 CURVE SMOOTH",
"198 384 LINE SMOOTH",
"139 364 OFFCURVE",
"29 328 OFFCURVE",
"29 186 CURVE SMOOTH",
"29 56 OFFCURVE",
"122 -8 OFFCURVE",
"234 -8 CURVE SMOOTH"
);
},
{
closed = 1;
nodes = (
"613 0 LINE",
"613 658 LINE",
"466 658 LINE",
"466 209 LINE",
"491 149 LINE",
"466 0 LINE"
);
}
);
width = 647;
}
);
note = aorya;
rightMetricsKey = "aaMatra-oriya";
unicode = 0B05;
},
{
glyphname = "i-oriya";
lastChange = "2019-10-25 11:35:51 +0000";
layers = (
{
anchors = (
{
name = topright;
position = "{641, 658}";
}
);
guideLines = (
{
position = "{1071, 328}";
}
);
layerId = "926CF2F4-31F1-4036-BA3C-0F7EE51EF36A";
paths = (
{
closed = 1;
nodes = (
"732 -43 LINE",
"675 -34 LINE",
"762 38 LINE",
"759 -32 LINE",
"612 158 LINE",
"606 136 LINE",
"675 205 OFFCURVE",
"706 283 OFFCURVE",
"706 368 CURVE SMOOTH",
"706 570 OFFCURVE",
"530 666 OFFCURVE",
"359 666 CURVE SMOOTH",
"196 666 OFFCURVE",
"38 579 OFFCURVE",
"38 412 CURVE SMOOTH",
"38 333 OFFCURVE",
"73 266 OFFCURVE",
"138 215 CURVE",
"144 243 LINE",
"92 285 OFFCURVE",
"64 341 OFFCURVE",
"64 406 CURVE SMOOTH",
"64 562 OFFCURVE",
"210 642 OFFCURVE",
"359 642 CURVE SMOOTH",
"516 642 OFFCURVE",
"680 554 OFFCURVE",
"680 365 CURVE SMOOTH",
"680 287 OFFCURVE",
"653 215 OFFCURVE",
"586 152 CURVE"
);
},
{
closed = 1;
nodes = (
"302 -8 OFFCURVE",
"337 52 OFFCURVE",
"337 159 CURVE SMOOTH",
"337 266 OFFCURVE",
"302 326 OFFCURVE",
"231 326 CURVE SMOOTH",
"162 326 OFFCURVE",
"120 267 OFFCURVE",
"120 159 CURVE SMOOTH",
"120 52 OFFCURVE",
"161 -8 OFFCURVE",
"231 -8 CURVE SMOOTH"
);
},
{
closed = 1;
nodes = (
"179 16 OFFCURVE",
"146 66 OFFCURVE",
"146 160 CURVE SMOOTH",
"146 252 OFFCURVE",
"178 302 OFFCURVE",
"231 302 CURVE SMOOTH",
"286 302 OFFCURVE",
"314 251 OFFCURVE",
"314 160 CURVE SMOOTH",
"314 66 OFFCURVE",
"284 16 OFFCURVE",
"231 16 CURVE SMOOTH"
);
},
{
closed = 1;
nodes = (
"496 -8 OFFCURVE",
"534 52 OFFCURVE",
"534 159 CURVE SMOOTH",
"534 266 OFFCURVE",
"496 326 OFFCURVE",
"426 326 CURVE SMOOTH",
"356 326 OFFCURVE",
"317 267 OFFCURVE",
"317 159 CURVE SMOOTH",
"317 52 OFFCURVE",
"356 -8 OFFCURVE",
"426 -8 CURVE SMOOTH"
);
},
{
closed = 1;
nodes = (
"373 16 OFFCURVE",
"340 66 OFFCURVE",
"340 160 CURVE SMOOTH",
"340 252 OFFCURVE",
"372 302 OFFCURVE",
"426 302 CURVE SMOOTH",
"480 302 OFFCURVE",
"508 251 OFFCURVE",
"508 160 CURVE SMOOTH",
"508 66 OFFCURVE",
"478 16 OFFCURVE",
"426 16 CURVE SMOOTH"
);
}
);
width = 751;
},
{
anchors = (
{
name = topright;
position = "{695, 658}";
}
);
guideLines = (
{
position = "{1051, 351}";
}
);
layerId = "639D56B4-59BE-4993-85FD-8F80ECD3B0F6";
paths = (
{
closed = 1;
nodes = (
"784 -88 LINE",
"688 -37 LINE",
"893 108 LINE",
"948 -8 LINE",
"755 230 LINE",
"725 100 LINE",
"811 178 OFFCURVE",
"845 265 OFFCURVE",
"845 347 CURVE SMOOTH",
"845 554 OFFCURVE",
"625 665 OFFCURVE",
"414 665 CURVE SMOOTH",
"214 665 OFFCURVE",
"22 571 OFFCURVE",
"22 392 CURVE SMOOTH",
"22 317 OFFCURVE",
"56 240 OFFCURVE",
"173 170 CURVE",
"233 282 LINE",
"201 311 OFFCURVE",
"186 341 OFFCURVE",
"186 373 CURVE SMOOTH",
"186 456 OFFCURVE",
"291 506 OFFCURVE",
"404 506 CURVE SMOOTH",
"532 506 OFFCURVE",
"671 441 OFFCURVE",
"671 300 CURVE SMOOTH",
"671 253 OFFCURVE",
"655 201 OFFCURVE",
"610 157 CURVE"
);
},
{
closed = 1;
nodes = (
"324 -8 OFFCURVE",
"373 67 OFFCURVE",
"373 173 CURVE SMOOTH",
"373 280 OFFCURVE",
"323 351 OFFCURVE",
"236 351 CURVE SMOOTH",
"150 351 OFFCURVE",
"90 281 OFFCURVE",
"90 170 CURVE SMOOTH",
"90 58 OFFCURVE",
"152 -8 OFFCURVE",
"235 -8 CURVE SMOOTH"
);
},
{
closed = 1;
nodes = (
"220 120 OFFCURVE",
"210 139 OFFCURVE",
"210 172 CURVE SMOOTH",
"210 205 OFFCURVE",
"220 223 OFFCURVE",
"243 223 CURVE SMOOTH",
"266 223 OFFCURVE",
"276 207 OFFCURVE",
"276 172 CURVE SMOOTH",
"276 138 OFFCURVE",
"266 120 OFFCURVE",
"243 120 CURVE SMOOTH"
);
},
{
closed = 1;
nodes = (
"530 -8 OFFCURVE",
"590 60 OFFCURVE",
"590 173 CURVE SMOOTH",
"590 285 OFFCURVE",
"531 351 OFFCURVE",
"448 351 CURVE SMOOTH",
"361 351 OFFCURVE",
"303 280 OFFCURVE",
"303 173 CURVE SMOOTH",
"303 67 OFFCURVE",
"360 -8 OFFCURVE",
"447 -8 CURVE SMOOTH"
);
},
{
closed = 1;
nodes = (
"414 120 OFFCURVE",
"404 138 OFFCURVE",
"404 172 CURVE SMOOTH",
"404 207 OFFCURVE",
"414 223 OFFCURVE",
"437 223 CURVE SMOOTH",
"459 223 OFFCURVE",
"470 205 OFFCURVE",
"470 172 CURVE SMOOTH",
"470 139 OFFCURVE",
"460 120 OFFCURVE",
"437 120 CURVE SMOOTH"
);
}
);
width = 876;
},
{
anchors = (
{
name = topright;
position = "{503, 658}";
}
);
guideLines = (
{
position = "{360, 210}";
}
);
layerId = "EAF3E1E9-0001-42EF-B2A4-765526B8C83B";
paths = (
{
closed = 1;
nodes = (
"558 -39 LINE",
"509 -27 LINE",
"578 14 LINE",
"571 -13 LINE",
"475 156 LINE",
"467 136 LINE",
"522 208 OFFCURVE",
"548 294 OFFCURVE",
"548 375 CURVE SMOOTH",
"548 529 OFFCURVE",
"446 666 OFFCURVE",
"284 666 CURVE SMOOTH",
"152 666 OFFCURVE",
"28 574 OFFCURVE",
"28 408 CURVE SMOOTH",
"28 336 OFFCURVE",
"51 266 OFFCURVE",
"103 203 CURVE",
"114 230 LINE",
"73 284 OFFCURVE",
"54 344 OFFCURVE",
"54 405 CURVE SMOOTH",
"54 557 OFFCURVE",
"164 641 OFFCURVE",
"283 641 CURVE SMOOTH",
"428 641 OFFCURVE",
"522 517 OFFCURVE",
"522 375 CURVE SMOOTH",
"522 300 OFFCURVE",
"498 220 OFFCURVE",
"449 151 CURVE"
);
},
{
closed = 1;
nodes = (
"237 -8 OFFCURVE",
"265 53 OFFCURVE",
"265 159 CURVE SMOOTH",
"265 265 OFFCURVE",
"237 326 OFFCURVE",
"180 326 CURVE SMOOTH",
"126 326 OFFCURVE",
"93 267 OFFCURVE",
"93 159 CURVE SMOOTH",
"93 52 OFFCURVE",
"125 -8 OFFCURVE",
"180 -8 CURVE SMOOTH"
);
},
{
closed = 1;
nodes = (
"142 17 OFFCURVE",
"119 67 OFFCURVE",
"119 160 CURVE SMOOTH",
"119 249 OFFCURVE",
"140 301 OFFCURVE",
"181 301 CURVE SMOOTH",
"222 301 OFFCURVE",
"243 250 OFFCURVE",
"243 160 CURVE SMOOTH",
"243 67 OFFCURVE",
"220 17 OFFCURVE",
"181 17 CURVE SMOOTH"
);
},
{
closed = 1;
nodes = (
"388 -8 OFFCURVE",
"419 51 OFFCURVE",
"419 159 CURVE SMOOTH",
"419 266 OFFCURVE",
"389 326 OFFCURVE",
"334 326 CURVE SMOOTH",
"278 326 OFFCURVE",
"247 266 OFFCURVE",
"247 159 CURVE SMOOTH",
"247 53 OFFCURVE",
"277 -8 OFFCURVE",
"333 -8 CURVE SMOOTH"
);
},
{
closed = 1;
nodes = (
"293 17 OFFCURVE",
"269 67 OFFCURVE",
"269 159 CURVE SMOOTH",
"269 249 OFFCURVE",
"292 301 OFFCURVE",
"333 301 CURVE SMOOTH",
"373 301 OFFCURVE",
"393 250 OFFCURVE",
"393 160 CURVE SMOOTH",
"393 66 OFFCURVE",
"371 17 OFFCURVE",
"332 17 CURVE SMOOTH"
);
}
);
width = 581;
},
{
anchors = (
{
name = topright;
position = "{576, 658}";
}
);
guideLines = (
{
position = "{1058, 351}";
},
{
position = "{391, 225}";
}
);
layerId = "A6029D4D-1571-45DB-86AE-EDC9D2308E6F";
paths = (
{
closed = 1;
nodes = (
"652 -83 LINE",
"568 -33 LINE",
"772 98 LINE",
"800 -3 LINE",
"636 241 LINE",
"609 100 LINE",
"675 185 OFFCURVE",
"706 275 OFFCURVE",
"706 358 CURVE",
"706 527 OFFCURVE",
"576 666 OFFCURVE",
"351 666 CURVE SMOOTH",
"126 666 OFFCURVE",
"16 527 OFFCURVE",
"16 392 CURVE SMOOTH",
"16 310 OFFCURVE",
"58 227 OFFCURVE",
"140 178 CURVE",
"198 283 LINE",
"175 304 OFFCURVE",
"163 334 OFFCURVE",
"163 365 CURVE SMOOTH",
"163 436 OFFCURVE",
"219 520 OFFCURVE",
"349 520 CURVE SMOOTH",
"483 520 OFFCURVE",
"554 427 OFFCURVE",
"554 317 CURVE SMOOTH",
"554 265 OFFCURVE",
"539 209 OFFCURVE",
"507 157 CURVE"
);
},
{
closed = 1;
nodes = (
"274 -8 OFFCURVE",
"312 62 OFFCURVE",
"312 174 CURVE SMOOTH",
"312 285 OFFCURVE",
"275 351 OFFCURVE",
"206 351 CURVE SMOOTH",
"137 351 OFFCURVE",
"86 284 OFFCURVE",
"86 171 CURVE SMOOTH",
"86 56 OFFCURVE",
"138 -8 OFFCURVE",
"206 -8 CURVE SMOOTH"
);
},
{
closed = 1;
nodes = (
"196 109 OFFCURVE",
"191 124 OFFCURVE",
"191 172 CURVE SMOOTH",
"191 220 OFFCURVE",
"196 234 OFFCURVE",
"213 234 CURVE SMOOTH",
"230 234 OFFCURVE",
"235 220 OFFCURVE",
"235 172 CURVE SMOOTH",
"235 124 OFFCURVE",
"230 109 OFFCURVE",
"213 109 CURVE SMOOTH"
);
},
{
closed = 1;
nodes = (
"437 -8 OFFCURVE",
"487 59 OFFCURVE",
"487 173 CURVE SMOOTH",
"487 284 OFFCURVE",
"439 351 OFFCURVE",
"370 351 CURVE SMOOTH",
"299 351 OFFCURVE",
"259 281 OFFCURVE",
"259 173 CURVE SMOOTH",
"259 62 OFFCURVE",
"302 -8 OFFCURVE",
"369 -8 CURVE SMOOTH"
);
},
{
closed = 1;
nodes = (
"343 109 OFFCURVE",
"338 124 OFFCURVE",
"338 172 CURVE SMOOTH",
"338 220 OFFCURVE",
"343 234 OFFCURVE",
"360 234 CURVE SMOOTH",
"377 234 OFFCURVE",
"382 220 OFFCURVE",
"382 172 CURVE SMOOTH",
"382 124 OFFCURVE",
"377 109 OFFCURVE",
"360 109 CURVE SMOOTH"
);
}
);
width = 742;
},
{
anchors = (
{
name = topright;
position = "{576, 658}";
}
);
annotations = (
{
position = "{30, 933}";
text = "I wonder if that would make sense to have a reverse bracket layer? There is one for instance in teh following glyph.";
type = Text;
width = 219;
}
);
associatedMasterId = "A6029D4D-1571-45DB-86AE-EDC9D2308E6F";
background = {
paths = (
{
closed = 1;
nodes = (
"636 -83 LINE",
"568 -33 LINE",
"772 77 LINE",
"784 -3 LINE",
"627 230 LINE",
"609 90 LINE",
"660 156 OFFCURVE",
"704 256 OFFCURVE",
"704 361 CURVE SMOOTH",
"704 548 OFFCURVE",
"563 666 OFFCURVE",
"350 666 CURVE SMOOTH",
"129 666 OFFCURVE",
"16 538 OFFCURVE",
"16 407 CURVE SMOOTH",
"16 328 OFFCURVE",
"57 249 OFFCURVE",
"143 196 CURVE",
"204 289 LINE",
"179 316 OFFCURVE",
"168 348 OFFCURVE",
"168 379 CURVE SMOOTH",
"168 451 OFFCURVE",
"229 520 OFFCURVE",
"350 520 CURVE SMOOTH",
"463 520 OFFCURVE",
"552 459 OFFCURVE",
"552 322 CURVE SMOOTH",
"552 267 OFFCURVE",
"537 205 OFFCURVE",
"507 157 CURVE"
);
},
{
closed = 1;
nodes = (
"277 -8 OFFCURVE",
"314 63 OFFCURVE",
"314 174 CURVE SMOOTH",
"314 285 OFFCURVE",
"277 351 OFFCURVE",
"208 351 CURVE SMOOTH",
"139 351 OFFCURVE",
"86 284 OFFCURVE",
"86 170 CURVE SMOOTH",
"86 55 OFFCURVE",
"140 -8 OFFCURVE",
"206 -8 CURVE SMOOTH"
);
},
{
closed = 1;
nodes = (
"202 117 OFFCURVE",
"197 132 OFFCURVE",
"197 172 CURVE SMOOTH",
"197 211 OFFCURVE",
"202 226 OFFCURVE",
"215 226 CURVE SMOOTH",
"228 226 OFFCURVE",
"233 211 OFFCURVE",
"233 172 CURVE SMOOTH",
"233 132 OFFCURVE",
"228 117 OFFCURVE",
"215 117 CURVE SMOOTH"
);
},
{
closed = 1;
nodes = (
"439 -8 OFFCURVE",
"491 58 OFFCURVE",
"491 172 CURVE SMOOTH",
"491 284 OFFCURVE",
"441 351 OFFCURVE",
"372 351 CURVE SMOOTH",
"301 351 OFFCURVE",
"261 282 OFFCURVE",
"261 174 CURVE SMOOTH",
"261 62 OFFCURVE",
"304 -8 OFFCURVE",
"372 -8 CURVE SMOOTH"
);
},
{
closed = 1;
nodes = (
"349 117 OFFCURVE",
"344 132 OFFCURVE",
"344 172 CURVE SMOOTH",
"344 211 OFFCURVE",
"349 226 OFFCURVE",
"362 226 CURVE SMOOTH",
"375 226 OFFCURVE",
"380 211 OFFCURVE",
"380 172 CURVE SMOOTH",
"380 132 OFFCURVE",
"375 117 OFFCURVE",
"362 117 CURVE SMOOTH"
);
}
);
};
guideLines = (
{
position = "{1053, 351}";
}
);
layerId = "EBCE5B56-0FAF-4BB7-8E92-026EB72D26CE";
name = "ExtraCondensed Black ]141]";
paths = (
{
closed = 1;
nodes = (
"652 -83 LINE",
"568 -33 LINE",
"772 98 LINE",
"800 -3 LINE",
"636 241 LINE",
"609 100 LINE",
"675 185 OFFCURVE",
"706 275 OFFCURVE",
"706 358 CURVE",
"706 527 OFFCURVE",
"576 666 OFFCURVE",
"351 666 CURVE SMOOTH",
"126 666 OFFCURVE",
"16 527 OFFCURVE",
"16 392 CURVE SMOOTH",
"16 310 OFFCURVE",
"58 227 OFFCURVE",
"140 178 CURVE",
"198 283 LINE",
"175 304 OFFCURVE",
"163 334 OFFCURVE",
"163 365 CURVE SMOOTH",
"163 436 OFFCURVE",
"219 520 OFFCURVE",
"349 520 CURVE SMOOTH",
"483 520 OFFCURVE",
"554 427 OFFCURVE",
"554 317 CURVE SMOOTH",
"554 265 OFFCURVE",
"539 209 OFFCURVE",
"507 157 CURVE"
);
},
{
closed = 1;
nodes = (
"277 -8 OFFCURVE",
"314 63 OFFCURVE",
"314 174 CURVE SMOOTH",
"314 285 OFFCURVE",
"277 351 OFFCURVE",
"208 351 CURVE SMOOTH",
"139 351 OFFCURVE",
"86 284 OFFCURVE",
"86 170 CURVE SMOOTH",
"86 55 OFFCURVE",
"140 -8 OFFCURVE",
"206 -8 CURVE SMOOTH"
);
},
{
closed = 1;
nodes = (
"202 117 OFFCURVE",
"197 132 OFFCURVE",
"197 172 CURVE SMOOTH",
"197 211 OFFCURVE",
"202 226 OFFCURVE",
"215 226 CURVE SMOOTH",
"228 226 OFFCURVE",
"233 211 OFFCURVE",
"233 172 CURVE SMOOTH",
"233 132 OFFCURVE",
"228 117 OFFCURVE",
"215 117 CURVE SMOOTH"
);
},
{
closed = 1;
nodes = (
"439 -8 OFFCURVE",
"491 58 OFFCURVE",
"491 172 CURVE SMOOTH",
"491 284 OFFCURVE",
"441 351 OFFCURVE",
"372 351 CURVE SMOOTH",
"301 351 OFFCURVE",
"261 282 OFFCURVE",
"261 174 CURVE SMOOTH",
"261 62 OFFCURVE",
"304 -8 OFFCURVE",
"372 -8 CURVE SMOOTH"
);
},
{
closed = 1;
nodes = (
"349 117 OFFCURVE",
"344 132 OFFCURVE",
"344 172 CURVE SMOOTH",
"344 211 OFFCURVE",
"349 226 OFFCURVE",
"362 226 CURVE SMOOTH",
"375 226 OFFCURVE",
"380 211 OFFCURVE",
"380 172 CURVE SMOOTH",
"380 132 OFFCURVE",
"375 117 OFFCURVE",
"362 117 CURVE SMOOTH"
);
}
);
width = 742;
},
{
anchors = (
{
name = topright;
position = "{695, 658}";
}
);
associatedMasterId = "639D56B4-59BE-4993-85FD-8F80ECD3B0F6";
background = {
paths = (
{
closed = 1;
nodes = (
"785 -88 LINE",
"689 -37 LINE",
"894 108 LINE",
"949 -8 LINE",
"756 230 LINE",
"728 100 LINE",
"808 179 OFFCURVE",
"845 269 OFFCURVE",
"845 358 CURVE SMOOTH",
"845 543 OFFCURVE",
"683 666 OFFCURVE",
"426 666 CURVE SMOOTH",
"187 666 OFFCURVE",
"22 560 OFFCURVE",
"22 397 CURVE SMOOTH",
"22 317 OFFCURVE",
"62 235 OFFCURVE",
"173 170 CURVE",
"233 282 LINE",
"202 309 OFFCURVE",
"187 344 OFFCURVE",
"187 375 CURVE SMOOTH",
"187 454 OFFCURVE",
"287 506 OFFCURVE",
"418 506 CURVE SMOOTH",
"578 506 OFFCURVE",
"671 429 OFFCURVE",
"671 315 CURVE SMOOTH",
"671 261 OFFCURVE",
"650 205 OFFCURVE",
"611 157 CURVE"
);
}
);
};
layerId = "222AF526-3685-4065-9736-C61F3A606A78";
name = "Black ]141]";
paths = (
{
closed = 1;
nodes = (
"784 -88 LINE",
"688 -37 LINE",
"893 108 LINE",
"948 -8 LINE",
"755 230 LINE",
"725 100 LINE",
"811 178 OFFCURVE",
"845 265 OFFCURVE",
"845 347 CURVE SMOOTH",
"845 554 OFFCURVE",
"625 665 OFFCURVE",
"414 665 CURVE SMOOTH",
"214 665 OFFCURVE",
"22 571 OFFCURVE",
"22 392 CURVE SMOOTH",
"22 317 OFFCURVE",
"56 240 OFFCURVE",
"173 170 CURVE",
"233 282 LINE",
"201 311 OFFCURVE",
"186 341 OFFCURVE",
"186 373 CURVE SMOOTH",
"186 456 OFFCURVE",
"291 506 OFFCURVE",
"404 506 CURVE SMOOTH",
"532 506 OFFCURVE",
"671 441 OFFCURVE",
"671 300 CURVE SMOOTH",
"671 253 OFFCURVE",
"655 201 OFFCURVE",
"610 157 CURVE"
);
},
{
closed = 1;
nodes = (
"323 -8 OFFCURVE",
"373 67 OFFCURVE",
"373 172 CURVE SMOOTH",
"373 280 OFFCURVE",
"323 351 OFFCURVE",
"238 351 CURVE SMOOTH",
"152 351 OFFCURVE",
"90 285 OFFCURVE",
"90 168 CURVE SMOOTH",
"90 58 OFFCURVE",
"152 -8 OFFCURVE",
"238 -8 CURVE SMOOTH"
);
},
{
closed = 1;
nodes = (
"223 126 OFFCURVE",
"214 143 OFFCURVE",
"214 172 CURVE SMOOTH",
"214 201 OFFCURVE",
"223 217 OFFCURVE",
"243 217 CURVE SMOOTH",
"263 217 OFFCURVE",
"272 203 OFFCURVE",
"272 172 CURVE SMOOTH",
"272 142 OFFCURVE",
"263 126 OFFCURVE",
"243 126 CURVE SMOOTH"
);
},
{
closed = 1;
nodes = (
"530 -8 OFFCURVE",
"590 60 OFFCURVE",
"590 171 CURVE SMOOTH",
"590 285 OFFCURVE",
"532 351 OFFCURVE",
"445 351 CURVE SMOOTH",
"361 351 OFFCURVE",
"303 280 OFFCURVE",
"303 172 CURVE SMOOTH",
"303 67 OFFCURVE",
"361 -8 OFFCURVE",
"446 -8 CURVE SMOOTH"
);
},
{
closed = 1;
nodes = (
"417 126 OFFCURVE",
"408 142 OFFCURVE",
"408 172 CURVE SMOOTH",
"408 203 OFFCURVE",
"417 217 OFFCURVE",
"437 217 CURVE SMOOTH",
"457 217 OFFCURVE",
"466 201 OFFCURVE",
"466 172 CURVE SMOOTH",
"466 143 OFFCURVE",
"457 126 OFFCURVE",
"437 126 CURVE SMOOTH"
);
}
);
width = 876;
}
);
note = iorya;
unicode = 0B07;
},
{
glyphname = "ii-oriya";
lastChange = "2019-10-25 11:35:51 +0000";
layers = (
{
anchors = (
{
name = topright;
position = "{642, 658}";
}
);
layerId = "926CF2F4-31F1-4036-BA3C-0F7EE51EF36A";
paths = (
{
closed = 1;
nodes = (
"734 -46 LINE",
"670 -37 LINE",
"757 33 LINE",
"757 -31 LINE",
"612 158 LINE",
"606 136 LINE",
"675 203 OFFCURVE",
"707 283 OFFCURVE",
"707 373 CURVE SMOOTH",
"707 564 OFFCURVE",
"571 666 OFFCURVE",
"437 666 CURVE SMOOTH",
"336 666 OFFCURVE",
"235 608 OFFCURVE",
"194 489 CURVE",
"225 496 LINE",
"263 595 OFFCURVE",
"349 642 OFFCURVE",
"436 642 CURVE SMOOTH",
"557 642 OFFCURVE",
"681 550 OFFCURVE",
"681 375 CURVE SMOOTH",
"681 286 OFFCURVE",
"651 212 OFFCURVE",
"586 152 CURVE"
);
},
{
closed = 1;
nodes = (
"302 -8 OFFCURVE",
"337 52 OFFCURVE",
"337 159 CURVE SMOOTH",
"337 266 OFFCURVE",
"302 326 OFFCURVE",
"231 326 CURVE SMOOTH",
"162 326 OFFCURVE",
"120 267 OFFCURVE",
"120 159 CURVE SMOOTH",
"120 52 OFFCURVE",
"161 -8 OFFCURVE",
"231 -8 CURVE SMOOTH"
);
},
{
closed = 1;
nodes = (
"179 16 OFFCURVE",
"146 66 OFFCURVE",
"146 160 CURVE SMOOTH",
"146 252 OFFCURVE",
"178 302 OFFCURVE",
"231 302 CURVE SMOOTH",
"286 302 OFFCURVE",
"314 251 OFFCURVE",
"314 160 CURVE SMOOTH",
"314 66 OFFCURVE",
"284 16 OFFCURVE",
"231 16 CURVE SMOOTH"
);
},
{
closed = 1;
nodes = (
"496 -8 OFFCURVE",
"534 52 OFFCURVE",
"534 159 CURVE SMOOTH",
"534 266 OFFCURVE",
"496 326 OFFCURVE",
"426 326 CURVE SMOOTH",
"356 326 OFFCURVE",
"317 267 OFFCURVE",
"317 159 CURVE SMOOTH",
"317 52 OFFCURVE",
"356 -8 OFFCURVE",
"426 -8 CURVE SMOOTH"
);
},
{
closed = 1;
nodes = (
"373 16 OFFCURVE",
"340 66 OFFCURVE",
"340 160 CURVE SMOOTH",
"340 252 OFFCURVE",
"372 302 OFFCURVE",
"426 302 CURVE SMOOTH",
"480 302 OFFCURVE",
"508 251 OFFCURVE",
"508 160 CURVE SMOOTH",
"508 66 OFFCURVE",
"478 16 OFFCURVE",
"426 16 CURVE SMOOTH"
);
},
{
closed = 1;
nodes = (
"137 217 LINE",
"90 244 OFFCURVE",
"64 294 OFFCURVE",
"64 345 CURVE SMOOTH",
"64 434 OFFCURVE",
"143 489 OFFCURVE",
"230 489 CURVE SMOOTH",
"289 489 OFFCURVE",
"353 464 OFFCURVE",
"398 406 CURVE",
"367 403 LINE",
"443 483 LINE",
"416 425 LINE",
"370 485 OFFCURVE",
"300 513 OFFCURVE",
"232 513 CURVE SMOOTH",
"132 513 OFFCURVE",
"38 452 OFFCURVE",
"38 346 CURVE SMOOTH",
"38 285 OFFCURVE",
"69 226 OFFCURVE",
"129 193 CURVE"
);
}
);
width = 751;
},
{
anchors = (
{
name = topright;
position = "{705, 658}";
}
);
guideLines = (
{
position = "{1043, 342}";
}
);
layerId = "639D56B4-59BE-4993-85FD-8F80ECD3B0F6";
paths = (
{
closed = 1;
nodes = (
"784 -88 LINE",
"688 -37 LINE",
"893 108 LINE",
"948 -8 LINE",
"755 230 LINE",
"727 100 LINE",
"815 179 OFFCURVE",
"855 269 OFFCURVE",
"855 360 CURVE SMOOTH",
"855 541 OFFCURVE",
"695 666 OFFCURVE",
"469 666 CURVE SMOOTH",
"282 666 OFFCURVE",
"118 579 OFFCURVE",
"118 355 CURVE",
"309 467 LINE",
"335 497 OFFCURVE",
"377 516 OFFCURVE",
"445 516 CURVE SMOOTH",
"597 516 OFFCURVE",
"680 420 OFFCURVE",
"680 316 CURVE SMOOTH",
"680 261 OFFCURVE",
"657 205 OFFCURVE",
"610 157 CURVE"
);
},
{
closed = 1;
nodes = (
"324 -8 OFFCURVE",
"373 67 OFFCURVE",
"373 168 CURVE SMOOTH",
"373 270 OFFCURVE",
"323 341 OFFCURVE",
"236 341 CURVE SMOOTH",
"150 341 OFFCURVE",
"90 271 OFFCURVE",
"90 165 CURVE SMOOTH",
"90 57 OFFCURVE",
"152 -8 OFFCURVE",
"235 -8 CURVE SMOOTH"
);
},
{
closed = 1;
nodes = (
"220 115 OFFCURVE",
"210 134 OFFCURVE",
"210 167 CURVE SMOOTH",
"210 200 OFFCURVE",
"220 218 OFFCURVE",
"243 218 CURVE SMOOTH",
"266 218 OFFCURVE",
"276 202 OFFCURVE",
"276 167 CURVE SMOOTH",
"276 133 OFFCURVE",
"266 115 OFFCURVE",
"243 115 CURVE SMOOTH"
);
},
{
closed = 1;
nodes = (
"530 -8 OFFCURVE",
"590 60 OFFCURVE",
"590 168 CURVE SMOOTH",
"590 275 OFFCURVE",
"531 341 OFFCURVE",
"448 341 CURVE SMOOTH",
"361 341 OFFCURVE",
"303 270 OFFCURVE",
"303 168 CURVE SMOOTH",
"303 67 OFFCURVE",
"360 -8 OFFCURVE",
"447 -8 CURVE SMOOTH"
);
},
{
closed = 1;
nodes = (
"414 115 OFFCURVE",
"404 133 OFFCURVE",
"404 167 CURVE SMOOTH",
"404 202 OFFCURVE",
"414 218 OFFCURVE",
"437 218 CURVE SMOOTH",
"459 218 OFFCURVE",
"470 200 OFFCURVE",
"470 167 CURVE SMOOTH",
"470 134 OFFCURVE",
"460 115 OFFCURVE",
"437 115 CURVE SMOOTH"
);
},
{
closed = 1;
nodes = (
"224 242 LINE",
"196 262 OFFCURVE",
"182 286 OFFCURVE",
"182 308 CURVE SMOOTH",
"182 345 OFFCURVE",
"224 373 OFFCURVE",
"278 373 CURVE SMOOTH",
"340 373 OFFCURVE",
"397 342 OFFCURVE",
"397 301 CURVE",
"365 323 LINE",
"509 508 LINE",
"492 413 LINE",
"449 482 OFFCURVE",
"347 517 OFFCURVE",
"258 517 CURVE SMOOTH",
"125 517 OFFCURVE",
"22 439 OFFCURVE",
"22 329 CURVE SMOOTH",
"22 257 OFFCURVE",
"67 191 OFFCURVE",
"170 150 CURVE"
);
}
);
width = 876;
},
{
anchors = (
{
name = topright;
position = "{502, 658}";
}
);
layerId = "EAF3E1E9-0001-42EF-B2A4-765526B8C83B";
paths = (
{
closed = 1;
nodes = (
"560 -42 LINE",
"515 -24 LINE",
"583 18 LINE",
"581 -31 LINE",
"475 156 LINE",
"472 140 LINE",
"518 207 OFFCURVE",
"547 288 OFFCURVE",
"547 387 CURVE SMOOTH",
"547 571 OFFCURVE",
"447 666 OFFCURVE",
"340 666 CURVE SMOOTH",
"252 666 OFFCURVE",
"177 603 OFFCURVE",
"149 489 CURVE",
"179 497 LINE",
"205 589 OFFCURVE",
"266 641 OFFCURVE",
"340 641 CURVE SMOOTH",
"439 641 OFFCURVE",
"521 546 OFFCURVE",
"521 385 CURVE SMOOTH",
"521 291 OFFCURVE",
"493 213 OFFCURVE",
"449 151 CURVE"
);
},
{
closed = 1;
nodes = (
"237 -8 OFFCURVE",
"265 53 OFFCURVE",
"265 159 CURVE SMOOTH",
"265 265 OFFCURVE",
"237 326 OFFCURVE",
"180 326 CURVE SMOOTH",
"126 326 OFFCURVE",
"93 267 OFFCURVE",
"93 159 CURVE SMOOTH",
"93 52 OFFCURVE",
"125 -8 OFFCURVE",
"180 -8 CURVE SMOOTH"
);
},
{
closed = 1;
nodes = (
"142 17 OFFCURVE",
"119 67 OFFCURVE",
"119 160 CURVE SMOOTH",
"119 249 OFFCURVE",
"140 301 OFFCURVE",
"181 301 CURVE SMOOTH",
"222 301 OFFCURVE",
"243 250 OFFCURVE",
"243 160 CURVE SMOOTH",
"243 67 OFFCURVE",
"220 17 OFFCURVE",
"181 17 CURVE SMOOTH"
);
},
{
closed = 1;
nodes = (
"387 -8 OFFCURVE",
"419 51 OFFCURVE",
"419 159 CURVE SMOOTH",
"419 266 OFFCURVE",
"388 326 OFFCURVE",
"331 326 CURVE SMOOTH",
"278 326 OFFCURVE",
"247 267 OFFCURVE",
"247 159 CURVE SMOOTH",
"247 52 OFFCURVE",
"277 -8 OFFCURVE",
"332 -8 CURVE SMOOTH"
);
},
{
closed = 1;
nodes = (
"292 17 OFFCURVE",
"269 68 OFFCURVE",
"269 160 CURVE SMOOTH",
"269 251 OFFCURVE",
"292 301 OFFCURVE",
"331 301 CURVE SMOOTH",
"372 301 OFFCURVE",
"393 250 OFFCURVE",
"393 160 CURVE SMOOTH",
"393 68 OFFCURVE",
"371 17 OFFCURVE",
"331 17 CURVE SMOOTH"
);
},
{
closed = 1;
nodes = (
"103 222 LINE",
"70 249 OFFCURVE",
"54 291 OFFCURVE",
"54 334 CURVE SMOOTH",
"54 428 OFFCURVE",
"118 488 OFFCURVE",
"185 488 CURVE SMOOTH",
"228 488 OFFCURVE",
"272 464 OFFCURVE",
"302 408 CURVE",
"276 408 LINE",
"343 464 LINE",
"319 426 LINE",
"286 486 OFFCURVE",
"235 513 OFFCURVE",
"185 513 CURVE SMOOTH",
"105 513 OFFCURVE",
"28 445 OFFCURVE",
"28 336 CURVE SMOOTH",
"28 282 OFFCURVE",
"49 229 OFFCURVE",
"95 194 CURVE"
);
}
);
width = 581;
},
{
anchors = (
{
name = topright;
position = "{558, 658}";
}
);
guideLines = (
{
position = "{391, 221}";
}
);
layerId = "A6029D4D-1571-45DB-86AE-EDC9D2308E6F";
paths = (
{
closed = 1;
nodes = (
"636 -83 LINE",
"552 -33 LINE",
"756 98 LINE",
"784 -3 LINE",
"620 241 LINE",
"599 100 LINE",
"659 175 OFFCURVE",
"688 270 OFFCURVE",
"688 360 CURVE SMOOTH",
"688 562 OFFCURVE",
"543 666 OFFCURVE",
"386 666 CURVE SMOOTH",
"215 666 OFFCURVE",
"110 542 OFFCURVE",
"102 417 CURVE",
"238 417 LINE",
"253 480 OFFCURVE",
"305 520 OFFCURVE",
"376 520 CURVE SMOOTH",
"465 520 OFFCURVE",
"536 458 OFFCURVE",
"536 331 CURVE SMOOTH",
"536 270 OFFCURVE",
"520 205 OFFCURVE",
"491 157 CURVE"
);
},
{
closed = 1;
nodes = (
"270 -8 OFFCURVE",
"307 62 OFFCURVE",
"307 168 CURVE SMOOTH",
"307 275 OFFCURVE",
"269 341 OFFCURVE",
"204 341 CURVE SMOOTH",
"136 341 OFFCURVE",
"86 274 OFFCURVE",
"86 166 CURVE SMOOTH",
"86 58 OFFCURVE",
"136 -8 OFFCURVE",
"202 -8 CURVE SMOOTH"
);
},
{
closed = 1;
nodes = (
"193 109 OFFCURVE",
"186 129 OFFCURVE",
"186 167 CURVE SMOOTH",
"186 205 OFFCURVE",
"193 224 OFFCURVE",
"208 224 CURVE SMOOTH",
"223 224 OFFCURVE",
"230 208 OFFCURVE",
"230 167 CURVE SMOOTH",
"230 128 OFFCURVE",
"223 109 OFFCURVE",
"208 109 CURVE SMOOTH"
);
},
{
closed = 1;
nodes = (
"423 -8 OFFCURVE",
"471 59 OFFCURVE",
"471 168 CURVE SMOOTH",
"471 274 OFFCURVE",
"425 341 OFFCURVE",
"356 341 CURVE SMOOTH",
"291 341 OFFCURVE",
"248 275 OFFCURVE",
"248 167 CURVE SMOOTH",
"248 62 OFFCURVE",
"291 -8 OFFCURVE",
"358 -8 CURVE SMOOTH"
);
},
{
closed = 1;
nodes = (
"334 109 OFFCURVE",
"327 128 OFFCURVE",
"327 167 CURVE SMOOTH",
"327 208 OFFCURVE",
"334 224 OFFCURVE",
"349 224 CURVE SMOOTH",
"364 224 OFFCURVE",
"371 205 OFFCURVE",
"371 167 CURVE SMOOTH",
"371 129 OFFCURVE",
"364 109 OFFCURVE",
"349 109 CURVE SMOOTH"
);
},
{
closed = 1;
nodes = (
"176 242 LINE",
"152 262 OFFCURVE",
"138 287 OFFCURVE",
"138 311 CURVE SMOOTH",
"138 351 OFFCURVE",
"179 373 OFFCURVE",
"223 373 CURVE SMOOTH",
"266 373 OFFCURVE",
"312 352 OFFCURVE",
"324 307 CURVE",
"293 336 LINE",
"390 458 LINE",
"391 405 LINE",
"353 472 OFFCURVE",
"281 504 OFFCURVE",
"210 504 CURVE SMOOTH",
"112 504 OFFCURVE",
"16 442 OFFCURVE",
"16 326 CURVE SMOOTH",
"16 258 OFFCURVE",
"49 191 OFFCURVE",
"141 150 CURVE"
);
}
);
width = 726;
},
{
anchors = (
{
name = topright;
position = "{705, 658}";
}
);
associatedMasterId = "639D56B4-59BE-4993-85FD-8F80ECD3B0F6";
background = {
paths = (
{
closed = 1;
nodes = (
"785 -88 LINE",
"689 -37 LINE",
"894 108 LINE",
"949 -8 LINE",
"756 230 LINE",
"728 100 LINE",
"808 179 OFFCURVE",
"845 269 OFFCURVE",
"845 358 CURVE SMOOTH",
"845 542 OFFCURVE",
"688 666 OFFCURVE",
"468 666 CURVE SMOOTH",
"282 666 OFFCURVE",
"118 579 OFFCURVE",
"118 355 CURVE",
"309 467 LINE",
"335 497 OFFCURVE",
"376 516 OFFCURVE",
"448 516 CURVE SMOOTH",
"592 516 OFFCURVE",
"670 420 OFFCURVE",
"670 313 CURVE SMOOTH",
"670 261 OFFCURVE",
"650 205 OFFCURVE",
"611 157 CURVE"
);
},
{
closed = 1;
nodes = (
"323 -8 OFFCURVE",
"373 62 OFFCURVE",
"373 162 CURVE SMOOTH",
"373 265 OFFCURVE",
"323 331 OFFCURVE",
"238 331 CURVE SMOOTH",
"152 331 OFFCURVE",
"90 265 OFFCURVE",
"90 158 CURVE SMOOTH",
"90 58 OFFCURVE",
"152 -8 OFFCURVE",
"238 -8 CURVE SMOOTH"
);
},
{
closed = 1;
nodes = (
"223 116 OFFCURVE",
"214 133 OFFCURVE",
"214 162 CURVE SMOOTH",
"214 191 OFFCURVE",
"223 207 OFFCURVE",
"243 207 CURVE SMOOTH",
"263 207 OFFCURVE",
"272 193 OFFCURVE",
"272 162 CURVE SMOOTH",
"272 132 OFFCURVE",
"263 116 OFFCURVE",
"243 116 CURVE SMOOTH"
);
},
{
closed = 1;
nodes = (
"530 -8 OFFCURVE",
"590 60 OFFCURVE",
"590 161 CURVE SMOOTH",
"590 265 OFFCURVE",
"532 331 OFFCURVE",
"445 331 CURVE SMOOTH",
"361 331 OFFCURVE",
"303 265 OFFCURVE",
"303 162 CURVE SMOOTH",
"303 62 OFFCURVE",
"361 -8 OFFCURVE",
"446 -8 CURVE SMOOTH"
);
},
{
closed = 1;
nodes = (
"417 116 OFFCURVE",
"408 132 OFFCURVE",
"408 162 CURVE SMOOTH",
"408 193 OFFCURVE",
"417 207 OFFCURVE",
"437 207 CURVE SMOOTH",
"457 207 OFFCURVE",
"466 191 OFFCURVE",
"466 162 CURVE SMOOTH",
"466 133 OFFCURVE",
"457 116 OFFCURVE",
"437 116 CURVE SMOOTH"
);
},
{
closed = 1;
nodes = (
"224 242 LINE",
"196 262 OFFCURVE",
"182 286 OFFCURVE",
"182 308 CURVE SMOOTH",
"182 345 OFFCURVE",
"224 367 OFFCURVE",
"278 367 CURVE SMOOTH",
"330 367 OFFCURVE",
"386 347 OFFCURVE",
"386 306 CURVE",
"365 323 LINE",
"509 508 LINE",
"492 413 LINE",
"449 482 OFFCURVE",
"347 517 OFFCURVE",
"258 517 CURVE SMOOTH",
"125 517 OFFCURVE",
"22 439 OFFCURVE",
"22 329 CURVE SMOOTH",
"22 257 OFFCURVE",
"67 191 OFFCURVE",
"170 150 CURVE"
);
}
);
};
layerId = "C5476748-7055-40E9-AC34-F73A97E7ABB6";
name = "Black ]141]";
paths = (
{
closed = 1;
nodes = (
"784 -88 LINE",
"688 -37 LINE",
"893 108 LINE",
"948 -8 LINE",
"755 230 LINE",
"727 100 LINE",
"815 179 OFFCURVE",
"855 269 OFFCURVE",
"855 360 CURVE SMOOTH",
"855 541 OFFCURVE",
"695 666 OFFCURVE",
"469 666 CURVE SMOOTH",
"282 666 OFFCURVE",
"118 579 OFFCURVE",
"118 355 CURVE",
"309 467 LINE",
"335 497 OFFCURVE",
"377 516 OFFCURVE",
"445 516 CURVE SMOOTH",
"597 516 OFFCURVE",
"680 420 OFFCURVE",
"680 316 CURVE SMOOTH",
"680 261 OFFCURVE",
"657 205 OFFCURVE",
"610 157 CURVE"
);
},
{
closed = 1;
nodes = (
"323 -8 OFFCURVE",
"373 67 OFFCURVE",
"373 167 CURVE SMOOTH",
"373 270 OFFCURVE",
"323 341 OFFCURVE",
"238 341 CURVE SMOOTH",
"152 341 OFFCURVE",
"90 275 OFFCURVE",
"90 163 CURVE SMOOTH",
"90 58 OFFCURVE",
"152 -8 OFFCURVE",
"238 -8 CURVE SMOOTH"
);
},
{
closed = 1;
nodes = (
"223 121 OFFCURVE",
"214 138 OFFCURVE",
"214 167 CURVE SMOOTH",
"214 196 OFFCURVE",
"223 212 OFFCURVE",
"243 212 CURVE SMOOTH",
"263 212 OFFCURVE",
"272 198 OFFCURVE",
"272 167 CURVE SMOOTH",
"272 137 OFFCURVE",
"263 121 OFFCURVE",
"243 121 CURVE SMOOTH"
);
},
{
closed = 1;
nodes = (
"530 -8 OFFCURVE",
"590 60 OFFCURVE",
"590 166 CURVE SMOOTH",
"590 275 OFFCURVE",
"532 341 OFFCURVE",
"445 341 CURVE SMOOTH",
"361 341 OFFCURVE",
"303 270 OFFCURVE",
"303 167 CURVE SMOOTH",
"303 67 OFFCURVE",
"361 -8 OFFCURVE",
"446 -8 CURVE SMOOTH"
);
},
{
closed = 1;
nodes = (
"417 121 OFFCURVE",
"408 137 OFFCURVE",
"408 167 CURVE SMOOTH",
"408 198 OFFCURVE",
"417 212 OFFCURVE",
"437 212 CURVE SMOOTH",
"457 212 OFFCURVE",
"466 196 OFFCURVE",
"466 167 CURVE SMOOTH",
"466 138 OFFCURVE",
"457 121 OFFCURVE",
"437 121 CURVE SMOOTH"
);
},
{
closed = 1;
nodes = (
"224 242 LINE",
"196 262 OFFCURVE",
"182 286 OFFCURVE",
"182 308 CURVE SMOOTH",
"182 345 OFFCURVE",
"224 367 OFFCURVE",
"278 367 CURVE SMOOTH",
"330 367 OFFCURVE",
"386 347 OFFCURVE",
"386 306 CURVE",
"365 323 LINE",
"509 508 LINE",
"492 413 LINE",
"449 482 OFFCURVE",
"347 517 OFFCURVE",
"258 517 CURVE SMOOTH",
"125 517 OFFCURVE",
"22 439 OFFCURVE",
"22 329 CURVE SMOOTH",
"22 257 OFFCURVE",
"67 191 OFFCURVE",
"170 150 CURVE"
);
}
);
width = 876;
},
{
anchors = (
{
name = topright;
position = "{558, 658}";
}
);
associatedMasterId = "A6029D4D-1571-45DB-86AE-EDC9D2308E6F";
background = {
paths = (
{
closed = 1;
nodes = (
"625 -92 LINE",
"545 -36 LINE",
"744 69 LINE",
"768 -3 LINE",
"612 230 LINE",
"599 100 LINE",
"659 175 OFFCURVE",
"688 270 OFFCURVE",
"688 360 CURVE SMOOTH",
"688 562 OFFCURVE",
"543 666 OFFCURVE",
"386 666 CURVE SMOOTH",
"215 666 OFFCURVE",
"110 542 OFFCURVE",
"102 417 CURVE",
"238 417 LINE",
"253 480 OFFCURVE",
"305 520 OFFCURVE",
"376 520 CURVE SMOOTH",
"465 520 OFFCURVE",
"536 458 OFFCURVE",
"536 331 CURVE SMOOTH",
"536 270 OFFCURVE",
"520 205 OFFCURVE",
"491 157 CURVE"
);
},
{
closed = 1;
nodes = (
"270 -8 OFFCURVE",
"307 62 OFFCURVE",
"307 168 CURVE SMOOTH",
"307 275 OFFCURVE",
"269 341 OFFCURVE",
"204 341 CURVE SMOOTH",
"136 341 OFFCURVE",
"86 274 OFFCURVE",
"86 166 CURVE SMOOTH",
"86 58 OFFCURVE",
"136 -8 OFFCURVE",
"202 -8 CURVE SMOOTH"
);
},
{
closed = 1;
nodes = (
"193 109 OFFCURVE",
"186 129 OFFCURVE",
"186 167 CURVE SMOOTH",
"186 205 OFFCURVE",
"193 224 OFFCURVE",
"208 224 CURVE SMOOTH",
"223 224 OFFCURVE",
"230 208 OFFCURVE",
"230 167 CURVE SMOOTH",
"230 128 OFFCURVE",
"223 109 OFFCURVE",
"208 109 CURVE SMOOTH"
);
},
{
closed = 1;
nodes = (
"423 -8 OFFCURVE",
"471 59 OFFCURVE",
"471 168 CURVE SMOOTH",
"471 274 OFFCURVE",
"425 341 OFFCURVE",
"356 341 CURVE SMOOTH",
"291 341 OFFCURVE",
"248 275 OFFCURVE",
"248 167 CURVE SMOOTH",
"248 62 OFFCURVE",
"291 -8 OFFCURVE",
"358 -8 CURVE SMOOTH"
);
},
{
closed = 1;
nodes = (
"334 109 OFFCURVE",
"327 128 OFFCURVE",
"327 167 CURVE SMOOTH",
"327 208 OFFCURVE",
"334 224 OFFCURVE",
"349 224 CURVE SMOOTH",
"364 224 OFFCURVE",
"371 205 OFFCURVE",
"371 167 CURVE SMOOTH",
"371 129 OFFCURVE",
"364 109 OFFCURVE",
"349 109 CURVE SMOOTH"
);
},
{
closed = 1;
nodes = (
"176 242 LINE",
"152 262 OFFCURVE",
"138 287 OFFCURVE",
"138 311 CURVE SMOOTH",
"138 351 OFFCURVE",
"179 373 OFFCURVE",
"223 373 CURVE SMOOTH",
"266 373 OFFCURVE",
"312 352 OFFCURVE",
"324 307 CURVE",
"287 336 LINE",
"384 458 LINE",
"391 405 LINE",
"353 472 OFFCURVE",
"281 504 OFFCURVE",
"210 504 CURVE SMOOTH",
"112 504 OFFCURVE",
"16 442 OFFCURVE",
"16 326 CURVE SMOOTH",
"16 258 OFFCURVE",
"49 191 OFFCURVE",
"141 150 CURVE"
);
}
);
};
layerId = "A5C5A025-1F13-4A90-B188-604E0E32CEA3";
name = "ExtraCondensed Black ]141]";
paths = (
{
closed = 1;
nodes = (
"636 -83 LINE",
"552 -33 LINE",
"756 98 LINE",
"784 -3 LINE",
"620 241 LINE",
"599 100 LINE",
"659 175 OFFCURVE",
"688 270 OFFCURVE",
"688 360 CURVE SMOOTH",
"688 562 OFFCURVE",
"543 666 OFFCURVE",
"386 666 CURVE SMOOTH",
"215 666 OFFCURVE",
"110 542 OFFCURVE",
"102 417 CURVE",
"238 417 LINE",
"253 480 OFFCURVE",
"305 520 OFFCURVE",
"376 520 CURVE SMOOTH",
"465 520 OFFCURVE",
"536 458 OFFCURVE",
"536 331 CURVE SMOOTH",
"536 270 OFFCURVE",
"520 205 OFFCURVE",
"491 157 CURVE"
);
},
{
closed = 1;
nodes = (
"267 -8 OFFCURVE",
"304 63 OFFCURVE",
"304 174 CURVE SMOOTH",
"304 285 OFFCURVE",
"267 351 OFFCURVE",
"198 351 CURVE SMOOTH",
"129 351 OFFCURVE",
"76 284 OFFCURVE",
"76 170 CURVE SMOOTH",
"76 55 OFFCURVE",
"130 -8 OFFCURVE",
"196 -8 CURVE SMOOTH"
);
},
{
closed = 1;
nodes = (
"192 117 OFFCURVE",
"187 132 OFFCURVE",
"187 172 CURVE SMOOTH",
"187 211 OFFCURVE",
"192 226 OFFCURVE",
"205 226 CURVE SMOOTH",
"218 226 OFFCURVE",
"223 211 OFFCURVE",
"223 172 CURVE SMOOTH",
"223 132 OFFCURVE",
"218 117 OFFCURVE",
"205 117 CURVE SMOOTH"
);
},
{
closed = 1;
nodes = (
"429 -8 OFFCURVE",
"481 58 OFFCURVE",
"481 172 CURVE SMOOTH",
"481 284 OFFCURVE",
"431 351 OFFCURVE",
"362 351 CURVE SMOOTH",
"291 351 OFFCURVE",
"251 282 OFFCURVE",
"251 174 CURVE SMOOTH",
"251 62 OFFCURVE",
"294 -8 OFFCURVE",
"362 -8 CURVE SMOOTH"
);
},
{
closed = 1;
nodes = (
"339 117 OFFCURVE",
"334 132 OFFCURVE",
"334 172 CURVE SMOOTH",
"334 211 OFFCURVE",
"339 226 OFFCURVE",
"352 226 CURVE SMOOTH",
"365 226 OFFCURVE",
"370 211 OFFCURVE",
"370 172 CURVE SMOOTH",
"370 132 OFFCURVE",
"365 117 OFFCURVE",
"352 117 CURVE SMOOTH"
);
},
{
closed = 1;
nodes = (
"176 242 LINE",
"152 262 OFFCURVE",
"138 287 OFFCURVE",
"138 309 CURVE SMOOTH",
"138 348 OFFCURVE",
"174 368 OFFCURVE",
"215 368 CURVE SMOOTH",
"258 368 OFFCURVE",
"307 345 OFFCURVE",
"319 299 CURVE",
"287 336 LINE",
"389 458 LINE",
"391 407 LINE",
"352 474 OFFCURVE",
"281 505 OFFCURVE",
"212 505 CURVE SMOOTH",
"113 505 OFFCURVE",
"16 441 OFFCURVE",
"16 326 CURVE SMOOTH",
"16 258 OFFCURVE",
"49 191 OFFCURVE",
"141 150 CURVE"
);
}
);
width = 726;
}
);
note = iiorya;
rightMetricsKey = "i-oriya";
unicode = 0B08;
},
{
glyphname = "u-oriya";
lastChange = "2019-10-25 11:35:51 +0000";
layers = (
{
anchors = (
{
name = topright;
position = "{632, 658}";
}
);
guideLines = (
{
position = "{364, 373}";
}
);
layerId = "926CF2F4-31F1-4036-BA3C-0F7EE51EF36A";
paths = (
{
closed = 1;
nodes = (
"540 642 OFFCURVE",
"671 521 OFFCURVE",
"671 374 CURVE SMOOTH",
"671 298 OFFCURVE",
"636 219 OFFCURVE",
"559 152 CURVE",
"705 -43 LINE",
"648 -34 LINE",
"735 38 LINE",
"732 -32 LINE",
"585 158 LINE",
"579 138 LINE",
"658 207 OFFCURVE",
"697 293 OFFCURVE",
"697 375 CURVE SMOOTH",
"697 527 OFFCURVE",
"564 666 OFFCURVE",
"360 666 CURVE SMOOTH",
"198 666 OFFCURVE",
"38 578.992 OFFCURVE",
"38 412 CURVE SMOOTH",
"38 327 OFFCURVE",
"79 256 OFFCURVE",
"153 204 CURVE",
"163 228 LINE",
"99 272 OFFCURVE",
"64 333 OFFCURVE",
"64 408 CURVE SMOOTH",
"64 562 OFFCURVE",
"211 642 OFFCURVE",
"359 642 CURVE SMOOTH"
);
},
{
closed = 1;
nodes = (
"420 -8 OFFCURVE",
"507 42 OFFCURVE",
"507 141 CURVE SMOOTH",
"507 198 OFFCURVE",
"475 256 OFFCURVE",
"408 290 CURVE",
"389 274 LINE",
"449 244 OFFCURVE",
"481 196 OFFCURVE",
"481 142 CURVE SMOOTH",
"481 58 OFFCURVE",
"406 16 OFFCURVE",
"330 16 CURVE SMOOTH",
"251 16 OFFCURVE",
"170 62 OFFCURVE",
"170 157 CURVE SMOOTH",
"170 213 OFFCURVE",
"199 287 OFFCURVE",
"281 357 CURVE",
"265 373 LINE",
"180 302 OFFCURVE",
"144 227 OFFCURVE",
"144 157 CURVE SMOOTH",
"144 46 OFFCURVE",
"238 -8 OFFCURVE",
"331 -8 CURVE SMOOTH"
);
},
{
closed = 1;
nodes = (
"479 345 LINE",
"462 360 LINE",
"325 207 LINE",
"342 192 LINE"
);
}
);
width = 724;
},
{
anchors = (
{
name = topright;
position = "{695, 658}";
}
);
guideLines = (
{
position = "{199, 431}";
}
);
layerId = "639D56B4-59BE-4993-85FD-8F80ECD3B0F6";
paths = (
{
closed = 1;
nodes = (
"532 506 OFFCURVE",
"671 441 OFFCURVE",
"671 300 CURVE SMOOTH",
"671 253 OFFCURVE",
"655 201 OFFCURVE",
"611 157 CURVE",
"785 -88 LINE",
"689 -37 LINE",
"894 108 LINE",
"949 -8 LINE",
"756 230 LINE",
"726 100 LINE",
"806 172 OFFCURVE",
"845 265 OFFCURVE",
"845 338 CURVE SMOOTH",
"845 559 OFFCURVE",
"625 665 OFFCURVE",
"413 665 CURVE SMOOTH",
"214 665 OFFCURVE",
"22 572 OFFCURVE",
"22 391 CURVE SMOOTH",
"22 317 OFFCURVE",
"56 240 OFFCURVE",
"173 170 CURVE",
"233 282 LINE",
"202 309 OFFCURVE",
"187 344 OFFCURVE",
"187 367 CURVE SMOOTH",
"187 458 OFFCURVE",
"291 506 OFFCURVE",
"402 506 CURVE SMOOTH"
);
},
{
closed = 1;
nodes = (
"473 -9 OFFCURVE",
"591 56 OFFCURVE",
"591 186 CURVE SMOOTH",
"591 249 OFFCURVE",
"565 302 OFFCURVE",
"478 348 CURVE",
"370 260 LINE",
"430 228 OFFCURVE",
"447 207 OFFCURVE",
"447 182 CURVE SMOOTH",
"447 148 OFFCURVE",
"412 130 OFFCURVE",
"374 130 CURVE SMOOTH",
"326 130 OFFCURVE",
"273 158 OFFCURVE",
"273 221 CURVE SMOOTH",
"273 261 OFFCURVE",
"301 309 OFFCURVE",
"375 355 CURVE",
"314 442 LINE",
"169 372 OFFCURVE",
"109 272 OFFCURVE",
"109 198 CURVE SMOOTH",
"109 59 OFFCURVE",
"232 -9 OFFCURVE",
"354 -9 CURVE SMOOTH"
);
},
{
closed = 1;
nodes = (
"565 344 LINE",
"482 431 LINE",
"304 261 LINE",
"387 174 LINE"
);
}
);
width = 877;
},
{
anchors = (
{
name = topright;
position = "{464, 658}";
}
);
guideLines = (
{
angle = 90;
position = "{46, 371}";
},
{
position = "{307, 217}";
}
);
layerId = "EAF3E1E9-0001-42EF-B2A4-765526B8C83B";
paths = (
{
closed = 1;
nodes = (
"373 641 OFFCURVE",
"483 555 OFFCURVE",
"483 375 CURVE SMOOTH",
"483 277 OFFCURVE",
"452 209 OFFCURVE",
"411 151 CURVE",
"524 -46 LINE",
"474 -26 LINE",
"553 24 LINE",
"544 -32 LINE",
"437 156 LINE",
"425 128 LINE",
"472 194 OFFCURVE",
"509 267 OFFCURVE",
"509 376 CURVE SMOOTH",
"509 572 OFFCURVE",
"385 666 OFFCURVE",
"263 666 CURVE SMOOTH",
"144 666 OFFCURVE",
"28 578 OFFCURVE",
"28 409 CURVE SMOOTH",
"28 323 OFFCURVE",
"61 251 OFFCURVE",
"116 204 CURVE",
"121 236 LINE",
"80 276 OFFCURVE",
"54 336 OFFCURVE",
"54 409 CURVE SMOOTH",
"54 561 OFFCURVE",
"158 641 OFFCURVE",
"264 641 CURVE SMOOTH"
);
},
{
closed = 1;
nodes = (
"334 -8 OFFCURVE",
"381 59 OFFCURVE",
"381 137 CURVE SMOOTH",
"381 190 OFFCURVE",
"359 247 OFFCURVE",
"313 290 CURVE",
"298 271 LINE",
"336 236 OFFCURVE",
"355 186 OFFCURVE",
"355 139 CURVE SMOOTH",
"355 74 OFFCURVE",
"318 17 OFFCURVE",
"246 17 CURVE SMOOTH",
"172 17 OFFCURVE",
"129 77 OFFCURVE",
"129 164 CURVE SMOOTH",
"129 241 OFFCURVE",
"163 295 OFFCURVE",
"222 357 CURVE",
"204 373 LINE",
"139 306 OFFCURVE",
"103 248 OFFCURVE",
"103 164 CURVE SMOOTH",
"103 61 OFFCURVE",
"156 -8 OFFCURVE",
"246 -8 CURVE SMOOTH"
);
},
{
closed = 1;
nodes = (
"368 345 LINE",
"350 360 LINE",
"236 213 LINE",
"254 198 LINE"
);
}
);
width = 543;
},
{
anchors = (
{
name = topright;
position = "{591, 658}";
}
);
guideLines = (
{
position = "{201, 431}";
}
);
layerId = "A6029D4D-1571-45DB-86AE-EDC9D2308E6F";
paths = (
{
closed = 1;
nodes = (
"498 520 OFFCURVE",
"569 427 OFFCURVE",
"569 316 CURVE SMOOTH",
"569 265 OFFCURVE",
"554 209 OFFCURVE",
"522 157 CURVE",
"667 -83 LINE",
"583 -33 LINE",
"787 98 LINE",
"815 -3 LINE",
"651 241 LINE",
"624 100 LINE",
"690 185 OFFCURVE",
"721 275 OFFCURVE",
"721 358 CURVE SMOOTH",
"721 527 OFFCURVE",
"591 666 OFFCURVE",
"359 666 CURVE SMOOTH",
"129 666 OFFCURVE",
"16 527 OFFCURVE",
"16 397 CURVE SMOOTH",
"16 315 OFFCURVE",
"61 233 OFFCURVE",
"150 184 CURVE",
"206 279 LINE",
"177 300 OFFCURVE",
"163 330 OFFCURVE",
"163 365 CURVE SMOOTH",
"163 436 OFFCURVE",
"221 520 OFFCURVE",
"356 520 CURVE SMOOTH"
);
},
{
closed = 1;
nodes = (
"421 -8 OFFCURVE",
"502 64 OFFCURVE",
"502 168 CURVE SMOOTH",
"502 236 OFFCURVE",
"468 304 OFFCURVE",
"390 343 CURVE",
"326 253 LINE",
"362 232 OFFCURVE",
"379 203 OFFCURVE",
"379 177 CURVE SMOOTH",
"379 144 OFFCURVE",
"352 117 OFFCURVE",
"303 117 CURVE SMOOTH",
"247 117 OFFCURVE",
"220 152 OFFCURVE",
"220 198 CURVE SMOOTH",
"220 248 OFFCURVE",
"249 303 OFFCURVE",
"304 355 CURVE",
"237 436 LINE",
"143 369 OFFCURVE",
"96 280 OFFCURVE",
"96 192 CURVE SMOOTH",
"96 75 OFFCURVE",
"179 -8 OFFCURVE",
"304 -8 CURVE SMOOTH"
);
},
{
closed = 1;
nodes = (
"466 354 LINE",
"389 422 LINE",
"243 245 LINE",
"320 177 LINE"
);
}
);
width = 757;
},
{
anchors = (
{
name = topright;
position = "{695, 658}";
}
);
annotations = (
{
position = "{589.696, 929.297}";
text = "Need a bracket layer for the normal width";
type = Text;
width = 151;
}
);
associatedMasterId = "639D56B4-59BE-4993-85FD-8F80ECD3B0F6";
background = {
paths = (
{
closed = 1;
nodes = (
"549 506 OFFCURVE",
"663 452 OFFCURVE",
"663 329 CURVE SMOOTH",
"663 276 OFFCURVE",
"642 209 OFFCURVE",
"603 157 CURVE",
"773 -83 LINE",
"684 -36 LINE",
"909 129 LINE",
"941 -3 LINE",
"748 230 LINE",
"702 90 LINE",
"769 156 OFFCURVE",
"827 256 OFFCURVE",
"827 361 CURVE SMOOTH",
"827 544 OFFCURVE",
"649 666 OFFCURVE",
"402 666 CURVE SMOOTH",
"179 666 OFFCURVE",
"22 553 OFFCURVE",
"22 397 CURVE SMOOTH",
"22 305 OFFCURVE",
"74 229 OFFCURVE",
"173 170 CURVE",
"233 282 LINE",
"204 302 OFFCURVE",
"186 344 OFFCURVE",
"186 379 CURVE SMOOTH",
"186 460 OFFCURVE",
"288 506 OFFCURVE",
"411 506 CURVE SMOOTH"
);
},
{
closed = 1;
nodes = (
"470 -8 OFFCURVE",
"583 56 OFFCURVE",
"583 186 CURVE SMOOTH",
"583 249 OFFCURVE",
"557 302 OFFCURVE",
"470 348 CURVE",
"362 260 LINE",
"417 231 OFFCURVE",
"429 209 OFFCURVE",
"429 186 CURVE SMOOTH",
"429 156 OFFCURVE",
"403 140 OFFCURVE",
"363 140 CURVE SMOOTH",
"309 140 OFFCURVE",
"283 179 OFFCURVE",
"283 219 CURVE SMOOTH",
"283 259 OFFCURVE",
"309 305 OFFCURVE",
"379 349 CURVE",
"314 442 LINE",
"166 369 OFFCURVE",
"109 276 OFFCURVE",
"109 190 CURVE SMOOTH",
"109 70 OFFCURVE",
"218 -8 OFFCURVE",
"350 -8 CURVE SMOOTH"
);
},
{
closed = 1;
nodes = (
"565 344 LINE",
"482 431 LINE",
"304 261 LINE",
"387 174 LINE"
);
}
);
};
guideLines = (
{
position = "{199, 431}";
}
);
layerId = "A3749560-4D03-4C95-95C5-91E37C670A39";
name = "Black ]141]";
paths = (
{
closed = 1;
nodes = (
"532 506 OFFCURVE",
"671 441 OFFCURVE",
"671 300 CURVE SMOOTH",
"671 253 OFFCURVE",
"655 201 OFFCURVE",
"611 157 CURVE",
"785 -88 LINE",
"689 -37 LINE",
"894 108 LINE",
"949 -8 LINE",
"756 230 LINE",
"726 100 LINE",
"806 172 OFFCURVE",
"845 265 OFFCURVE",
"845 338 CURVE SMOOTH",
"845 559 OFFCURVE",
"625 665 OFFCURVE",
"413 665 CURVE SMOOTH",
"214 665 OFFCURVE",
"22 572 OFFCURVE",
"22 391 CURVE SMOOTH",
"22 317 OFFCURVE",
"56 240 OFFCURVE",
"173 170 CURVE",
"233 282 LINE",
"202 309 OFFCURVE",
"187 344 OFFCURVE",
"187 367 CURVE SMOOTH",
"187 458 OFFCURVE",
"291 506 OFFCURVE",
"402 506 CURVE SMOOTH"
);
},
{
closed = 1;
nodes = (
"471 -9 OFFCURVE",
"591 56 OFFCURVE",
"591 186 CURVE SMOOTH",
"591 249 OFFCURVE",
"565 302 OFFCURVE",
"478 348 CURVE",
"370 260 LINE",
"425 231 OFFCURVE",
"437 209 OFFCURVE",
"437 186 CURVE SMOOTH",
"437 156 OFFCURVE",
"406 140 OFFCURVE",
"372 140 CURVE SMOOTH",
"330 140 OFFCURVE",
"283 164 OFFCURVE",
"283 219 CURVE SMOOTH",
"283 259 OFFCURVE",
"309 305 OFFCURVE",
"379 349 CURVE",
"314 442 LINE",
"166 369 OFFCURVE",
"109 276 OFFCURVE",
"109 190 CURVE SMOOTH",
"109 57 OFFCURVE",
"230 -9 OFFCURVE",
"351 -9 CURVE SMOOTH"
);
},
{
closed = 1;
nodes = (
"565 344 LINE",
"482 431 LINE",
"304 261 LINE",
"387 174 LINE"
);
}
);
width = 877;
},
{
anchors = (
{
name = topright;
position = "{591, 658}";
}
);
associatedMasterId = "A6029D4D-1571-45DB-86AE-EDC9D2308E6F";
background = {
anchors = (
{
name = bottom;
position = "{229, 0}";
},
{
name = nukta;
position = "{302, 10}";
},
{
name = top;
position = "{613, 658}";
},
{
name = topcenter;
position = "{340, 658}";
}
);
paths = (
{
closed = 1;
nodes = (
"489 520 OFFCURVE",
"559 427 OFFCURVE",
"559 317 CURVE SMOOTH",
"559 265 OFFCURVE",
"544 209 OFFCURVE",
"512 157 CURVE",
"641 -83 LINE",
"573 -33 LINE",
"777 77 LINE",
"789 -3 LINE",
"641 241 LINE",
"614 100 LINE",
"680 185 OFFCURVE",
"711 275 OFFCURVE",
"711 358 CURVE SMOOTH",
"711 527 OFFCURVE",
"581 666 OFFCURVE",
"354 666 CURVE SMOOTH",
"126 666 OFFCURVE",
"16 527 OFFCURVE",
"16 390 CURVE SMOOTH",
"16 306 OFFCURVE",
"58 223 OFFCURVE",
"140 174 CURVE",
"198 279 LINE",
"175 300 OFFCURVE",
"163 330 OFFCURVE",
"163 363 CURVE SMOOTH",
"163 436 OFFCURVE",
"219 520 OFFCURVE",
"350 520 CURVE SMOOTH"
);
},
{
closed = 1;
nodes = (
"419 -8 OFFCURVE",
"502 68 OFFCURVE",
"502 172 CURVE SMOOTH",
"502 240 OFFCURVE",
"467 302 OFFCURVE",
"380 343 CURVE",
"306 253 LINE",
"349 232 OFFCURVE",
"369 203 OFFCURVE",
"369 175 CURVE SMOOTH",
"369 140 OFFCURVE",
"335 122 OFFCURVE",
"298 122 CURVE SMOOTH",
"256 122 OFFCURVE",
"210 146 OFFCURVE",
"210 200 CURVE SMOOTH",
"210 246 OFFCURVE",
"241 299 OFFCURVE",
"295 346 CURVE",
"227 436 LINE",
"128 370 OFFCURVE",
"76 281 OFFCURVE",
"76 192 CURVE SMOOTH",
"76 76 OFFCURVE",
"163 -8 OFFCURVE",
"294 -8 CURVE SMOOTH"
);
},
{
closed = 1;
nodes = (
"456 354 LINE",
"375 424 LINE",
"229 247 LINE",
"310 177 LINE"
);
}
);
};
guideLines = (
{
position = "{210, 431}";
}
);
layerId = "1E31A9D6-7D63-4C7F-B9D9-3C3708928829";
name = "ExtraCondensed Black ]141]";
paths = (
{
closed = 1;
nodes = (
"498 520 OFFCURVE",
"569 427 OFFCURVE",
"569 316 CURVE SMOOTH",
"569 265 OFFCURVE",
"554 209 OFFCURVE",
"522 157 CURVE",
"667 -83 LINE",
"583 -33 LINE",
"787 98 LINE",
"815 -3 LINE",
"651 241 LINE",
"624 100 LINE",
"690 185 OFFCURVE",
"721 275 OFFCURVE",
"721 358 CURVE SMOOTH",
"721 527 OFFCURVE",
"591 666 OFFCURVE",
"359 666 CURVE SMOOTH",
"129 666 OFFCURVE",
"16 527 OFFCURVE",
"16 397 CURVE SMOOTH",
"16 315 OFFCURVE",
"61 233 OFFCURVE",
"150 184 CURVE",
"206 279 LINE",
"177 300 OFFCURVE",
"163 330 OFFCURVE",
"163 365 CURVE SMOOTH",
"163 436 OFFCURVE",
"221 520 OFFCURVE",
"356 520 CURVE SMOOTH"
);
},
{
closed = 1;
nodes = (
"429 -8 OFFCURVE",
"512 68 OFFCURVE",
"512 172 CURVE SMOOTH",
"512 240 OFFCURVE",
"477 302 OFFCURVE",
"390 343 CURVE",
"316 253 LINE",
"359 232 OFFCURVE",
"379 203 OFFCURVE",
"379 175 CURVE SMOOTH",
"379 140 OFFCURVE",
"345 122 OFFCURVE",
"308 122 CURVE SMOOTH",
"266 122 OFFCURVE",
"220 146 OFFCURVE",
"220 200 CURVE SMOOTH",
"220 246 OFFCURVE",
"251 299 OFFCURVE",
"305 346 CURVE",
"237 436 LINE",
"138 370 OFFCURVE",
"86 281 OFFCURVE",
"86 192 CURVE SMOOTH",
"86 76 OFFCURVE",
"173 -8 OFFCURVE",
"304 -8 CURVE SMOOTH"
);
},
{
closed = 1;
nodes = (
"466 354 LINE",
"385 424 LINE",
"239 247 LINE",
"320 177 LINE"
);
}
);
width = 757;
}
);
note = uorya;
rightMetricsKey = "i-oriya";
unicode = 0B09;
},
{
glyphname = "uu-oriya";
lastChange = "2019-10-25 11:35:51 +0000";
layers = (
{
anchors = (
{
name = topright;
position = "{600, 658}";
}
);
guideLines = (
{
position = "{616, -49}";
}
);
layerId = "926CF2F4-31F1-4036-BA3C-0F7EE51EF36A";
paths = (
{
closed = 1;
nodes = (
"163 228 LINE",
"99 272 OFFCURVE",
"64 333 OFFCURVE",
"64 405 CURVE SMOOTH",
"64 564 OFFCURVE",
"214 642 OFFCURVE",
"361 642 CURVE SMOOTH",
"503 642 OFFCURVE",
"639 570 OFFCURVE",
"639 434 CURVE SMOOTH",
"639 395 OFFCURVE",
"628 353 OFFCURVE",
"605 310 CURVE",
"634 315 LINE",
"655 354 OFFCURVE",
"665 394 OFFCURVE",
"665 432 CURVE SMOOTH",
"665 587 OFFCURVE",
"514 666 OFFCURVE",
"361 666 CURVE SMOOTH",
"201 666 OFFCURVE",
"38 580 OFFCURVE",
"38 412 CURVE SMOOTH",
"38 327 OFFCURVE",
"79 256 OFFCURVE",
"153 204 CURVE"
);
},
{
closed = 1;
nodes = (
"650 -46 LINE",
"747 29 LINE",
"714 -32 LINE",
"577 144 LINE",
"578 122 LINE",
"667 122 OFFCURVE",
"750 152 OFFCURVE",
"750 229 CURVE SMOOTH",
"750 292 OFFCURVE",
"694 325 OFFCURVE",
"634 331 CURVE",
"605 310 LINE",
"664 310 OFFCURVE",
"724 286 OFFCURVE",
"724 229 CURVE SMOOTH",
"724 169 OFFCURVE",
"660 145 OFFCURVE",
"573 146 CURVE",
"559 129 LINE",
"689 -43 LINE"
);
},
{
closed = 1;
nodes = (
"420 -8 OFFCURVE",
"507 42 OFFCURVE",
"507 141 CURVE SMOOTH",
"507 198 OFFCURVE",
"475 256 OFFCURVE",
"408 290 CURVE",
"389 274 LINE",
"449 244 OFFCURVE",
"481 196 OFFCURVE",
"481 142 CURVE SMOOTH",
"481 58 OFFCURVE",
"406 16 OFFCURVE",
"330 16 CURVE SMOOTH",
"251 16 OFFCURVE",
"170 62 OFFCURVE",
"170 157 CURVE SMOOTH",
"170 213 OFFCURVE",
"199 287 OFFCURVE",
"281 357 CURVE",
"265 373 LINE",
"180 302 OFFCURVE",
"144 227 OFFCURVE",
"144 157 CURVE SMOOTH",
"144 46 OFFCURVE",
"238 -8 OFFCURVE",
"331 -8 CURVE SMOOTH"
);
},
{
closed = 1;
nodes = (
"479 345 LINE",
"462 360 LINE",
"325 207 LINE",
"342 192 LINE"
);
}
);
width = 788;
},
{
anchors = (
{
name = topright;
position = "{676, 658}";
}
);
guideLines = (
{
position = "{596, -49}";
}
);
layerId = "639D56B4-59BE-4993-85FD-8F80ECD3B0F6";
paths = (
{
closed = 1;
nodes = (
"233 282 LINE",
"203 306 OFFCURVE",
"187 341 OFFCURVE",
"187 373 CURVE SMOOTH",
"187 449 OFFCURVE",
"277 506 OFFCURVE",
"405 506 CURVE SMOOTH",
"532 506 OFFCURVE",
"652 449 OFFCURVE",
"652 346 CURVE SMOOTH",
"652 329 OFFCURVE",
"649 309 OFFCURVE",
"644 287 CURVE",
"798 296 LINE",
"817 327 OFFCURVE",
"826 360 OFFCURVE",
"826 394 CURVE SMOOTH",
"826 542 OFFCURVE",
"653 666 OFFCURVE",
"412 666 CURVE SMOOTH",
"180 666 OFFCURVE",
"22 552 OFFCURVE",
"22 394 CURVE SMOOTH",
"22 304 OFFCURVE",
"74 229 OFFCURVE",
"173 170 CURVE"
);
},
{
closed = 1;
nodes = (
"713 -71 LINE",
"935 96 LINE",
"949 -31 LINE",
"756 194 LINE",
"736 125 LINE",
"874 125 OFFCURVE",
"936 194 OFFCURVE",
"936 260 CURVE SMOOTH",
"936 323 OFFCURVE",
"878 375 OFFCURVE",
"763 375 CURVE",
"644 287 LINE",
"730 287 OFFCURVE",
"758 265 OFFCURVE",
"758 246 CURVE SMOOTH",
"758 221 OFFCURVE",
"720 205 OFFCURVE",
"663 203 CURVE",
"611 136 LINE",
"782 -108 LINE"
);
},
{
closed = 1;
nodes = (
"473 -9 OFFCURVE",
"591 56 OFFCURVE",
"591 186 CURVE SMOOTH",
"591 249 OFFCURVE",
"565 302 OFFCURVE",
"478 348 CURVE",
"370 260 LINE",
"430 228 OFFCURVE",
"447 207 OFFCURVE",
"447 182 CURVE SMOOTH",
"447 148 OFFCURVE",
"412 130 OFFCURVE",
"374 130 CURVE SMOOTH",
"326 130 OFFCURVE",
"273 159 OFFCURVE",
"273 218 CURVE SMOOTH",
"273 261 OFFCURVE",
"301 309 OFFCURVE",
"375 355 CURVE",
"314 442 LINE",
"168 370 OFFCURVE",
"109 277 OFFCURVE",
"109 191 CURVE SMOOTH",
"109 72 OFFCURVE",
"220 -9 OFFCURVE",
"354 -9 CURVE SMOOTH"
);
},
{
closed = 1;
nodes = (
"565 344 LINE",
"482 431 LINE",
"304 261 LINE",
"387 174 LINE"
);
}
);
width = 958;
},
{
anchors = (
{
name = topright;
position = "{446, 658}";
}
);
layerId = "EAF3E1E9-0001-42EF-B2A4-765526B8C83B";
paths = (
{
closed = 1;
nodes = (
"118 234 LINE",
"84 278 OFFCURVE",
"54 338 OFFCURVE",
"54 413 CURVE SMOOTH",
"54 538 OFFCURVE",
"138 641 OFFCURVE",
"264 641 CURVE SMOOTH",
"382 641 OFFCURVE",
"465 550 OFFCURVE",
"465 425 CURVE SMOOTH",
"465 385 OFFCURVE",
"456 344 OFFCURVE",
"440 309 CURVE",
"471 319 LINE",
"484 352 OFFCURVE",
"491 388 OFFCURVE",
"491 425 CURVE SMOOTH",
"491 562 OFFCURVE",
"398 666 OFFCURVE",
"263 666 CURVE SMOOTH",
"124 666 OFFCURVE",
"28 554 OFFCURVE",
"28 413 CURVE SMOOTH",
"28 325 OFFCURVE",
"65 250 OFFCURVE",
"111 205 CURVE"
);
},
{
closed = 1;
nodes = (
"468 -22 LINE",
"554 34 LINE",
"531 -32 LINE",
"431 144 LINE",
"426 122 LINE",
"510 123 OFFCURVE",
"554 179 OFFCURVE",
"554 234 CURVE SMOOTH",
"554 279 OFFCURVE",
"524 322 OFFCURVE",
"461 331 CURVE",
"440 309 LINE",
"499 309 OFFCURVE",
"529 271 OFFCURVE",
"529 232 CURVE SMOOTH",
"529 190 OFFCURVE",
"495 147 OFFCURVE",
"422 146 CURVE",
"411 129 LINE",
"509 -43 LINE"
);
},
{
closed = 1;
nodes = (
"334 -8 OFFCURVE",
"381 59 OFFCURVE",
"381 137 CURVE SMOOTH",
"381 190 OFFCURVE",
"359 247 OFFCURVE",
"313 290 CURVE",
"298 271 LINE",
"336 236 OFFCURVE",
"355 186 OFFCURVE",
"355 139 CURVE SMOOTH",
"355 74 OFFCURVE",
"318 17 OFFCURVE",
"246 17 CURVE SMOOTH",
"172 17 OFFCURVE",
"129 77 OFFCURVE",
"129 164 CURVE SMOOTH",
"129 241 OFFCURVE",
"163 295 OFFCURVE",
"222 357 CURVE",
"204 373 LINE",
"139 306 OFFCURVE",
"103 248 OFFCURVE",
"103 164 CURVE SMOOTH",
"103 61 OFFCURVE",
"156 -8 OFFCURVE",
"246 -8 CURVE SMOOTH"
);
},
{
closed = 1;
nodes = (
"368 345 LINE",
"350 360 LINE",
"236 213 LINE",
"254 198 LINE"
);
}
);
width = 582;
},
{
anchors = (
{
name = topright;
position = "{572, 658}";
}
);
guideLines = (
{
position = "{424, 232}";
}
);
layerId = "A6029D4D-1571-45DB-86AE-EDC9D2308E6F";
paths = (
{
closed = 1;
nodes = (
"196 286 LINE",
"173 314 OFFCURVE",
"162 339 OFFCURVE",
"162 370 CURVE SMOOTH",
"162 447 OFFCURVE",
"228 520 OFFCURVE",
"355 520 CURVE SMOOTH",
"473 520 OFFCURVE",
"554 456 OFFCURVE",
"554 363 CURVE SMOOTH",
"554 340 OFFCURVE",
"549 314 OFFCURVE",
"537 287 CURVE",
"686 321 LINE",
"697 352 OFFCURVE",
"702 381 OFFCURVE",
"702 409 CURVE SMOOTH",
"702 558 OFFCURVE",
"559 666 OFFCURVE",
"361 666 CURVE SMOOTH",
"137 666 OFFCURVE",
"16 529 OFFCURVE",
"16 392 CURVE SMOOTH",
"16 314 OFFCURVE",
"56 242 OFFCURVE",
"139 189 CURVE"
);
},
{
closed = 1;
nodes = (
"583 -33 LINE",
"787 98 LINE",
"815 -3 LINE",
"655 218 LINE",
"605 133 LINE",
"712 133 OFFCURVE",
"767 195 OFFCURVE",
"767 255 CURVE SMOOTH",
"767 313 OFFCURVE",
"717 369 OFFCURVE",
"616 369 CURVE",
"537 287 LINE",
"596 287 OFFCURVE",
"623 264 OFFCURVE",
"623 242 CURVE SMOOTH",
"623 222 OFFCURVE",
"600 203 OFFCURVE",
"557 203 CURVE",
"522 157 LINE",
"667 -83 LINE"
);
},
{
closed = 1;
nodes = (
"423 -8 OFFCURVE",
"502 67 OFFCURVE",
"502 172 CURVE SMOOTH",
"502 241 OFFCURVE",
"468 304 OFFCURVE",
"390 343 CURVE",
"326 253 LINE",
"362 232 OFFCURVE",
"379 203 OFFCURVE",
"379 177 CURVE SMOOTH",
"379 144 OFFCURVE",
"352 117 OFFCURVE",
"303 117 CURVE SMOOTH",
"247 117 OFFCURVE",
"220 152 OFFCURVE",
"220 198 CURVE SMOOTH",
"220 248 OFFCURVE",
"249 303 OFFCURVE",
"304 355 CURVE",
"237 436 LINE",
"143 369 OFFCURVE",
"96 280 OFFCURVE",
"96 192 CURVE SMOOTH",
"96 75 OFFCURVE",
"179 -8 OFFCURVE",
"304 -8 CURVE SMOOTH"
);
},
{
closed = 1;
nodes = (
"466 354 LINE",
"389 422 LINE",
"243 245 LINE",
"320 177 LINE"
);
}
);
width = 783;
},
{
anchors = (
{
name = topright;
position = "{676, 658}";
}
);
annotations = (
{
position = "{589.696, 929.297}";
text = "Need a bracket layer for the normal width";
type = Text;
width = 151;
}
);
associatedMasterId = "639D56B4-59BE-4993-85FD-8F80ECD3B0F6";
background = {
paths = (
{
closed = 1;
nodes = (
"233 282 LINE",
"204 302 OFFCURVE",
"186 344 OFFCURVE",
"186 379 CURVE SMOOTH",
"186 461 OFFCURVE",
"280 506 OFFCURVE",
"427 506 CURVE SMOOTH",
"578 506 OFFCURVE",
"666 458 OFFCURVE",
"666 373 CURVE SMOOTH",
"666 347 OFFCURVE",
"658 318 OFFCURVE",
"644 287 CURVE",
"798 321 LINE",
"826 352 OFFCURVE",
"840 384 OFFCURVE",
"840 422 CURVE SMOOTH",
"840 543 OFFCURVE",
"697 666 OFFCURVE",
"428 666 CURVE SMOOTH",
"171 666 OFFCURVE",
"22 554 OFFCURVE",
"22 398 CURVE SMOOTH",
"22 305 OFFCURVE",
"74 229 OFFCURVE",
"173 170 CURVE"
);
},
{
closed = 1;
nodes = (
"727 -71 LINE",
"943 92 LINE",
"961 -26 LINE",
"764 194 LINE",
"744 125 LINE",
"888 125 OFFCURVE",
"936 207 OFFCURVE",
"936 262 CURVE SMOOTH",
"936 324 OFFCURVE",
"877 375 OFFCURVE",
"762 375 CURVE",
"644 287 LINE",
"724 287 OFFCURVE",
"758 269 OFFCURVE",
"758 246 CURVE SMOOTH",
"758 221 OFFCURVE",
"719 204 OFFCURVE",
"671 203 CURVE",
"619 136 LINE",
"796 -108 LINE"
);
},
{
closed = 1;
nodes = (
"470 -8 OFFCURVE",
"583 56 OFFCURVE",
"583 186 CURVE SMOOTH",
"583 249 OFFCURVE",
"557 302 OFFCURVE",
"470 348 CURVE",
"362 260 LINE",
"417 231 OFFCURVE",
"429 209 OFFCURVE",
"429 186 CURVE SMOOTH",
"429 156 OFFCURVE",
"403 140 OFFCURVE",
"363 140 CURVE SMOOTH",
"309 140 OFFCURVE",
"283 179 OFFCURVE",
"283 219 CURVE SMOOTH",
"283 259 OFFCURVE",
"309 305 OFFCURVE",
"379 349 CURVE",
"314 442 LINE",
"166 369 OFFCURVE",
"109 276 OFFCURVE",
"109 190 CURVE SMOOTH",
"109 70 OFFCURVE",
"218 -8 OFFCURVE",
"350 -8 CURVE SMOOTH"
);
},
{
closed = 1;
nodes = (
"565 344 LINE",
"482 431 LINE",
"304 261 LINE",
"387 174 LINE"
);
}
);
};
layerId = "31C9DFF6-DEB8-407B-AE66-A7E5A61C12B5";
name = "Black ]141]";
paths = (
{
closed = 1;
nodes = (
"233 282 LINE",
"203 306 OFFCURVE",
"187 341 OFFCURVE",
"187 373 CURVE SMOOTH",
"187 449 OFFCURVE",
"277 506 OFFCURVE",
"405 506 CURVE SMOOTH",
"532 506 OFFCURVE",
"652 449 OFFCURVE",
"652 346 CURVE SMOOTH",
"652 329 OFFCURVE",
"649 309 OFFCURVE",
"644 287 CURVE",
"798 296 LINE",
"817 327 OFFCURVE",
"826 360 OFFCURVE",
"826 394 CURVE SMOOTH",
"826 542 OFFCURVE",
"653 666 OFFCURVE",
"412 666 CURVE SMOOTH",
"180 666 OFFCURVE",
"22 552 OFFCURVE",
"22 394 CURVE SMOOTH",
"22 304 OFFCURVE",
"74 229 OFFCURVE",
"173 170 CURVE"
);
},
{
closed = 1;
nodes = (
"713 -71 LINE",
"935 96 LINE",
"949 -31 LINE",
"756 194 LINE",
"736 125 LINE",
"874 125 OFFCURVE",
"936 194 OFFCURVE",
"936 260 CURVE SMOOTH",
"936 323 OFFCURVE",
"878 375 OFFCURVE",
"763 375 CURVE",
"644 287 LINE",
"730 287 OFFCURVE",
"758 265 OFFCURVE",
"758 246 CURVE SMOOTH",
"758 221 OFFCURVE",
"720 205 OFFCURVE",
"663 203 CURVE",
"611 136 LINE",
"782 -108 LINE"
);
},
{
closed = 1;
nodes = (
"470 -8 OFFCURVE",
"583 56 OFFCURVE",
"583 186 CURVE SMOOTH",
"583 249 OFFCURVE",
"557 302 OFFCURVE",
"470 348 CURVE",
"362 260 LINE",
"417 231 OFFCURVE",
"429 209 OFFCURVE",
"429 186 CURVE SMOOTH",
"429 156 OFFCURVE",
"403 140 OFFCURVE",
"363 140 CURVE SMOOTH",
"309 140 OFFCURVE",
"283 179 OFFCURVE",
"283 219 CURVE SMOOTH",
"283 259 OFFCURVE",
"309 305 OFFCURVE",
"379 349 CURVE",
"314 442 LINE",
"166 369 OFFCURVE",
"109 276 OFFCURVE",
"109 190 CURVE SMOOTH",
"109 70 OFFCURVE",
"218 -8 OFFCURVE",
"350 -8 CURVE SMOOTH"
);
},
{
closed = 1;
nodes = (
"565 344 LINE",
"482 431 LINE",
"304 261 LINE",
"387 174 LINE"
);
}
);
width = 958;
},
{
anchors = (
{
name = topright;
position = "{572, 658}";
}
);
associatedMasterId = "A6029D4D-1571-45DB-86AE-EDC9D2308E6F";
background = {
anchors = (
{
name = bottom;
position = "{239, 0}";
},
{
name = nukta;
position = "{304, 10}";
},
{
name = top;
position = "{653, 658}";
},
{
name = topcenter;
position = "{361, 658}";
}
);
paths = (
{
closed = 1;
nodes = (
"196 286 LINE",
"173 314 OFFCURVE",
"162 339 OFFCURVE",
"162 370 CURVE SMOOTH",
"162 447 OFFCURVE",
"228 520 OFFCURVE",
"355 520 CURVE SMOOTH",
"473 520 OFFCURVE",
"554 456 OFFCURVE",
"554 363 CURVE SMOOTH",
"554 340 OFFCURVE",
"549 314 OFFCURVE",
"537 287 CURVE",
"686 321 LINE",
"697 352 OFFCURVE",
"702 381 OFFCURVE",
"702 409 CURVE SMOOTH",
"702 558 OFFCURVE",
"559 666 OFFCURVE",
"361 666 CURVE SMOOTH",
"137 666 OFFCURVE",
"16 529 OFFCURVE",
"16 392 CURVE SMOOTH",
"16 314 OFFCURVE",
"56 242 OFFCURVE",
"139 189 CURVE"
);
},
{
closed = 1;
nodes = (
"582 -42 LINE",
"804 77 LINE",
"803 -10 LINE",
"665 218 LINE",
"605 133 LINE",
"712 133 OFFCURVE",
"767 195 OFFCURVE",
"767 255 CURVE SMOOTH",
"767 313 OFFCURVE",
"717 369 OFFCURVE",
"616 369 CURVE",
"537 287 LINE",
"596 287 OFFCURVE",
"623 264 OFFCURVE",
"623 242 CURVE SMOOTH",
"623 222 OFFCURVE",
"600 203 OFFCURVE",
"557 203 CURVE",
"522 157 LINE",
"655 -92 LINE"
);
},
{
closed = 1;
nodes = (
"423 -8 OFFCURVE",
"502 67 OFFCURVE",
"502 172 CURVE SMOOTH",
"502 241 OFFCURVE",
"468 304 OFFCURVE",
"390 343 CURVE",
"326 253 LINE",
"362 232 OFFCURVE",
"379 203 OFFCURVE",
"379 177 CURVE SMOOTH",
"379 144 OFFCURVE",
"352 117 OFFCURVE",
"303 117 CURVE SMOOTH",
"247 117 OFFCURVE",
"220 152 OFFCURVE",
"220 198 CURVE SMOOTH",
"220 248 OFFCURVE",
"249 303 OFFCURVE",
"304 355 CURVE",
"237 436 LINE",
"143 369 OFFCURVE",
"96 280 OFFCURVE",
"96 192 CURVE SMOOTH",
"96 75 OFFCURVE",
"179 -8 OFFCURVE",
"304 -8 CURVE SMOOTH"
);
},
{
closed = 1;
nodes = (
"466 354 LINE",
"389 422 LINE",
"243 245 LINE",
"320 177 LINE"
);
}
);
};
layerId = "07A8BF55-3CF9-4D67-A8E5-C461981387B3";
name = "ExtraCondensed Black ]141]";
paths = (
{
closed = 1;
nodes = (
"196 286 LINE",
"173 314 OFFCURVE",
"162 339 OFFCURVE",
"162 370 CURVE SMOOTH",
"162 447 OFFCURVE",
"228 520 OFFCURVE",
"355 520 CURVE SMOOTH",
"473 520 OFFCURVE",
"554 456 OFFCURVE",
"554 363 CURVE SMOOTH",
"554 340 OFFCURVE",
"549 314 OFFCURVE",
"537 287 CURVE",
"686 321 LINE",
"697 352 OFFCURVE",
"702 381 OFFCURVE",
"702 409 CURVE SMOOTH",
"702 558 OFFCURVE",
"559 666 OFFCURVE",
"361 666 CURVE SMOOTH",
"137 666 OFFCURVE",
"16 529 OFFCURVE",
"16 392 CURVE SMOOTH",
"16 314 OFFCURVE",
"56 242 OFFCURVE",
"139 189 CURVE"
);
},
{
closed = 1;
nodes = (
"583 -33 LINE",
"787 98 LINE",
"815 -3 LINE",
"655 218 LINE",
"605 133 LINE",
"712 133 OFFCURVE",
"767 195 OFFCURVE",
"767 255 CURVE SMOOTH",
"767 313 OFFCURVE",
"717 369 OFFCURVE",
"616 369 CURVE",
"537 287 LINE",
"596 287 OFFCURVE",
"623 264 OFFCURVE",
"623 242 CURVE SMOOTH",
"623 222 OFFCURVE",
"600 203 OFFCURVE",
"557 203 CURVE",
"522 157 LINE",
"667 -83 LINE"
);
},
{
closed = 1;
nodes = (
"429 -8 OFFCURVE",
"512 66 OFFCURVE",
"512 176 CURVE SMOOTH",
"512 240 OFFCURVE",
"474 304 OFFCURVE",
"390 343 CURVE",
"316 253 LINE",
"359 232 OFFCURVE",
"379 200 OFFCURVE",
"379 175 CURVE SMOOTH",
"379 146 OFFCURVE",
"347 122 OFFCURVE",
"304 122 CURVE SMOOTH",
"250 122 OFFCURVE",
"220 153 OFFCURVE",
"220 200 CURVE SMOOTH",
"220 246 OFFCURVE",
"251 299 OFFCURVE",
"305 346 CURVE",
"237 436 LINE",
"140 372 OFFCURVE",
"86 280 OFFCURVE",
"86 196 CURVE SMOOTH",
"86 74 OFFCURVE",
"173 -8 OFFCURVE",
"304 -8 CURVE SMOOTH"
);
},
{
closed = 1;
nodes = (
"466 354 LINE",
"385 424 LINE",
"239 247 LINE",
"320 177 LINE"
);
}
);
width = 783;
}
);
note = uuorya;
unicode = 0B0A;
},
{
glyphname = "rVocalic-oriya";
lastChange = "2019-10-25 11:35:51 +0000";
layers = (
{
anchors = (
{
name = topright;
position = "{576, 658}";
}
);
guideLines = (
{
position = "{766, -24}";
}
);
layerId = "926CF2F4-31F1-4036-BA3C-0F7EE51EF36A";
paths = (
{
closed = 1;
nodes = (
"163 228 LINE",
"99 272 OFFCURVE",
"64 333 OFFCURVE",
"64 405 CURVE SMOOTH",
"64 564 OFFCURVE",
"208 642 OFFCURVE",
"349 642 CURVE SMOOTH",
"483 642 OFFCURVE",
"615 571 OFFCURVE",
"615 432 CURVE SMOOTH",
"615 395 OFFCURVE",
"604 353 OFFCURVE",
"581 310 CURVE",
"610 315 LINE",
"631 354 OFFCURVE",
"641 394 OFFCURVE",
"641 431 CURVE SMOOTH",
"641 587 OFFCURVE",
"495 666 OFFCURVE",
"347 666 CURVE SMOOTH",
"194 666 OFFCURVE",
"38 581 OFFCURVE",
"38 408 CURVE SMOOTH",
"38 328 OFFCURVE",
"79 256 OFFCURVE",
"153 204 CURVE"
);
},
{
closed = 1;
nodes = (
"413 -8 OFFCURVE",
"483 69 OFFCURVE",
"483 170 CURVE SMOOTH",
"483 271 OFFCURVE",
"413 347 OFFCURVE",
"308 347 CURVE SMOOTH",
"203 347 OFFCURVE",
"132 271 OFFCURVE",
"132 170 CURVE SMOOTH",
"132 69 OFFCURVE",
"203 -8 OFFCURVE",
"308 -8 CURVE SMOOTH"
);
},
{
closed = 1;
nodes = (
"214 16 OFFCURVE",
"158 81 OFFCURVE",
"158 171 CURVE SMOOTH",
"158 260 OFFCURVE",
"214 323 OFFCURVE",
"308 323 CURVE SMOOTH",
"402 323 OFFCURVE",
"457 260 OFFCURVE",
"457 170 CURVE SMOOTH",
"457 80 OFFCURVE",
"402 16 OFFCURVE",
"308 16 CURVE SMOOTH"
);
},
{
closed = 1;
nodes = (
"626 -46 LINE",
"723 29 LINE",
"690 -32 LINE",
"553 144 LINE",
"554 122 LINE",
"643 122 OFFCURVE",
"726 152 OFFCURVE",
"726 229 CURVE SMOOTH",
"726 292 OFFCURVE",
"670 325 OFFCURVE",
"610 331 CURVE",
"581 310 LINE",
"640 310 OFFCURVE",
"700 286 OFFCURVE",
"700 229 CURVE SMOOTH",
"700 169 OFFCURVE",
"636 145 OFFCURVE",
"549 146 CURVE",
"535 129 LINE",
"665 -43 LINE"
);
}
);
width = 764;
},
{
anchors = (
{
name = topright;
position = "{607, 658}";
}
);
guideLines = (
{
position = "{744, -34}";
}
);
layerId = "639D56B4-59BE-4993-85FD-8F80ECD3B0F6";
paths = (
{
closed = 1;
nodes = (
"232 282 LINE",
"201 309 OFFCURVE",
"186 343 OFFCURVE",
"186 377 CURVE SMOOTH",
"186 458 OFFCURVE",
"273 506 OFFCURVE",
"383 506 CURVE SMOOTH",
"499 506 OFFCURVE",
"583 452 OFFCURVE",
"583 350 CURVE SMOOTH",
"583 334 OFFCURVE",
"581 310 OFFCURVE",
"575 287 CURVE",
"732 321 LINE",
"749 347 OFFCURVE",
"757 372 OFFCURVE",
"757 408 CURVE SMOOTH",
"757 578 OFFCURVE",
"575 666 OFFCURVE",
"392 666 CURVE SMOOTH",
"208 666 OFFCURVE",
"22 577 OFFCURVE",
"22 398 CURVE SMOOTH",
"22 317 OFFCURVE",
"62 235 OFFCURVE",
"173 170 CURVE"
);
},
{
closed = 1;
nodes = (
"443 -8 OFFCURVE",
"522 67 OFFCURVE",
"522 180 CURVE SMOOTH",
"522 293 OFFCURVE",
"443 368 OFFCURVE",
"321 368 CURVE SMOOTH",
"195 368 OFFCURVE",
"114 293 OFFCURVE",
"114 180 CURVE SMOOTH",
"114 67 OFFCURVE",
"195 -8 OFFCURVE",
"321 -8 CURVE SMOOTH"
);
},
{
closed = 1;
nodes = (
"290 130 OFFCURVE",
"274 150 OFFCURVE",
"274 180 CURVE SMOOTH",
"274 210 OFFCURVE",
"290 230 OFFCURVE",
"319 230 CURVE SMOOTH",
"347 230 OFFCURVE",
"362 210 OFFCURVE",
"362 180 CURVE SMOOTH",
"362 150 OFFCURVE",
"347 130 OFFCURVE",
"319 130 CURVE SMOOTH"
);
},
{
closed = 1;
nodes = (
"644 -71 LINE",
"866 96 LINE",
"880 -31 LINE",
"687 194 LINE",
"667 125 LINE",
"805 125 OFFCURVE",
"867 194 OFFCURVE",
"867 260 CURVE SMOOTH",
"867 323 OFFCURVE",
"809 375 OFFCURVE",
"694 375 CURVE",
"575 287 LINE",
"661 287 OFFCURVE",
"689 265 OFFCURVE",
"689 246 CURVE SMOOTH",
"689 221 OFFCURVE",
"651 205 OFFCURVE",
"594 203 CURVE",
"542 136 LINE",
"713 -108 LINE"
);
}
);
width = 889;
},
{
anchors = (
{
name = topright;
position = "{440, 658}";
}
);
layerId = "EAF3E1E9-0001-42EF-B2A4-765526B8C83B";
paths = (
{
closed = 1;
nodes = (
"114 242 LINE",
"77 288 OFFCURVE",
"54 349 OFFCURVE",
"54 414 CURVE SMOOTH",
"54 540 OFFCURVE",
"139 638 OFFCURVE",
"256 641 CURVE SMOOTH",
"370 644 OFFCURVE",
"459 551 OFFCURVE",
"459 425 CURVE SMOOTH",
"459 385 OFFCURVE",
"450 344 OFFCURVE",
"434 309 CURVE",
"465 319 LINE",
"478 352 OFFCURVE",
"485 388 OFFCURVE",
"485 425 CURVE SMOOTH",
"485 564 OFFCURVE",
"389 666 OFFCURVE",
"260 666 CURVE SMOOTH",
"125 666 OFFCURVE",
"28 554 OFFCURVE",
"28 414 CURVE SMOOTH",
"28 337 OFFCURVE",
"58 261 OFFCURVE",
"106 213 CURVE"
);
},
{
closed = 1;
nodes = (
"316 -8 OFFCURVE",
"370 63 OFFCURVE",
"370 170 CURVE SMOOTH",
"370 276 OFFCURVE",
"316 347 OFFCURVE",
"234 347 CURVE SMOOTH",
"152 347 OFFCURVE",
"98 276 OFFCURVE",
"98 170 CURVE SMOOTH",
"98 63 OFFCURVE",
"152 -8 OFFCURVE",
"234 -8 CURVE SMOOTH"
);
},
{
closed = 1;
nodes = (
"167 17 OFFCURVE",
"124 78 OFFCURVE",
"124 171 CURVE SMOOTH",
"124 263 OFFCURVE",
"167 322 OFFCURVE",
"234 322 CURVE SMOOTH",
"301 322 OFFCURVE",
"344 262 OFFCURVE",
"344 170 CURVE SMOOTH",
"344 77 OFFCURVE",
"301 17 OFFCURVE",
"234 17 CURVE SMOOTH"
);
},
{
closed = 1;
nodes = (
"457 -22 LINE",
"543 34 LINE",
"520 -32 LINE",
"420 144 LINE",
"415 122 LINE",
"503 123 OFFCURVE",
"548 179 OFFCURVE",
"548 234 CURVE SMOOTH",
"548 279 OFFCURVE",
"518 322 OFFCURVE",
"455 331 CURVE",
"434 309 LINE",
"493 309 OFFCURVE",
"523 271 OFFCURVE",
"523 232 CURVE SMOOTH",
"523 190 OFFCURVE",
"488 147 OFFCURVE",
"411 146 CURVE",
"400 129 LINE",
"498 -43 LINE"
);
}
);
width = 576;
},
{
anchors = (
{
name = topright;
position = "{501, 658}";
}
);
guideLines = (
{
position = "{391, 225}";
}
);
layerId = "A6029D4D-1571-45DB-86AE-EDC9D2308E6F";
paths = (
{
closed = 1;
nodes = (
"202 288 LINE",
"176 316 OFFCURVE",
"162 343 OFFCURVE",
"162 381 CURVE SMOOTH",
"162 473 OFFCURVE",
"240 520 OFFCURVE",
"319 520 CURVE SMOOTH",
"400 520 OFFCURVE",
"483 470 OFFCURVE",
"483 366 CURVE SMOOTH",
"483 340 OFFCURVE",
"478 314 OFFCURVE",
"466 287 CURVE",
"615 321 LINE",
"626 352 OFFCURVE",
"631 381 OFFCURVE",
"631 412 CURVE SMOOTH",
"631 582 OFFCURVE",
"476 666 OFFCURVE",
"326 666 CURVE SMOOTH",
"167 666 OFFCURVE",
"16 572 OFFCURVE",
"16 404 CURVE SMOOTH",
"16 315 OFFCURVE",
"59 245 OFFCURVE",
"142 192 CURVE"
);
},
{
closed = 1;
nodes = (
"368 -8 OFFCURVE",
"430 64 OFFCURVE",
"430 180 CURVE SMOOTH",
"430 297 OFFCURVE",
"368 368 OFFCURVE",
"268 368 CURVE SMOOTH",
"165 368 OFFCURVE",
"101 297 OFFCURVE",
"101 180 CURVE SMOOTH",
"101 64 OFFCURVE",
"165 -8 OFFCURVE",
"266 -8 CURVE SMOOTH"
);
},
{
closed = 1;
nodes = (
"244 115 OFFCURVE",
"234 136 OFFCURVE",
"234 180 CURVE SMOOTH",
"234 224 OFFCURVE",
"244 245 OFFCURVE",
"266 245 CURVE SMOOTH",
"288 245 OFFCURVE",
"297 224 OFFCURVE",
"297 180 CURVE SMOOTH",
"297 136 OFFCURVE",
"287 115 OFFCURVE",
"266 115 CURVE SMOOTH"
);
},
{
closed = 1;
nodes = (
"511 -33 LINE",
"715 98 LINE",
"743 -3 LINE",
"583 218 LINE",
"534 133 LINE",
"641 133 OFFCURVE",
"696 195 OFFCURVE",
"696 255 CURVE SMOOTH",
"696 313 OFFCURVE",
"646 369 OFFCURVE",
"545 369 CURVE",
"466 287 LINE",
"525 287 OFFCURVE",
"552 264 OFFCURVE",
"552 242 CURVE SMOOTH",
"552 222 OFFCURVE",
"528 203 OFFCURVE",
"485 203 CURVE",
"450 157 LINE",
"595 -83 LINE"
);
}
);
width = 712;
}
);
note = rvocalicorya;
rightMetricsKey = "uu-oriya";
unicode = 0B0B;
},
{
glyphname = "lVocalic-oriya";
lastChange = "2019-10-25 11:35:51 +0000";
layers = (
{
anchors = (
{
name = topright;
position = "{268, 658}";
}
);
guideLines = (
{
angle = 90;
position = "{432, 423}";
}
);
layerId = "926CF2F4-31F1-4036-BA3C-0F7EE51EF36A";
paths = (
{
closed = 1;
nodes = (
"68 277 OFFCURVE",
"142 302 OFFCURVE",
"230 330 CURVE SMOOTH",
"286 348 LINE SMOOTH",
"343 366 OFFCURVE",
"432 396 OFFCURVE",
"432 513 CURVE SMOOTH",
"432 611 OFFCURVE",
"370 666 OFFCURVE",
"268 666 CURVE SMOOTH",
"162 666 OFFCURVE",
"100 606 OFFCURVE",
"100 506 CURVE SMOOTH",
"100 472 OFFCURVE",
"108 444 OFFCURVE",
"121 416 CURVE",
"196 448 LINE",
"167 393 LINE",
"135 436 OFFCURVE",
"126 474 OFFCURVE",
"126 508 CURVE SMOOTH",
"126 591 OFFCURVE",
"178 643 OFFCURVE",
"269 643 CURVE SMOOTH",
"354 643 OFFCURVE",
"406 597 OFFCURVE",
"406 510 CURVE SMOOTH",
"406 409 OFFCURVE",
"335 388 OFFCURVE",
"274 369 CURVE SMOOTH",
"229 355 LINE SMOOTH",
"147 329 OFFCURVE",
"42 303 OFFCURVE",
"42 179 CURVE SMOOTH",
"42 70 OFFCURVE",
"123 -8 OFFCURVE",
"294 -8 CURVE SMOOTH",
"447 -8 OFFCURVE",
"536 54 OFFCURVE",
"536 157 CURVE SMOOTH",
"536 235 OFFCURVE",
"486 282 OFFCURVE",
"404 282 CURVE SMOOTH",
"317 282 OFFCURVE",
"268 229 OFFCURVE",
"268 151 CURVE SMOOTH",
"268 105 OFFCURVE",
"287 49 OFFCURVE",
"345 -1 CURVE",
"375 1 LINE",
"317 51 OFFCURVE",
"294 104 OFFCURVE",
"294 151 CURVE SMOOTH",
"294 212 OFFCURVE",
"333 258 OFFCURVE",
"404 258 CURVE SMOOTH",
"470 258 OFFCURVE",
"510 219 OFFCURVE",
"510 156 CURVE SMOOTH",
"510 66 OFFCURVE",
"427 16 OFFCURVE",
"297 16 CURVE SMOOTH",
"149 16 OFFCURVE",
"68 81 OFFCURVE",
"68 181 CURVE SMOOTH"
);
}
);
width = 574;
},
{
anchors = (
{
name = topright;
position = "{300, 658}";
}
);
layerId = "639D56B4-59BE-4993-85FD-8F80ECD3B0F6";
paths = (
{
closed = 1;
nodes = (
"176 238 OFFCURVE",
"224 253 OFFCURVE",
"305 278 CURVE SMOOTH",
"361 295 LINE SMOOTH",
"413 311 OFFCURVE",
"518 343 OFFCURVE",
"518 479 CURVE SMOOTH",
"518 596 OFFCURVE",
"441 666 OFFCURVE",
"300 666 CURVE SMOOTH",
"158 666 OFFCURVE",
"65 599 OFFCURVE",
"65 494 CURVE SMOOTH",
"65 462 OFFCURVE",
"74 421 OFFCURVE",
"86 394 CURVE",
"297 448 LINE",
"272 401 LINE",
"249 429 OFFCURVE",
"239 461 OFFCURVE",
"239 479 CURVE SMOOTH",
"239 509 OFFCURVE",
"265 524 OFFCURVE",
"293 524 CURVE SMOOTH",
"330 524 OFFCURVE",
"344 500 OFFCURVE",
"344 473 CURVE SMOOTH",
"344 428 OFFCURVE",
"304 418 OFFCURVE",
"267 406 CURVE SMOOTH",
"193 383 LINE SMOOTH",
"120 360 OFFCURVE",
"26 328 OFFCURVE",
"26 197 CURVE SMOOTH",
"26 62 OFFCURVE",
"127 -8 OFFCURVE",
"326 -8 CURVE SMOOTH",
"514 -8 OFFCURVE",
"608 54 OFFCURVE",
"608 160 CURVE SMOOTH",
"608 253 OFFCURVE",
"535 296 OFFCURVE",
"446 296 CURVE SMOOTH",
"339 296 OFFCURVE",
"262 234 OFFCURVE",
"262 147 CURVE SMOOTH",
"262 99 OFFCURVE",
"286 45 OFFCURVE",
"339 -1 CURVE",
"455 25 LINE",
"409 71 OFFCURVE",
"392 108 OFFCURVE",
"392 135 CURVE SMOOTH",
"392 166 OFFCURVE",
"418 180 OFFCURVE",
"439 180 CURVE SMOOTH",
"455 180 OFFCURVE",
"468 173 OFFCURVE",
"468 160 CURVE SMOOTH",
"468 135 OFFCURVE",
"422 120 OFFCURVE",
"335 120 CURVE SMOOTH",
"225 120 OFFCURVE",
"176 144 OFFCURVE",
"176 191 CURVE SMOOTH"
);
}
);
width = 630;
},
{
anchors = (
{
name = topright;
position = "{209, 658}";
}
);
layerId = "EAF3E1E9-0001-42EF-B2A4-765526B8C83B";
paths = (
{
closed = 1;
nodes = (
"58 271 OFFCURVE",
"135 304 OFFCURVE",
"179 326 CURVE SMOOTH",
"189 331 LINE SMOOTH",
"270 367 OFFCURVE",
"340 394 OFFCURVE",
"340 508 CURVE SMOOTH",
"340 607 OFFCURVE",
"292 666 OFFCURVE",
"209 666 CURVE SMOOTH",
"121 666 OFFCURVE",
"76 599 OFFCURVE",
"76 514 CURVE SMOOTH",
"76 484 OFFCURVE",
"81 451 OFFCURVE",
"93 419 CURVE",
"128 432 LINE",
"120 421 LINE",
"108 450 OFFCURVE",
"102 482 OFFCURVE",
"102 511 CURVE SMOOTH",
"102 581 OFFCURVE",
"136 641 OFFCURVE",
"210 641 CURVE SMOOTH",
"277 641 OFFCURVE",
"314 591 OFFCURVE",
"314 508 CURVE SMOOTH",
"314 411 OFFCURVE",
"258 388 OFFCURVE",
"176 352 CURVE SMOOTH",
"170 349 LINE SMOOTH",
"117 323 OFFCURVE",
"32 288 OFFCURVE",
"32 168 CURVE SMOOTH",
"32 47 OFFCURVE",
"125 -8 OFFCURVE",
"218 -8 CURVE SMOOTH",
"314 -8 OFFCURVE",
"411 50 OFFCURVE",
"411 163 CURVE SMOOTH",
"411 238 OFFCURVE",
"368 279 OFFCURVE",
"310 279 CURVE SMOOTH",
"241 279 OFFCURVE",
"208 221 OFFCURVE",
"208 153 CURVE SMOOTH",
"208 102 OFFCURVE",
"226 45 OFFCURVE",
"259 2 CURVE",
"281 15 LINE",
"252 50 OFFCURVE",
"234 105 OFFCURVE",
"234 153 CURVE SMOOTH",
"234 208 OFFCURVE",
"258 254 OFFCURVE",
"311 254 CURVE SMOOTH",
"357 254 OFFCURVE",
"385 218 OFFCURVE",
"385 162 CURVE SMOOTH",
"385 66 OFFCURVE",
"302 17 OFFCURVE",
"219 17 CURVE SMOOTH",
"138 17 OFFCURVE",
"58 63 OFFCURVE",
"58 168 CURVE SMOOTH"
);
}
);
width = 439;
},
{
anchors = (
{
name = topright;
position = "{247, 658}";
}
);
layerId = "A6029D4D-1571-45DB-86AE-EDC9D2308E6F";
paths = (
{
closed = 1;
nodes = (
"172 231 OFFCURVE",
"202 254 OFFCURVE",
"271 288 CURVE SMOOTH",
"285 295 LINE SMOOTH",
"369 337 OFFCURVE",
"438 381 OFFCURVE",
"438 486 CURVE SMOOTH",
"438 605 OFFCURVE",
"365 666 OFFCURVE",
"247 666 CURVE SMOOTH",
"119 666 OFFCURVE",
"48 594 OFFCURVE",
"48 490 CURVE SMOOTH",
"48 459 OFFCURVE",
"54 428 OFFCURVE",
"65 394 CURVE",
"271 456 LINE",
"232 394 LINE",
"211 424 OFFCURVE",
"197 457 OFFCURVE",
"197 483 CURVE SMOOTH",
"197 509 OFFCURVE",
"211 530 OFFCURVE",
"246 530 CURVE SMOOTH",
"282 530 OFFCURVE",
"290 508 OFFCURVE",
"290 488 CURVE SMOOTH",
"289 446 OFFCURVE",
"244 426 OFFCURVE",
"185 397 CURVE SMOOTH",
"177 393 LINE SMOOTH",
"101 355 OFFCURVE",
"24 313 OFFCURVE",
"24 192 CURVE SMOOTH",
"24 54 OFFCURVE",
"135 -8 OFFCURVE",
"264 -8 CURVE SMOOTH",
"388 -8 OFFCURVE",
"491 50 OFFCURVE",
"491 165 CURVE SMOOTH",
"491 254 OFFCURVE",
"430 296 OFFCURVE",
"359 296 CURVE SMOOTH",
"276 296 OFFCURVE",
"219 238 OFFCURVE",
"219 150 CURVE SMOOTH",
"219 99 OFFCURVE",
"238 45 OFFCURVE",
"278 -1 CURVE",
"376 25 LINE",
"347 54 OFFCURVE",
"325 114 OFFCURVE",
"325 155 CURVE SMOOTH",
"325 176 OFFCURVE",
"331 192 OFFCURVE",
"347 192 CURVE SMOOTH",
"360 192 OFFCURVE",
"365 181 OFFCURVE",
"365 164 CURVE SMOOTH",
"365 125 OFFCURVE",
"338 108 OFFCURVE",
"280 108 CURVE SMOOTH",
"210 108 OFFCURVE",
"172 132 OFFCURVE",
"172 181 CURVE SMOOTH"
);
}
);
width = 507;
}
);
note = lvocalicorya;
unicode = 0B0C;
},
{
glyphname = "e-oriya";
lastChange = "2019-10-25 11:35:51 +0000";
layers = (
{
anchors = (
{
name = topright;
position = "{571, 658}";
}
);
layerId = "926CF2F4-31F1-4036-BA3C-0F7EE51EF36A";
paths = (
{
closed = 1;
nodes = (
"327 401 LINE",
"327 516 OFFCURVE",
"424 634 OFFCURVE",
"573 634 CURVE",
"558 643 LINE",
"558 12 LINE",
"577 15 LINE",
"370 162 OFFCURVE",
"176 333 OFFCURVE",
"2 511 CURVE",
"46 516 LINE",
"-28 446 LINE",
"-17 493 LINE",
"150 321 OFFCURVE",
"343 151 OFFCURVE",
"556 0 CURVE",
"584 0 LINE",
"584 658 LINE",
"567 658 LINE SMOOTH",
"387 658 OFFCURVE",
"301 505 OFFCURVE",
"301 415 CURVE SMOOTH",
"301 377 OFFCURVE",
"318 351 OFFCURVE",
"344 351 CURVE SMOOTH",
"365 351 OFFCURVE",
"379 365 OFFCURVE",
"379 387 CURVE SMOOTH",
"379 406 OFFCURVE",
"366 426 OFFCURVE",
"339 426 CURVE SMOOTH",
"329 426 OFFCURVE",
"320 423 OFFCURVE",
"313 417 CURVE"
);
}
);
width = 654;
},
{
anchors = (
{
name = topright;
position = "{617, 658}";
}
);
layerId = "639D56B4-59BE-4993-85FD-8F80ECD3B0F6";
paths = (
{
closed = 1;
nodes = (
"414 424 LINE",
"414 490 OFFCURVE",
"465 518 OFFCURVE",
"550 518 CURVE",
"532 571 LINE",
"532 115 LINE",
"586 134 LINE",
"414 233 OFFCURVE",
"237 375 OFFCURVE",
"73 543 CURVE",
"142 548 LINE",
"-30 365 LINE",
"-53 415 LINE",
"113 258 OFFCURVE",
"299 115 OFFCURVE",
"502 0 CURVE",
"702 0 LINE",
"702 658 LINE",
"609 658 LINE SMOOTH",
"394 658 OFFCURVE",
"289 534 OFFCURVE",
"289 437 CURVE SMOOTH",
"289 374 OFFCURVE",
"329 325 OFFCURVE",
"394 325 CURVE SMOOTH",
"452 325 OFFCURVE",
"496 365 OFFCURVE",
"496 417 CURVE SMOOTH",
"496 468 OFFCURVE",
"452 508 OFFCURVE",
"393 508 CURVE SMOOTH",
"368 508 OFFCURVE",
"346 501 OFFCURVE",
"329 490 CURVE"
);
}
);
width = 748;
},
{
anchors = (
{
name = topright;
position = "{428, 658}";
}
);
layerId = "EAF3E1E9-0001-42EF-B2A4-765526B8C83B";
paths = (
{
closed = 1;
nodes = (
"240 400 LINE",
"240 522 OFFCURVE",
"312 634 OFFCURVE",
"422 633 CURVE",
"415 645 LINE",
"415 9 LINE",
"437 12 LINE",
"274 160 OFFCURVE",
"134 326 OFFCURVE",
"-5 510 CURVE",
"23 509 LINE",
"-46 457 LINE",
"-28 495 LINE",
"103 323 OFFCURVE",
"243 155 OFFCURVE",
"412 0 CURVE",
"441 0 LINE",
"441 658 LINE",
"425 658 LINE SMOOTH",
"298 658 OFFCURVE",
"215 530 OFFCURVE",
"215 416 CURVE SMOOTH",
"215 362 OFFCURVE",
"235 351 OFFCURVE",
"249 351 CURVE SMOOTH",
"269 351 OFFCURVE",
"279 370 OFFCURVE",
"279 388 CURVE SMOOTH",
"279 407 OFFCURVE",
"269 426 OFFCURVE",
"250 426 CURVE SMOOTH",
"242 426 OFFCURVE",
"234 423 OFFCURVE",
"227 414 CURVE"
);
}
);
width = 493;
},
{
anchors = (
{
name = topright;
position = "{482, 658}";
}
);
layerId = "A6029D4D-1571-45DB-86AE-EDC9D2308E6F";
paths = (
{
closed = 1;
nodes = (
"323 424 LINE",
"323 490 OFFCURVE",
"363 518 OFFCURVE",
"440 518 CURVE",
"408 571 LINE",
"408 115 LINE",
"457 124 LINE",
"323 223 OFFCURVE",
"185 387 OFFCURVE",
"57 554 CURVE",
"133 529 LINE",
"-46 373 LINE",
"-47 429 LINE",
"83 271 OFFCURVE",
"222 115 OFFCURVE",
"380 0 CURVE",
"555 0 LINE",
"555 658 LINE",
"490 658 LINE SMOOTH",
"299 658 OFFCURVE",
"216 534 OFFCURVE",
"216 436 CURVE SMOOTH",
"216 363 OFFCURVE",
"263 325 OFFCURVE",
"310 325 CURVE SMOOTH",
"362 325 OFFCURVE",
"389 370 OFFCURVE",
"389 415 CURVE SMOOTH",
"389 461 OFFCURVE",
"361 508 OFFCURVE",
"304 508 CURVE SMOOTH",
"286 508 OFFCURVE",
"268 502 OFFCURVE",
"252 490 CURVE"
);
}
);
width = 589;
},
{
anchors = (
{
name = topright;
position = "{617, 658}";
}
);
associatedMasterId = "639D56B4-59BE-4993-85FD-8F80ECD3B0F6";
background = {
paths = (
{
closed = 1;
nodes = (
"414 424 LINE",
"414 490 OFFCURVE",
"465 518 OFFCURVE",
"550 518 CURVE",
"532 571 LINE",
"532 115 LINE",
"586 134 LINE",
"414 233 OFFCURVE",
"237 375 OFFCURVE",
"73 543 CURVE",
"142 548 LINE",
"-30 365 LINE",
"-53 415 LINE",
"113 258 OFFCURVE",
"299 115 OFFCURVE",
"502 0 CURVE",
"702 0 LINE",
"702 658 LINE",
"609 658 LINE SMOOTH",
"394 658 OFFCURVE",
"289 534 OFFCURVE",
"289 437 CURVE SMOOTH",
"289 374 OFFCURVE",
"329 325 OFFCURVE",
"394 325 CURVE SMOOTH",
"452 325 OFFCURVE",
"496 365 OFFCURVE",
"496 417 CURVE SMOOTH",
"496 468 OFFCURVE",
"452 508 OFFCURVE",
"393 508 CURVE SMOOTH",
"368 508 OFFCURVE",
"346 501 OFFCURVE",
"329 490 CURVE"
);
}
);
};
layerId = "FFCFADEA-5C03-43B6-A6ED-A2DAF54706CE";
name = "Black ]141]";
paths = (
{
closed = 1;
nodes = (
"414 414 LINE",
"414 480 OFFCURVE",
"486 498 OFFCURVE",
"550 498 CURVE",
"532 571 LINE",
"532 115 LINE",
"586 134 LINE",
"414 233 OFFCURVE",
"237 375 OFFCURVE",
"73 543 CURVE",
"142 548 LINE",
"-30 365 LINE",
"-53 415 LINE",
"113 258 OFFCURVE",
"299 115 OFFCURVE",
"502 0 CURVE",
"702 0 LINE",
"702 658 LINE",
"609 658 LINE SMOOTH",
"394 658 OFFCURVE",
"289 534 OFFCURVE",
"289 437 CURVE SMOOTH",
"289 374 OFFCURVE",
"329 325 OFFCURVE",
"394 325 CURVE SMOOTH",
"452 325 OFFCURVE",
"496 365 OFFCURVE",
"496 417 CURVE SMOOTH",
"496 468 OFFCURVE",
"452 508 OFFCURVE",
"393 508 CURVE SMOOTH",
"368 508 OFFCURVE",
"346 501 OFFCURVE",
"329 490 CURVE"
);
}
);
width = 748;
},
{
anchors = (
{
name = topright;
position = "{482, 658}";
}
);
associatedMasterId = "A6029D4D-1571-45DB-86AE-EDC9D2308E6F";
background = {
paths = (
{
closed = 1;
nodes = (
"342 441 LINE",
"342 488 OFFCURVE",
"375 508 OFFCURVE",
"430 508 CURVE",
"398 571 LINE",
"398 115 LINE",
"447 124 LINE",
"313 223 OFFCURVE",
"175 387 OFFCURVE",
"47 554 CURVE",
"122 532 LINE",
"-42 362 LINE",
"-57 429 LINE",
"73 271 OFFCURVE",
"212 115 OFFCURVE",
"370 0 CURVE",
"545 0 LINE",
"545 658 LINE",
"480 658 LINE SMOOTH",
"289 658 OFFCURVE",
"206 534 OFFCURVE",
"206 437 CURVE SMOOTH",
"206 363 OFFCURVE",
"253 327 OFFCURVE",
"298 327 CURVE SMOOTH",
"345 327 OFFCURVE",
"380 364 OFFCURVE",
"380 416 CURVE SMOOTH",
"380 468 OFFCURVE",
"344 508 OFFCURVE",
"297 508 CURVE SMOOTH",
"278 508 OFFCURVE",
"261 501 OFFCURVE",
"248 490 CURVE"
);
}
);
};
layerId = "0DE3EAFD-8B16-4A4B-B824-39CB0F6A93B1";
name = "ExtraCondensed Black ]141]";
paths = (
{
closed = 1;
nodes = (
"338 424 LINE",
"338 487 OFFCURVE",
"373 509 OFFCURVE",
"440 509 CURVE",
"408 571 LINE",
"408 115 LINE",
"457 124 LINE",
"323 223 OFFCURVE",
"185 387 OFFCURVE",
"57 554 CURVE",
"133 529 LINE",
"-46 373 LINE",
"-47 429 LINE",
"83 271 OFFCURVE",
"222 115 OFFCURVE",
"380 0 CURVE",
"555 0 LINE",
"555 658 LINE",
"490 658 LINE SMOOTH",
"299 658 OFFCURVE",
"216 534 OFFCURVE",
"216 436 CURVE SMOOTH",
"216 363 OFFCURVE",
"263 325 OFFCURVE",
"310 325 CURVE SMOOTH",
"362 325 OFFCURVE",
"389 370 OFFCURVE",
"389 415 CURVE SMOOTH",
"389 461 OFFCURVE",
"361 508 OFFCURVE",
"304 508 CURVE SMOOTH",
"286 508 OFFCURVE",
"268 502 OFFCURVE",
"252 490 CURVE"
);
}
);
width = 589;
}
);
note = eorya;
rightMetricsKey = "aaMatra-oriya";
unicode = 0B0F;
},
{
glyphname = "ai-oriya";
lastChange = "2019-10-25 11:35:51 +0000";
layers = (
{
guideLines = (
{
angle = 32.7352;
position = "{356, 858}";
},
{
angle = 32.7352;
position = "{356, 699}";
}
);
layerId = "926CF2F4-31F1-4036-BA3C-0F7EE51EF36A";
paths = (
{
closed = 1;
nodes = (
"678 328 OFFCURVE",
"708 334 OFFCURVE",
"733 348 CURVE",
"733 374 LINE",
"708 358 OFFCURVE",
"679 352 OFFCURVE",
"652 352 CURVE SMOOTH",
"625 352 OFFCURVE",
"596 358 OFFCURVE",
"571 374 CURVE",
"571 348 LINE",
"596 334 OFFCURVE",
"626 328 OFFCURVE",
"652 328 CURVE SMOOTH"
);
},
{
closed = 1;
nodes = (
"327 401 LINE",
"327 516 OFFCURVE",
"424 634 OFFCURVE",
"573 634 CURVE",
"558 643 LINE",
"558 12 LINE",
"577 15 LINE",
"370 162 OFFCURVE",
"176 333 OFFCURVE",
"2 511 CURVE",
"46 516 LINE",
"-28 446 LINE",
"-17 493 LINE",
"150 321 OFFCURVE",
"343 151 OFFCURVE",
"556 0 CURVE",
"584 0 LINE",
"584 658 LINE",
"567 658 LINE SMOOTH",
"387 658 OFFCURVE",
"301 505 OFFCURVE",
"301 415 CURVE SMOOTH",
"301 377 OFFCURVE",
"318 351 OFFCURVE",
"344 351 CURVE SMOOTH",
"365 351 OFFCURVE",
"379 365 OFFCURVE",
"379 387 CURVE SMOOTH",
"379 406 OFFCURVE",
"366 426 OFFCURVE",
"339 426 CURVE SMOOTH",
"329 426 OFFCURVE",
"320 423 OFFCURVE",
"313 417 CURVE"
);
},
{
closed = 1;
nodes = (
"793 699 OFFCURVE",
"821 734 OFFCURVE",
"821 781 CURVE SMOOTH",
"821 840 OFFCURVE",
"772 876 OFFCURVE",
"703 876 CURVE SMOOTH",
"612 876 OFFCURVE",
"505 816 OFFCURVE",
"430 816 CURVE SMOOTH",
"377 816 OFFCURVE",
"330 841 OFFCURVE",
"310 912 CURVE",
"366 897 LINE",
"268 837 LINE",
"291 887 LINE",
"312 815 OFFCURVE",
"372 792 OFFCURVE",
"429 792 CURVE SMOOTH",
"521 792 OFFCURVE",
"624 852 OFFCURVE",
"700 852 CURVE SMOOTH",
"758 852 OFFCURVE",
"795 826 OFFCURVE",
"795 778 CURVE SMOOTH",
"795 739 OFFCURVE",
"770 710 OFFCURVE",
"724 693 CURVE",
"724 0 LINE",
"750 0 LINE",
"750 693 LINE",
"741 677 LINE"
);
}
);
width = 820;
},
{
guideLines = (
{
angle = 32.7352;
position = "{348, 805}";
},
{
angle = 32.7352;
position = "{358, 655}";
}
);
layerId = "639D56B4-59BE-4993-85FD-8F80ECD3B0F6";
paths = (
{
closed = 1;
nodes = (
"778 270 OFFCURVE",
"795 274 OFFCURVE",
"812 282 CURVE",
"812 433 LINE",
"795 425 OFFCURVE",
"778 420 OFFCURVE",
"751 420 CURVE SMOOTH",
"724 420 OFFCURVE",
"706 425 OFFCURVE",
"685 433 CURVE",
"685 282 LINE",
"704 274 OFFCURVE",
"722 270 OFFCURVE",
"750 270 CURVE SMOOTH"
);
},
{
closed = 1;
nodes = (
"414 424 LINE",
"414 490 OFFCURVE",
"465 518 OFFCURVE",
"550 518 CURVE",
"532 571 LINE",
"532 115 LINE",
"586 134 LINE",
"414 233 OFFCURVE",
"237 375 OFFCURVE",
"73 543 CURVE",
"142 548 LINE",
"-30 365 LINE",
"-53 415 LINE",
"113 258 OFFCURVE",
"299 115 OFFCURVE",
"502 0 CURVE",
"702 0 LINE",
"702 658 LINE",
"609 658 LINE SMOOTH",
"394 658 OFFCURVE",
"289 534 OFFCURVE",
"289 437 CURVE SMOOTH",
"289 374 OFFCURVE",
"329 325 OFFCURVE",
"394 325 CURVE SMOOTH",
"452 325 OFFCURVE",
"496 365 OFFCURVE",
"496 417 CURVE SMOOTH",
"496 468 OFFCURVE",
"452 508 OFFCURVE",
"393 508 CURVE SMOOTH",
"368 508 OFFCURVE",
"346 501 OFFCURVE",
"329 490 CURVE"
);
},
{
closed = 1;
nodes = (
"987 680 OFFCURVE",
"1025 735 OFFCURVE",
"1025 792 CURVE SMOOTH",
"1025 874 OFFCURVE",
"967 941 OFFCURVE",
"857 941 CURVE SMOOTH",
"758 941 OFFCURVE",
"633 884 OFFCURVE",
"572 884 CURVE SMOOTH",
"540 884 OFFCURVE",
"510 910 OFFCURVE",
"486 976 CURVE",
"556 961 LINE",
"346 831 LINE",
"357 872 LINE",
"390 749 OFFCURVE",
"476 724 OFFCURVE",
"542 724 CURVE SMOOTH",
"650 724 OFFCURVE",
"751 781 OFFCURVE",
"809 781 CURVE SMOOTH",
"835 781 OFFCURVE",
"851 769 OFFCURVE",
"851 753 CURVE SMOOTH",
"851 736 OFFCURVE",
"831 709 OFFCURVE",
"794 696 CURVE",
"794 0 LINE",
"964 0 LINE",
"964 755 LINE",
"908 646 LINE"
);
}
);
width = 1010;
},
{
guideLines = (
{
angle = 32.7352;
position = "{293, 858}";
},
{
angle = 32.7352;
position = "{350, 699}";
}
);
layerId = "EAF3E1E9-0001-42EF-B2A4-765526B8C83B";
paths = (
{
closed = 1;
nodes = (
"513 328 OFFCURVE",
"545 334 OFFCURVE",
"564 348 CURVE",
"564 374 LINE",
"545 358 OFFCURVE",
"513 352 OFFCURVE",
"493 352 CURVE SMOOTH",
"473 352 OFFCURVE",
"441 358 OFFCURVE",
"422 374 CURVE",
"422 348 LINE",
"441 334 OFFCURVE",
"473 328 OFFCURVE",
"493 328 CURVE SMOOTH"
);
},
{
closed = 1;
nodes = (
"240 400 LINE",
"240 522 OFFCURVE",
"312 634 OFFCURVE",
"422 633 CURVE",
"415 645 LINE",
"415 9 LINE",
"437 12 LINE",
"274 160 OFFCURVE",
"134 326 OFFCURVE",
"-5 510 CURVE",
"23 509 LINE",
"-46 457 LINE",
"-28 495 LINE",
"103 323 OFFCURVE",
"243 155 OFFCURVE",
"412 0 CURVE",
"441 0 LINE",
"441 658 LINE",
"425 658 LINE SMOOTH",
"298 658 OFFCURVE",
"215 530 OFFCURVE",
"215 416 CURVE SMOOTH",
"215 362 OFFCURVE",
"235 351 OFFCURVE",
"249 351 CURVE SMOOTH",
"269 351 OFFCURVE",
"279 370 OFFCURVE",
"279 388 CURVE SMOOTH",
"279 407 OFFCURVE",
"269 426 OFFCURVE",
"250 426 CURVE SMOOTH",
"242 426 OFFCURVE",
"234 423 OFFCURVE",
"227 414 CURVE"
);
},
{
closed = 1;
nodes = (
"606 710 OFFCURVE",
"624 746 OFFCURVE",
"624 785 CURVE SMOOTH",
"624 837 OFFCURVE",
"588 876 OFFCURVE",
"533 876 CURVE SMOOTH",
"464 876 OFFCURVE",
"386 816 OFFCURVE",
"321 816 CURVE SMOOTH",
"281 816 OFFCURVE",
"250 838 OFFCURVE",
"225 902 CURVE",
"264 889 LINE",
"197 849 LINE",
"209 883 LINE",
"236 813 OFFCURVE",
"277 791 OFFCURVE",
"320 791 CURVE SMOOTH",
"390 791 OFFCURVE",
"466 851 OFFCURVE",
"529 851 CURVE SMOOTH",
"577 851 OFFCURVE",
"598 816 OFFCURVE",
"598 781 CURVE SMOOTH",
"598 749 OFFCURVE",
"583 719 OFFCURVE",
"545 693 CURVE",
"545 0 LINE",
"571 0 LINE",
"571 693 LINE",
"564 675 LINE"
);
}
);
width = 623;
},
{
layerId = "A6029D4D-1571-45DB-86AE-EDC9D2308E6F";
paths = (
{
closed = 1;
nodes = (
"616 270 OFFCURVE",
"639 274 OFFCURVE",
"651 282 CURVE",
"651 433 LINE",
"639 425 OFFCURVE",
"616 420 OFFCURVE",
"595 420 CURVE SMOOTH",
"575 420 OFFCURVE",
"551 425 OFFCURVE",
"535 433 CURVE",
"535 282 LINE",
"550 274 OFFCURVE",
"573 270 OFFCURVE",
"594 270 CURVE SMOOTH"
);
},
{
closed = 1;
nodes = (
"323 424 LINE",
"323 490 OFFCURVE",
"363 518 OFFCURVE",
"440 518 CURVE",
"408 571 LINE",
"408 115 LINE",
"457 124 LINE",
"323 223 OFFCURVE",
"185 387 OFFCURVE",
"57 554 CURVE",
"133 529 LINE",
"-46 373 LINE",
"-47 429 LINE",
"83 271 OFFCURVE",
"222 115 OFFCURVE",
"380 0 CURVE",
"555 0 LINE",
"555 658 LINE",
"490 658 LINE SMOOTH",
"299 658 OFFCURVE",
"216 534 OFFCURVE",
"216 436 CURVE SMOOTH",
"216 363 OFFCURVE",
"263 325 OFFCURVE",
"310 325 CURVE SMOOTH",
"362 325 OFFCURVE",
"389 370 OFFCURVE",
"389 415 CURVE SMOOTH",
"389 461 OFFCURVE",
"361 508 OFFCURVE",
"304 508 CURVE SMOOTH",
"286 508 OFFCURVE",
"268 502 OFFCURVE",
"252 490 CURVE"
);
},
{
closed = 1;
nodes = (
"793 668 OFFCURVE",
"820 737 OFFCURVE",
"820 792 CURVE SMOOTH",
"820 871 OFFCURVE",
"767 941 OFFCURVE",
"674 941 CURVE SMOOTH",
"594 941 OFFCURVE",
"491 890 OFFCURVE",
"440 890 CURVE SMOOTH",
"405 890 OFFCURVE",
"381 914 OFFCURVE",
"358 968 CURVE",
"422 967 LINE",
"240 830 LINE",
"249 871 LINE",
"293 759 OFFCURVE",
"354 744 OFFCURVE",
"408 744 CURVE SMOOTH",
"507 744 OFFCURVE",
"580 795 OFFCURVE",
"628 795 CURVE SMOOTH",
"655 795 OFFCURVE",
"669 779 OFFCURVE",
"669 759 CURVE SMOOTH",
"669 738 OFFCURVE",
"654 712 OFFCURVE",
"623 696 CURVE",
"623 0 LINE",
"770 0 LINE",
"770 727 LINE",
"733 629 LINE"
);
}
);
width = 804;
}
);
note = aiorya;
rightMetricsKey = "auLength-oriya";
unicode = 0B10;
},
{
glyphname = "o-oriya";
lastChange = "2019-10-25 11:35:51 +0000";
layers = (
{
anchors = (
{
name = topright;
position = "{528, 658}";
}
);
layerId = "926CF2F4-31F1-4036-BA3C-0F7EE51EF36A";
paths = (
{
closed = 1;
nodes = (
"520 -8 OFFCURVE",
"604 76 OFFCURVE",
"604 179 CURVE SMOOTH",
"604 277 OFFCURVE",
"538 340 OFFCURVE",
"422 340 CURVE",
"363 314 LINE",
"384 320 LINE SMOOTH",
"460 342 OFFCURVE",
"593 384 OFFCURVE",
"593 518 CURVE SMOOTH",
"593 606 OFFCURVE",
"531 666 OFFCURVE",
"435 666 CURVE SMOOTH",
"339 666 OFFCURVE",
"274 606 OFFCURVE",
"274 512 CURVE SMOOTH",
"274 485 OFFCURVE",
"281 455 OFFCURVE",
"294 426 CURVE",
"318 435 LINE",
"307 459 OFFCURVE",
"300 481 OFFCURVE",
"300 511 CURVE SMOOTH",
"300 590 OFFCURVE",
"354 642 OFFCURVE",
"436 642 CURVE SMOOTH",
"514 642 OFFCURVE",
"567 594 OFFCURVE",
"567 517 CURVE SMOOTH",
"567 404 OFFCURVE",
"455 366 OFFCURVE",
"371 341 CURVE SMOOTH",
"315 324 LINE",
"324 297 LINE",
"353 310 OFFCURVE",
"391 316 OFFCURVE",
"422 316 CURVE SMOOTH",
"522 316 OFFCURVE",
"578 261 OFFCURVE",
"578 178 CURVE SMOOTH",
"578 87 OFFCURVE",
"495 16 OFFCURVE",
"362 16 CURVE SMOOTH",
"179 16 OFFCURVE",
"64 159 OFFCURVE",
"64 342 CURVE SMOOTH",
"64 494 OFFCURVE",
"144 635 OFFCURVE",
"244 702 CURVE",
"228 722 LINE",
"117 648 OFFCURVE",
"38 501 OFFCURVE",
"38 339 CURVE SMOOTH",
"38 129 OFFCURVE",
"173 -8 OFFCURVE",
"368 -8 CURVE SMOOTH"
);
}
);
width = 644;
},
{
anchors = (
{
name = topright;
position = "{606, 658}";
}
);
layerId = "639D56B4-59BE-4993-85FD-8F80ECD3B0F6";
paths = (
{
closed = 1;
nodes = (
"653 -8 OFFCURVE",
"768 64 OFFCURVE",
"768 192 CURVE SMOOTH",
"768 297 OFFCURVE",
"690 363 OFFCURVE",
"519 363 CURVE",
"463 274 LINE",
"572 310 LINE SMOOTH",
"634 330 OFFCURVE",
"756 376 OFFCURVE",
"756 497 CURVE SMOOTH",
"756 590 OFFCURVE",
"684 666 OFFCURVE",
"531 666 CURVE SMOOTH",
"391 666 OFFCURVE",
"299 603 OFFCURVE",
"299 499 CURVE SMOOTH",
"299 466 OFFCURVE",
"308 429 OFFCURVE",
"328 389 CURVE",
"485 439 LINE",
"478 452 OFFCURVE",
"474 464 OFFCURVE",
"474 474 CURVE SMOOTH",
"474 499 OFFCURVE",
"494 516 OFFCURVE",
"528 516 CURVE SMOOTH",
"564 516 OFFCURVE",
"582 500 OFFCURVE",
"582 475 CURVE SMOOTH",
"582 435 OFFCURVE",
"536 416 OFFCURVE",
"501 404 CURVE SMOOTH",
"340 348 LINE",
"404 219 LINE",
"443 235 OFFCURVE",
"481 243 OFFCURVE",
"516 243 CURVE SMOOTH",
"562 243 OFFCURVE",
"594 230 OFFCURVE",
"594 204 CURVE SMOOTH",
"594 172 OFFCURVE",
"546 152 OFFCURVE",
"462 152 CURVE SMOOTH",
"297 152 OFFCURVE",
"196 230 OFFCURVE",
"196 363 CURVE SMOOTH",
"196 474 OFFCURVE",
"260 590 OFFCURVE",
"338 658 CURVE",
"217 767 LINE",
"90 656 OFFCURVE",
"22 520 OFFCURVE",
"22 366 CURVE SMOOTH",
"22 131 OFFCURVE",
"184 -8 OFFCURVE",
"457 -8 CURVE SMOOTH"
);
}
);
width = 798;
},
{
anchors = (
{
name = topright;
position = "{401, 666}";
}
);
layerId = "EAF3E1E9-0001-42EF-B2A4-765526B8C83B";
paths = (
{
closed = 1;
nodes = (
"387 -8 OFFCURVE",
"454 76 OFFCURVE",
"454 179 CURVE SMOOTH",
"454 269 OFFCURVE",
"404 338 OFFCURVE",
"312 338 CURVE",
"267 314 LINE",
"282 319 LINE SMOOTH",
"417 364 OFFCURVE",
"446 444 OFFCURVE",
"446 516 CURVE SMOOTH",
"446 607 OFFCURVE",
"400 666 OFFCURVE",
"325 666 CURVE SMOOTH",
"245 666 OFFCURVE",
"202 597 OFFCURVE",
"202 514 CURVE SMOOTH",
"202 486 OFFCURVE",
"207 455 OFFCURVE",
"218 426 CURVE",
"242 435 LINE",
"233 462 OFFCURVE",
"228 489 OFFCURVE",
"228 516 CURVE SMOOTH",
"228 584 OFFCURVE",
"261 641 OFFCURVE",
"326 641 CURVE SMOOTH",
"386 641 OFFCURVE",
"420 593 OFFCURVE",
"420 518 CURVE SMOOTH",
"420 391 OFFCURVE",
"324 360 OFFCURVE",
"275 341 CURVE SMOOTH",
"233 325 LINE",
"239 298 LINE",
"261 308 OFFCURVE",
"290 316 OFFCURVE",
"314 316 CURVE SMOOTH",
"382 316 OFFCURVE",
"428 257 OFFCURVE",
"428 178 CURVE SMOOTH",
"428 91 OFFCURVE",
"368 17 OFFCURVE",
"271 17 CURVE SMOOTH",
"127 17 OFFCURVE",
"54 178 OFFCURVE",
"54 350 CURVE SMOOTH",
"54 486 OFFCURVE",
"100 630 OFFCURVE",
"192 706 CURVE",
"176 726 LINE",
"78 642 OFFCURVE",
"28 490 OFFCURVE",
"28 347 CURVE SMOOTH",
"28 163 OFFCURVE",
"108 -8 OFFCURVE",
"272 -8 CURVE SMOOTH"
);
}
);
width = 484;
},
{
anchors = (
{
name = topright;
position = "{452, 658}";
}
);
layerId = "A6029D4D-1571-45DB-86AE-EDC9D2308E6F";
paths = (
{
closed = 1;
nodes = (
"519 -8 OFFCURVE",
"586 93 OFFCURVE",
"586 184 CURVE SMOOTH",
"586 277 OFFCURVE",
"516 362 OFFCURVE",
"383 362 CURVE",
"340 273 LINE",
"379 290 LINE SMOOTH",
"450 321 OFFCURVE",
"582 378 OFFCURVE",
"582 506 CURVE SMOOTH",
"582 611 OFFCURVE",
"492 666 OFFCURVE",
"402 666 CURVE SMOOTH",
"311 666 OFFCURVE",
"220 610 OFFCURVE",
"220 497 CURVE SMOOTH",
"220 465 OFFCURVE",
"227 432 OFFCURVE",
"242 399 CURVE",
"374 449 LINE",
"368 461 OFFCURVE",
"365 476 OFFCURVE",
"365 488 CURVE SMOOTH",
"365 516 OFFCURVE",
"382 530 OFFCURVE",
"399 530 CURVE SMOOTH",
"416 530 OFFCURVE",
"432 518 OFFCURVE",
"432 489 CURVE SMOOTH",
"432 456 OFFCURVE",
"410 425 OFFCURVE",
"362 403 CURVE SMOOTH",
"253 353 LINE",
"297 236 LINE",
"327 252 OFFCURVE",
"357 260 OFFCURVE",
"378 260 CURVE SMOOTH",
"418 260 OFFCURVE",
"434 230 OFFCURVE",
"434 201 CURVE SMOOTH",
"434 165 OFFCURVE",
"408 138 OFFCURVE",
"345 138 CURVE SMOOTH",
"219 138 OFFCURVE",
"168 248 OFFCURVE",
"168 374 CURVE SMOOTH",
"168 484 OFFCURVE",
"209 604 OFFCURVE",
"271 677 CURVE",
"164 767 LINE",
"66 650 OFFCURVE",
"16 499 OFFCURVE",
"16 361 CURVE SMOOTH",
"16 163 OFFCURVE",
"120 -8 OFFCURVE",
"346 -8 CURVE SMOOTH"
);
}
);
width = 608;
}
);
note = oorya;
unicode = 0B13;
},
{
glyphname = "au-oriya";
lastChange = "2019-10-25 11:35:51 +0000";
layers = (
{
layerId = "926CF2F4-31F1-4036-BA3C-0F7EE51EF36A";
paths = (
{
closed = 1;
nodes = (
"691 240 OFFCURVE",
"716 246 OFFCURVE",
"743 260 CURVE",
"743 286 LINE",
"716 270 OFFCURVE",
"692 264 OFFCURVE",
"654 264 CURVE SMOOTH",
"601 264 OFFCURVE",
"552 290 OFFCURVE",
"520 316 CURVE",
"512 307 LINE",
"548 270 LINE",
"574 258 OFFCURVE",
"611 240 OFFCURVE",
"654 240 CURVE SMOOTH"
);
},
{
closed = 1;
nodes = (
"520 -8 OFFCURVE",
"604 76 OFFCURVE",
"604 179 CURVE SMOOTH",
"604 277 OFFCURVE",
"538 340 OFFCURVE",
"422 340 CURVE",
"363 314 LINE",
"384 320 LINE SMOOTH",
"460 342 OFFCURVE",
"593 384 OFFCURVE",
"593 518 CURVE SMOOTH",
"593 606 OFFCURVE",
"531 666 OFFCURVE",
"435 666 CURVE SMOOTH",
"339 666 OFFCURVE",
"274 606 OFFCURVE",
"274 512 CURVE SMOOTH",
"274 485 OFFCURVE",
"281 455 OFFCURVE",
"294 426 CURVE",
"318 435 LINE",
"307 459 OFFCURVE",
"300 481 OFFCURVE",
"300 511 CURVE SMOOTH",
"300 590 OFFCURVE",
"354 642 OFFCURVE",
"436 642 CURVE SMOOTH",
"514 642 OFFCURVE",
"567 594 OFFCURVE",
"567 517 CURVE SMOOTH",
"567 404 OFFCURVE",
"455 366 OFFCURVE",
"371 341 CURVE SMOOTH",
"315 324 LINE",
"324 297 LINE",
"353 310 OFFCURVE",
"391 316 OFFCURVE",
"422 316 CURVE SMOOTH",
"522 316 OFFCURVE",
"578 261 OFFCURVE",
"578 178 CURVE SMOOTH",
"578 87 OFFCURVE",
"495 16 OFFCURVE",
"362 16 CURVE SMOOTH",
"179 16 OFFCURVE",
"64 159 OFFCURVE",
"64 342 CURVE SMOOTH",
"64 494 OFFCURVE",
"144 635 OFFCURVE",
"244 702 CURVE",
"228 722 LINE",
"117 648 OFFCURVE",
"38 501 OFFCURVE",
"38 339 CURVE SMOOTH",
"38 129 OFFCURVE",
"173 -8 OFFCURVE",
"368 -8 CURVE SMOOTH"
);
},
{
closed = 1;
nodes = (
"804 699 OFFCURVE",
"832 734 OFFCURVE",
"832 781 CURVE SMOOTH",
"832 840 OFFCURVE",
"783 876 OFFCURVE",
"714 876 CURVE SMOOTH",
"623 876 OFFCURVE",
"516 816 OFFCURVE",
"441 816 CURVE SMOOTH",
"388 816 OFFCURVE",
"341 841 OFFCURVE",
"321 912 CURVE",
"377 897 LINE",
"279 837 LINE",
"302 887 LINE",
"323 815 OFFCURVE",
"383 792 OFFCURVE",
"440 792 CURVE SMOOTH",
"532 792 OFFCURVE",
"635 852 OFFCURVE",
"711 852 CURVE SMOOTH",
"769 852 OFFCURVE",
"806 826 OFFCURVE",
"806 778 CURVE SMOOTH",
"806 739 OFFCURVE",
"781 710 OFFCURVE",
"735 693 CURVE",
"735 0 LINE",
"761 0 LINE",
"761 693 LINE",
"752 677 LINE"
);
}
);
width = 831;
},
{
layerId = "639D56B4-59BE-4993-85FD-8F80ECD3B0F6";
paths = (
{
closed = 1;
nodes = (
"817 172 OFFCURVE",
"837 186 OFFCURVE",
"854 198 CURVE",
"854 349 LINE",
"837 337 OFFCURVE",
"803 320 OFFCURVE",
"751 322 CURVE SMOOTH",
"687 325 OFFCURVE",
"663 346 OFFCURVE",
"645 354 CURVE",
"621 347 LINE",
"645 203 LINE",
"662 195 OFFCURVE",
"685 172 OFFCURVE",
"751 172 CURVE SMOOTH"
);
},
{
closed = 1;
nodes = (
"653 -8 OFFCURVE",
"768 64 OFFCURVE",
"768 192 CURVE SMOOTH",
"768 297 OFFCURVE",
"690 363 OFFCURVE",
"519 363 CURVE",
"463 274 LINE",
"572 310 LINE SMOOTH",
"634 330 OFFCURVE",
"756 376 OFFCURVE",
"756 497 CURVE SMOOTH",
"756 590 OFFCURVE",
"684 666 OFFCURVE",
"531 666 CURVE SMOOTH",
"391 666 OFFCURVE",
"299 603 OFFCURVE",
"299 499 CURVE SMOOTH",
"299 466 OFFCURVE",
"308 429 OFFCURVE",
"328 389 CURVE",
"485 439 LINE",
"478 452 OFFCURVE",
"474 464 OFFCURVE",
"474 474 CURVE SMOOTH",
"474 499 OFFCURVE",
"494 516 OFFCURVE",
"528 516 CURVE SMOOTH",
"564 516 OFFCURVE",
"582 500 OFFCURVE",
"582 475 CURVE SMOOTH",
"582 435 OFFCURVE",
"536 416 OFFCURVE",
"501 404 CURVE SMOOTH",
"340 348 LINE",
"404 219 LINE",
"443 235 OFFCURVE",
"481 243 OFFCURVE",
"516 243 CURVE SMOOTH",
"562 243 OFFCURVE",
"594 230 OFFCURVE",
"594 204 CURVE SMOOTH",
"594 172 OFFCURVE",
"546 152 OFFCURVE",
"462 152 CURVE SMOOTH",
"297 152 OFFCURVE",
"196 230 OFFCURVE",
"196 363 CURVE SMOOTH",
"196 474 OFFCURVE",
"260 590 OFFCURVE",
"338 658 CURVE",
"217 767 LINE",
"90 656 OFFCURVE",
"22 520 OFFCURVE",
"22 366 CURVE SMOOTH",
"22 131 OFFCURVE",
"184 -8 OFFCURVE",
"457 -8 CURVE SMOOTH"
);
},
{
closed = 1;
nodes = (
"1021 680 OFFCURVE",
"1059 735 OFFCURVE",
"1059 792 CURVE SMOOTH",
"1059 874 OFFCURVE",
"1001 941 OFFCURVE",
"891 941 CURVE SMOOTH",
"792 941 OFFCURVE",
"667 884 OFFCURVE",
"606 884 CURVE SMOOTH",
"574 884 OFFCURVE",
"544 910 OFFCURVE",
"520 976 CURVE",
"590 961 LINE",
"380 831 LINE",
"391 872 LINE",
"424 749 OFFCURVE",
"510 724 OFFCURVE",
"576 724 CURVE SMOOTH",
"684 724 OFFCURVE",
"785 781 OFFCURVE",
"843 781 CURVE SMOOTH",
"869 781 OFFCURVE",
"885 769 OFFCURVE",
"885 753 CURVE SMOOTH",
"885 736 OFFCURVE",
"865 709 OFFCURVE",
"828 696 CURVE",
"828 0 LINE",
"998 0 LINE",
"998 755 LINE",
"942 646 LINE"
);
}
);
width = 1044;
},
{
layerId = "EAF3E1E9-0001-42EF-B2A4-765526B8C83B";
paths = (
{
closed = 1;
nodes = (
"515 241 OFFCURVE",
"537 246 OFFCURVE",
"560 254 CURVE",
"560 279 LINE",
"537 270 OFFCURVE",
"515 265 OFFCURVE",
"492 265 CURVE SMOOTH",
"467 265 OFFCURVE",
"442 271 OFFCURVE",
"415 283 CURVE",
"409 279 LINE",
"425 254 LINE",
"448 246 OFFCURVE",
"470 241 OFFCURVE",
"492 241 CURVE SMOOTH"
);
},
{
closed = 1;
nodes = (
"387 -8 OFFCURVE",
"454 76 OFFCURVE",
"454 179 CURVE SMOOTH",
"454 269 OFFCURVE",
"404 338 OFFCURVE",
"312 338 CURVE",
"267 314 LINE",
"282 319 LINE SMOOTH",
"417 364 OFFCURVE",
"446 444 OFFCURVE",
"446 516 CURVE SMOOTH",
"446 607 OFFCURVE",
"400 666 OFFCURVE",
"325 666 CURVE SMOOTH",
"245 666 OFFCURVE",
"202 597 OFFCURVE",
"202 514 CURVE SMOOTH",
"202 486 OFFCURVE",
"207 455 OFFCURVE",
"218 426 CURVE",
"242 435 LINE",
"233 462 OFFCURVE",
"228 489 OFFCURVE",
"228 516 CURVE SMOOTH",
"228 584 OFFCURVE",
"261 641 OFFCURVE",
"326 641 CURVE SMOOTH",
"386 641 OFFCURVE",
"420 593 OFFCURVE",
"420 518 CURVE SMOOTH",
"420 391 OFFCURVE",
"324 360 OFFCURVE",
"275 341 CURVE SMOOTH",
"233 325 LINE",
"239 298 LINE",
"261 308 OFFCURVE",
"290 316 OFFCURVE",
"314 316 CURVE SMOOTH",
"382 316 OFFCURVE",
"428 257 OFFCURVE",
"428 178 CURVE SMOOTH",
"428 91 OFFCURVE",
"368 17 OFFCURVE",
"271 17 CURVE SMOOTH",
"127 17 OFFCURVE",
"54 178 OFFCURVE",
"54 350 CURVE SMOOTH",
"54 486 OFFCURVE",
"100 630 OFFCURVE",
"192 706 CURVE",
"176 726 LINE",
"78 642 OFFCURVE",
"28 490 OFFCURVE",
"28 347 CURVE SMOOTH",
"28 163 OFFCURVE",
"108 -8 OFFCURVE",
"272 -8 CURVE SMOOTH"
);
},
{
closed = 1;
nodes = (
"613 709 OFFCURVE",
"631 745 OFFCURVE",
"631 784 CURVE SMOOTH",
"631 836 OFFCURVE",
"595 875 OFFCURVE",
"540 875 CURVE SMOOTH",
"471 875 OFFCURVE",
"393 815 OFFCURVE",
"328 815 CURVE SMOOTH",
"288 815 OFFCURVE",
"257 837 OFFCURVE",
"232 901 CURVE",
"271 888 LINE",
"204 848 LINE",
"216 882 LINE",
"243 812 OFFCURVE",
"284 790 OFFCURVE",
"327 790 CURVE SMOOTH",
"397 790 OFFCURVE",
"473 850 OFFCURVE",
"536 850 CURVE SMOOTH",
"584 850 OFFCURVE",
"605 815 OFFCURVE",
"605 780 CURVE SMOOTH",
"605 748 OFFCURVE",
"590 718 OFFCURVE",
"552 692 CURVE",
"552 -1 LINE",
"578 -1 LINE",
"578 692 LINE",
"571 674 LINE"
);
}
);
width = 630;
},
{
layerId = "A6029D4D-1571-45DB-86AE-EDC9D2308E6F";
paths = (
{
closed = 1;
nodes = (
"621 172 OFFCURVE",
"641 186 OFFCURVE",
"658 198 CURVE",
"658 349 LINE",
"641 337 OFFCURVE",
"607 320 OFFCURVE",
"562 322 CURVE SMOOTH",
"504 324 OFFCURVE",
"482 346 OFFCURVE",
"466 354 CURVE",
"433 334 LINE",
"466 203 LINE",
"481 195 OFFCURVE",
"502 172 OFFCURVE",
"562 172 CURVE SMOOTH"
);
},
{
closed = 1;
nodes = (
"519 -8 OFFCURVE",
"586 93 OFFCURVE",
"586 184 CURVE SMOOTH",
"586 277 OFFCURVE",
"516 362 OFFCURVE",
"383 362 CURVE",
"340 273 LINE",
"379 290 LINE SMOOTH",
"450 321 OFFCURVE",
"582 378 OFFCURVE",
"582 506 CURVE SMOOTH",
"582 611 OFFCURVE",
"492 666 OFFCURVE",
"402 666 CURVE SMOOTH",
"311 666 OFFCURVE",
"220 610 OFFCURVE",
"220 497 CURVE SMOOTH",
"220 465 OFFCURVE",
"227 432 OFFCURVE",
"242 399 CURVE",
"374 449 LINE",
"368 461 OFFCURVE",
"365 476 OFFCURVE",
"365 488 CURVE SMOOTH",
"365 516 OFFCURVE",
"382 530 OFFCURVE",
"399 530 CURVE SMOOTH",
"416 530 OFFCURVE",
"432 518 OFFCURVE",
"432 489 CURVE SMOOTH",
"432 456 OFFCURVE",
"410 425 OFFCURVE",
"362 403 CURVE SMOOTH",
"253 353 LINE",
"297 236 LINE",
"327 252 OFFCURVE",
"357 260 OFFCURVE",
"378 260 CURVE SMOOTH",
"418 260 OFFCURVE",
"434 230 OFFCURVE",
"434 201 CURVE SMOOTH",
"434 165 OFFCURVE",
"408 138 OFFCURVE",
"345 138 CURVE SMOOTH",
"219 138 OFFCURVE",
"168 248 OFFCURVE",
"168 374 CURVE SMOOTH",
"168 484 OFFCURVE",
"209 604 OFFCURVE",
"271 677 CURVE",
"164 767 LINE",
"66 650 OFFCURVE",
"16 499 OFFCURVE",
"16 361 CURVE SMOOTH",
"16 163 OFFCURVE",
"120 -8 OFFCURVE",
"346 -8 CURVE SMOOTH"
);
},
{
closed = 1;
nodes = (
"817 668 OFFCURVE",
"844 737 OFFCURVE",
"844 792 CURVE SMOOTH",
"844 871 OFFCURVE",
"791 941 OFFCURVE",
"698 941 CURVE SMOOTH",
"618 941 OFFCURVE",
"515 890 OFFCURVE",
"464 890 CURVE SMOOTH",
"429 890 OFFCURVE",
"405 914 OFFCURVE",
"382 968 CURVE",
"446 967 LINE",
"264 830 LINE",
"273 871 LINE",
"317 759 OFFCURVE",
"378 744 OFFCURVE",
"432 744 CURVE SMOOTH",
"531 744 OFFCURVE",
"604 795 OFFCURVE",
"652 795 CURVE SMOOTH",
"679 795 OFFCURVE",
"693 779 OFFCURVE",
"693 759 CURVE SMOOTH",
"693 738 OFFCURVE",
"678 712 OFFCURVE",
"647 696 CURVE",
"647 0 LINE",
"794 0 LINE",
"794 727 LINE",
"757 629 LINE"
);
}
);
width = 828;
}
);
leftMetricsKey = "o-oriya";
note = auorya;
rightMetricsKey = "auLength-oriya";
unicode = 0B14;
},
{
glyphname = "ka-oriya";
lastChange = "2019-10-25 11:35:51 +0000";
layers = (
{
anchors = (
{
name = bottom;
position = "{517, 0}";
},
{
name = bottom_ra;
position = "{543, 0}";
},
{
name = bottom_ta;
position = "{543, 10}";
},
{
name = top;
position = "{350, 658}";
},
{
name = topright;
position = "{614, 658}";
}
);
layerId = "926CF2F4-31F1-4036-BA3C-0F7EE51EF36A";
paths = (
{
closed = 1;
nodes = (
"147 244 LINE",
"91 299 OFFCURVE",
"64 353 OFFCURVE",
"64 417 CURVE SMOOTH",
"64 551 OFFCURVE",
"184 642 OFFCURVE",
"349 642 CURVE SMOOTH",
"503 642 OFFCURVE",
"653 562 OFFCURVE",
"653 403 CURVE SMOOTH",
"653 339 OFFCURVE",
"629 286 OFFCURVE",
"590 244 CURVE",
"586 257 LINE",
"624 227 LINE",
"610 228 LINE",
"653 274 OFFCURVE",
"679 333 OFFCURVE",
"679 403 CURVE SMOOTH",
"679 578 OFFCURVE",
"517 666 OFFCURVE",
"350 666 CURVE SMOOTH",
"168 666 OFFCURVE",
"38 562 OFFCURVE",
"38 417 CURVE SMOOTH",
"38 343 OFFCURVE",
"71 279 OFFCURVE",
"140 218 CURVE"
);
},
{
closed = 1;
nodes = (
"308 84 OFFCURVE",
"353 140 OFFCURVE",
"353 216 CURVE SMOOTH",
"353 290 OFFCURVE",
"309 346 OFFCURVE",
"240 346 CURVE SMOOTH",
"170 346 OFFCURVE",
"122 290 OFFCURVE",
"122 216 CURVE SMOOTH",
"122 140 OFFCURVE",
"169 84 OFFCURVE",
"239 84 CURVE SMOOTH"
);
},
{
closed = 1;
nodes = (
"184 108 OFFCURVE",
"148 154 OFFCURVE",
"148 215 CURVE SMOOTH",
"148 275 OFFCURVE",
"184 322 OFFCURVE",
"240 322 CURVE SMOOTH",
"293 322 OFFCURVE",
"330 275 OFFCURVE",
"330 216 CURVE SMOOTH",
"330 155 OFFCURVE",
"294 108 OFFCURVE",
"239 108 CURVE SMOOTH"
);
},
{
closed = 1;
nodes = (
"356 0 LINE",
"356 219 LINE SMOOTH",
"356 284 OFFCURVE",
"385 323 OFFCURVE",
"437 323 CURVE SMOOTH",
"487 323 OFFCURVE",
"517 285 OFFCURVE",
"517 219 CURVE SMOOTH",
"517 0 LINE",
"543 0 LINE",
"543 220 LINE SMOOTH",
"543 301 OFFCURVE",
"505 347 OFFCURVE",
"438 347 CURVE SMOOTH",
"371 347 OFFCURVE",
"334 301 OFFCURVE",
"334 220 CURVE",
"330 161 LINE",
"330 0 LINE"
);
}
);
width = 717;
},
{
anchors = (
{
name = bottom;
position = "{459, 0}";
},
{
name = bottom_ra;
position = "{629, 0}";
},
{
name = bottom_ta;
position = "{629, 10}";
},
{
name = top;
position = "{398, 658}";
},
{
name = topright;
position = "{643, 658}";
}
);
layerId = "639D56B4-59BE-4993-85FD-8F80ECD3B0F6";
paths = (
{
closed = 1;
nodes = (
"233 282 LINE",
"204 302 OFFCURVE",
"187 344 OFFCURVE",
"187 379 CURVE SMOOTH",
"187 464 OFFCURVE",
"287 506 OFFCURVE",
"399 506 CURVE SMOOTH",
"506 506 OFFCURVE",
"618 465 OFFCURVE",
"618 382 CURVE SMOOTH",
"618 348 OFFCURVE",
"602 314 OFFCURVE",
"578 288 CURVE",
"539 360 LINE",
"843 253 LINE",
"741 232 LINE",
"776 275 OFFCURVE",
"793 324 OFFCURVE",
"793 380 CURVE SMOOTH",
"793 570 OFFCURVE",
"594 666 OFFCURVE",
"398 666 CURVE SMOOTH",
"205 666 OFFCURVE",
"22 573 OFFCURVE",
"22 399 CURVE SMOOTH",
"22 313 OFFCURVE",
"67 233 OFFCURVE",
"173 170 CURVE"
);
},
{
closed = 1;
nodes = (
"350 56 OFFCURVE",
"409 117 OFFCURVE",
"409 213 CURVE SMOOTH",
"409 310 OFFCURVE",
"351 370 OFFCURVE",
"255 370 CURVE SMOOTH",
"157 370 OFFCURVE",
"101 307 OFFCURVE",
"101 211 CURVE SMOOTH",
"101 115 OFFCURVE",
"156 56 OFFCURVE",
"253 56 CURVE SMOOTH"
);
},
{
closed = 1;
nodes = (
"235 174 OFFCURVE",
"223 192 OFFCURVE",
"223 213 CURVE SMOOTH",
"223 234 OFFCURVE",
"235 252 OFFCURVE",
"256 252 CURVE SMOOTH",
"278 252 OFFCURVE",
"289 234 OFFCURVE",
"289 213 CURVE SMOOTH",
"289 192 OFFCURVE",
"278 174 OFFCURVE",
"256 174 CURVE SMOOTH"
);
},
{
closed = 1;
nodes = (
"429 0 LINE",
"429 214 LINE SMOOTH",
"429 236 OFFCURVE",
"435 242 OFFCURVE",
"444 242 CURVE SMOOTH",
"454 242 OFFCURVE",
"459 236 OFFCURVE",
"459 214 CURVE SMOOTH",
"459 0 LINE",
"629 0 LINE",
"629 226 LINE SMOOTH",
"629 253 OFFCURVE",
"629 370 OFFCURVE",
"485 370 CURVE SMOOTH",
"384 370 OFFCURVE",
"338 313 OFFCURVE",
"339 226 CURVE",
"299 125 LINE",
"279 0 LINE"
);
}
);
width = 815;
},
{
anchors = (
{
name = bottom;
position = "{388, 0}";
},
{
name = bottom_ra;
position = "{414, 0}";
},
{
name = bottom_ta;
position = "{414, 10}";
},
{
name = top;
position = "{274, 658}";
},
{
name = topright;
position = "{471, 658}";
}
);
layerId = "EAF3E1E9-0001-42EF-B2A4-765526B8C83B";
paths = (
{
closed = 1;
nodes = (
"103 265 LINE",
"73 306 OFFCURVE",
"54 357 OFFCURVE",
"54 413 CURVE SMOOTH",
"54 539 OFFCURVE",
"148 641 OFFCURVE",
"272 641 CURVE SMOOTH",
"399 641 OFFCURVE",
"490 541 OFFCURVE",
"490 406 CURVE SMOOTH",
"490 348 OFFCURVE",
"474 286 OFFCURVE",
"440 242 CURVE",
"435 255 LINE",
"473 226 LINE",
"460 227 LINE",
"495 273 OFFCURVE",
"516 338 OFFCURVE",
"516 407 CURVE SMOOTH",
"516 561 OFFCURVE",
"412 666 OFFCURVE",
"274 666 CURVE SMOOTH",
"131 666 OFFCURVE",
"28 554 OFFCURVE",
"28 414 CURVE SMOOTH",
"28 343 OFFCURVE",
"55 275 OFFCURVE",
"97 229 CURVE"
);
},
{
closed = 1;
nodes = (
"239 84 OFFCURVE",
"273 133 OFFCURVE",
"273 216 CURVE SMOOTH",
"273 298 OFFCURVE",
"239 346 OFFCURVE",
"184 346 CURVE SMOOTH",
"128 346 OFFCURVE",
"93 297 OFFCURVE",
"93 215 CURVE SMOOTH",
"93 133 OFFCURVE",
"128 84 OFFCURVE",
"184 84 CURVE SMOOTH"
);
},
{
closed = 1;
nodes = (
"145 109 OFFCURVE",
"119 148 OFFCURVE",
"119 214 CURVE SMOOTH",
"119 281 OFFCURVE",
"144 321 OFFCURVE",
"184 321 CURVE SMOOTH",
"224 321 OFFCURVE",
"249 282 OFFCURVE",
"249 215 CURVE SMOOTH",
"249 148 OFFCURVE",
"224 109 OFFCURVE",
"185 109 CURVE SMOOTH"
);
},
{
closed = 1;
nodes = (
"275 0 LINE",
"275 226 LINE SMOOTH",
"275 288 OFFCURVE",
"294 321 OFFCURVE",
"331 321 CURVE SMOOTH",
"368 321 OFFCURVE",
"388 288 OFFCURVE",
"388 226 CURVE SMOOTH",
"388 0 LINE",
"414 0 LINE",
"414 226 LINE SMOOTH",
"414 305 OFFCURVE",
"387 346 OFFCURVE",
"334 346 CURVE SMOOTH",
"279 346 OFFCURVE",
"251 305 OFFCURVE",
"251 226 CURVE",
"249 161 LINE",
"249 0 LINE"
);
}
);
width = 544;
},
{
anchors = (
{
name = bottom;
position = "{386, 0}";
},
{
name = bottom_ra;
position = "{533, 0}";
},
{
name = bottom_ta;
position = "{533, 10}";
},
{
name = top;
position = "{338, 658}";
},
{
name = topright;
position = "{542, 658}";
}
);
guideLines = (
{
position = "{391, 225}";
}
);
layerId = "A6029D4D-1571-45DB-86AE-EDC9D2308E6F";
paths = (
{
closed = 1;
nodes = (
"199 284 LINE",
"174 315 OFFCURVE",
"163 347 OFFCURVE",
"163 380 CURVE SMOOTH",
"163 471 OFFCURVE",
"250 520 OFFCURVE",
"340 520 CURVE SMOOTH",
"430 520 OFFCURVE",
"520 470 OFFCURVE",
"520 375 CURVE SMOOTH",
"520 343 OFFCURVE",
"510 312 OFFCURVE",
"494 284 CURVE",
"454 349 LINE",
"704 269 LINE",
"641 243 LINE",
"660 290 OFFCURVE",
"672 328 OFFCURVE",
"672 378 CURVE SMOOTH",
"672 569 OFFCURVE",
"503 666 OFFCURVE",
"337 666 CURVE SMOOTH",
"175 666 OFFCURVE",
"16 573 OFFCURVE",
"16 400 CURVE SMOOTH",
"16 316 OFFCURVE",
"54 240 OFFCURVE",
"140 179 CURVE"
);
},
{
closed = 1;
nodes = (
"291 56 OFFCURVE",
"337 117 OFFCURVE",
"337 213 CURVE SMOOTH",
"337 310 OFFCURVE",
"291 370 OFFCURVE",
"213 370 CURVE SMOOTH",
"133 370 OFFCURVE",
"86 307 OFFCURVE",
"86 211 CURVE SMOOTH",
"86 116 OFFCURVE",
"132 56 OFFCURVE",
"211 56 CURVE SMOOTH"
);
},
{
closed = 1;
nodes = (
"201 167 OFFCURVE",
"194 180 OFFCURVE",
"194 213 CURVE SMOOTH",
"194 247 OFFCURVE",
"201 260 OFFCURVE",
"216 260 CURVE SMOOTH",
"231 260 OFFCURVE",
"238 247 OFFCURVE",
"238 213 CURVE SMOOTH",
"238 180 OFFCURVE",
"231 167 OFFCURVE",
"216 167 CURVE SMOOTH"
);
},
{
closed = 1;
nodes = (
"360 0 LINE",
"360 217 LINE SMOOTH",
"360 235 OFFCURVE",
"362 242 OFFCURVE",
"373 242 CURVE SMOOTH",
"384 242 OFFCURVE",
"386 235 OFFCURVE",
"386 217 CURVE SMOOTH",
"386 0 LINE",
"533 0 LINE",
"533 226 LINE SMOOTH",
"533 321 OFFCURVE",
"479 370 OFFCURVE",
"409 370 CURVE SMOOTH",
"335 370 OFFCURVE",
"270 315 OFFCURVE",
"270 205 CURVE",
"233 125 LINE",
"222 0 LINE"
);
}
);
width = 688;
},
{
anchors = (
{
name = bottom;
position = "{459, 0}";
},
{
name = bottom_ra;
position = "{629, 0}";
},
{
name = bottom_ta;
position = "{629, 10}";
},
{
name = top;
position = "{398, 658}";
},
{
name = topright;
position = "{643, 658}";
}
);
associatedMasterId = "639D56B4-59BE-4993-85FD-8F80ECD3B0F6";
background = {
paths = (
{
closed = 1;
nodes = (
"233 282 LINE",
"204 302 OFFCURVE",
"187 344 OFFCURVE",
"187 379 CURVE SMOOTH",
"187 464 OFFCURVE",
"287 506 OFFCURVE",
"399 506 CURVE SMOOTH",
"506 506 OFFCURVE",
"618 465 OFFCURVE",
"618 382 CURVE SMOOTH",
"618 365 OFFCURVE",
"614 348 OFFCURVE",
"607 332 CURVE",
"769 275 LINE",
"785 307 OFFCURVE",
"793 342 OFFCURVE",
"793 380 CURVE SMOOTH",
"793 570 OFFCURVE",
"594 666 OFFCURVE",
"398 666 CURVE SMOOTH",
"205 666 OFFCURVE",
"22 573 OFFCURVE",
"22 399 CURVE SMOOTH",
"22 313 OFFCURVE",
"67 233 OFFCURVE",
"173 170 CURVE"
);
},
{
closed = 1;
nodes = (
"350 56 OFFCURVE",
"409 117 OFFCURVE",
"409 213 CURVE SMOOTH",
"409 310 OFFCURVE",
"351 370 OFFCURVE",
"255 370 CURVE SMOOTH",
"157 370 OFFCURVE",
"101 307 OFFCURVE",
"101 211 CURVE SMOOTH",
"101 115 OFFCURVE",
"156 56 OFFCURVE",
"253 56 CURVE SMOOTH"
);
},
{
closed = 1;
nodes = (
"235 174 OFFCURVE",
"223 192 OFFCURVE",
"223 213 CURVE SMOOTH",
"223 234 OFFCURVE",
"235 252 OFFCURVE",
"256 252 CURVE SMOOTH",
"278 252 OFFCURVE",
"289 234 OFFCURVE",
"289 213 CURVE SMOOTH",
"289 192 OFFCURVE",
"278 174 OFFCURVE",
"256 174 CURVE SMOOTH"
);
},
{
closed = 1;
nodes = (
"429 0 LINE",
"429 214 LINE SMOOTH",
"429 236 OFFCURVE",
"435 242 OFFCURVE",
"444 242 CURVE SMOOTH",
"454 242 OFFCURVE",
"459 236 OFFCURVE",
"459 214 CURVE SMOOTH",
"459 0 LINE",
"629 0 LINE",
"629 226 LINE SMOOTH",
"629 253 OFFCURVE",
"629 370 OFFCURVE",
"485 370 CURVE SMOOTH",
"384 370 OFFCURVE",
"338 313 OFFCURVE",
"339 226 CURVE",
"299 125 LINE",
"279 0 LINE"
);
}
);
};
layerId = "4ED2E369-9181-489D-947E-E880A21D76EF";
name = "Black ]141]";
paths = (
{
closed = 1;
nodes = (
"233 282 LINE",
"204 302 OFFCURVE",
"187 344 OFFCURVE",
"187 379 CURVE SMOOTH",
"187 464 OFFCURVE",
"287 506 OFFCURVE",
"399 506 CURVE SMOOTH",
"506 506 OFFCURVE",
"618 465 OFFCURVE",
"618 382 CURVE SMOOTH",
"618 348 OFFCURVE",
"602 314 OFFCURVE",
"578 288 CURVE",
"539 360 LINE",
"843 253 LINE",
"741 232 LINE",
"776 275 OFFCURVE",
"793 324 OFFCURVE",
"793 380 CURVE SMOOTH",
"793 570 OFFCURVE",
"594 666 OFFCURVE",
"398 666 CURVE SMOOTH",
"205 666 OFFCURVE",
"22 573 OFFCURVE",
"22 399 CURVE SMOOTH",
"22 313 OFFCURVE",
"67 233 OFFCURVE",
"173 170 CURVE"
);
},
{
closed = 1;
nodes = (
"350 56 OFFCURVE",
"409 117 OFFCURVE",
"409 213 CURVE SMOOTH",
"409 310 OFFCURVE",
"351 370 OFFCURVE",
"255 370 CURVE SMOOTH",
"157 370 OFFCURVE",
"101 308 OFFCURVE",
"101 208 CURVE SMOOTH",
"101 115 OFFCURVE",
"156 56 OFFCURVE",
"253 56 CURVE SMOOTH"
);
},
{
closed = 1;
nodes = (
"239 184 OFFCURVE",
"231 197 OFFCURVE",
"231 213 CURVE SMOOTH",
"231 229 OFFCURVE",
"239 242 OFFCURVE",
"255 242 CURVE SMOOTH",
"271 242 OFFCURVE",
"279 229 OFFCURVE",
"279 213 CURVE SMOOTH",
"279 197 OFFCURVE",
"271 184 OFFCURVE",
"255 184 CURVE SMOOTH"
);
},
{
closed = 1;
nodes = (
"429 0 LINE",
"429 212 LINE SMOOTH",
"429 230 OFFCURVE",
"434 242 OFFCURVE",
"444 242 CURVE SMOOTH",
"455 242 OFFCURVE",
"459 230 OFFCURVE",
"459 212 CURVE SMOOTH",
"459 0 LINE",
"629 0 LINE",
"629 226 LINE SMOOTH",
"629 313 OFFCURVE",
"589 370 OFFCURVE",
"478 370 CURVE SMOOTH",
"388 370 OFFCURVE",
"338 313 OFFCURVE",
"338 226 CURVE",
"279 125 LINE",
"259 0 LINE"
);
}
);
width = 815;
},
{
anchors = (
{
name = bottom;
position = "{386, 0}";
},
{
name = bottom_ra;
position = "{533, 0}";
},
{
name = bottom_ta;
position = "{533, 10}";
},
{
name = top;
position = "{338, 658}";
},
{
name = topright;
position = "{542, 658}";
}
);
annotations = (
{
position = "{238.175, 216.215}";
type = Arrow;
}
);
associatedMasterId = "A6029D4D-1571-45DB-86AE-EDC9D2308E6F";
background = {
paths = (
{
closed = 1;
nodes = (
"199 284 LINE",
"174 315 OFFCURVE",
"163 347 OFFCURVE",
"163 377 CURVE SMOOTH",
"163 457 OFFCURVE",
"239 520 OFFCURVE",
"341 520 CURVE SMOOTH",
"439 520 OFFCURVE",
"520 461 OFFCURVE",
"520 372 CURVE SMOOTH",
"520 358 OFFCURVE",
"518 343 OFFCURVE",
"514 328 CURVE",
"660 287 LINE",
"667 316 OFFCURVE",
"672 344 OFFCURVE",
"672 374 CURVE SMOOTH",
"672 534 OFFCURVE",
"534 666 OFFCURVE",
"339 666 CURVE SMOOTH",
"143 666 OFFCURVE",
"16 534 OFFCURVE",
"16 395 CURVE SMOOTH",
"16 318 OFFCURVE",
"54 240 OFFCURVE",
"140 179 CURVE"
);
},
{
closed = 1;
nodes = (
"293 56 OFFCURVE",
"341 117 OFFCURVE",
"341 213 CURVE SMOOTH",
"341 310 OFFCURVE",
"293 370 OFFCURVE",
"214 370 CURVE SMOOTH",
"133 370 OFFCURVE",
"86 307 OFFCURVE",
"86 210 CURVE SMOOTH",
"86 115 OFFCURVE",
"132 56 OFFCURVE",
"212 56 CURVE SMOOTH"
);
},
{
closed = 1;
nodes = (
"203 181 OFFCURVE",
"198 191 OFFCURVE",
"198 213 CURVE SMOOTH",
"198 235 OFFCURVE",
"203 245 OFFCURVE",
"214 245 CURVE SMOOTH",
"225 245 OFFCURVE",
"230 235 OFFCURVE",
"230 213 CURVE SMOOTH",
"230 191 OFFCURVE",
"225 181 OFFCURVE",
"214 181 CURVE SMOOTH"
);
},
{
closed = 1;
nodes = (
"364 0 LINE",
"364 217 LINE SMOOTH",
"364 235 OFFCURVE",
"367 242 OFFCURVE",
"375 242 CURVE SMOOTH",
"383 242 OFFCURVE",
"386 235 OFFCURVE",
"386 217 CURVE SMOOTH",
"386 0 LINE",
"533 0 LINE",
"533 226 LINE SMOOTH",
"533 313 OFFCURVE",
"479 370 OFFCURVE",
"403 370 CURVE SMOOTH",
"326 370 OFFCURVE",
"269 313 OFFCURVE",
"269 226 CURVE",
"227 125 LINE",
"217 0 LINE"
);
}
);
};
layerId = "DE474BF4-6C0C-4FBD-9186-A355B469949F";
name = "ExtraCondensed Black ]141]";
paths = (
{
closed = 1;
nodes = (
"199 284 LINE",
"174 315 OFFCURVE",
"163 347 OFFCURVE",
"163 380 CURVE SMOOTH",
"163 471 OFFCURVE",
"250 520 OFFCURVE",
"340 520 CURVE SMOOTH",
"430 520 OFFCURVE",
"520 470 OFFCURVE",
"520 375 CURVE SMOOTH",
"520 343 OFFCURVE",
"510 312 OFFCURVE",
"494 284 CURVE",
"454 349 LINE",
"704 269 LINE",
"641 243 LINE",
"660 290 OFFCURVE",
"672 328 OFFCURVE",
"672 378 CURVE SMOOTH",
"672 569 OFFCURVE",
"503 666 OFFCURVE",
"337 666 CURVE SMOOTH",
"175 666 OFFCURVE",
"16 573 OFFCURVE",
"16 400 CURVE SMOOTH",
"16 316 OFFCURVE",
"54 240 OFFCURVE",
"140 179 CURVE"
);
},
{
closed = 1;
nodes = (
"291 56 OFFCURVE",
"337 117 OFFCURVE",
"337 213 CURVE SMOOTH",
"337 310 OFFCURVE",
"291 370 OFFCURVE",
"213 370 CURVE SMOOTH",
"133 370 OFFCURVE",
"86 307 OFFCURVE",
"86 211 CURVE SMOOTH",
"86 116 OFFCURVE",
"132 56 OFFCURVE",
"211 56 CURVE SMOOTH"
);
},
{
closed = 1;
nodes = (
"205 181 OFFCURVE",
"200 191 OFFCURVE",
"200 213 CURVE SMOOTH",
"200 235 OFFCURVE",
"205 245 OFFCURVE",
"216 245 CURVE SMOOTH",
"227 245 OFFCURVE",
"232 235 OFFCURVE",
"232 213 CURVE SMOOTH",
"232 191 OFFCURVE",
"227 181 OFFCURVE",
"216 181 CURVE SMOOTH"
);
},
{
closed = 1;
nodes = (
"360 0 LINE",
"360 217 LINE SMOOTH",
"360 235 OFFCURVE",
"362 242 OFFCURVE",
"373 242 CURVE SMOOTH",
"384 242 OFFCURVE",
"386 235 OFFCURVE",
"386 217 CURVE SMOOTH",
"386 0 LINE",
"533 0 LINE",
"533 226 LINE SMOOTH",
"533 322 OFFCURVE",
"479 371 OFFCURVE",
"409 371 CURVE SMOOTH",
"335 371 OFFCURVE",
"270 316 OFFCURVE",
"270 205 CURVE",
"223 125 LINE",
"212 0 LINE"
);
}
);
width = 688;
}
);
note = kaorya;
unicode = 0B15;
},
{
glyphname = "kha-oriya";
lastChange = "2019-10-25 11:35:51 +0000";
layers = (
{
anchors = (
{
name = bottom;
position = "{613, 0}";
},
{
name = bottom_ra;
position = "{639, 0}";
},
{
name = top;
position = "{370, 658}";
},
{
name = topright;
position = "{626, 658}";
}
);
layerId = "926CF2F4-31F1-4036-BA3C-0F7EE51EF36A";
paths = (
{
closed = 1;
nodes = (
"152 238 LINE",
"100 277 OFFCURVE",
"64 343 OFFCURVE",
"64 416 CURVE SMOOTH",
"64 526 OFFCURVE",
"145 642 OFFCURVE",
"368 642 CURVE SMOOTH",
"384 642 OFFCURVE",
"385 642 OFFCURVE",
"406 642 CURVE",
"423 666 LINE",
"399 666 OFFCURVE",
"387 666 OFFCURVE",
"370 666 CURVE SMOOTH",
"130 666 OFFCURVE",
"38 540 OFFCURVE",
"38 416 CURVE SMOOTH",
"38 335 OFFCURVE",
"78 260 OFFCURVE",
"142 214 CURVE"
);
},
{
closed = 1;
nodes = (
"391 -8 OFFCURVE",
"477 52 OFFCURVE",
"477 170 CURVE SMOOTH",
"477 288 OFFCURVE",
"391 347 OFFCURVE",
"304 347 CURVE SMOOTH",
"218 347 OFFCURVE",
"131 288 OFFCURVE",
"131 170 CURVE SMOOTH",
"131 52 OFFCURVE",
"218 -8 OFFCURVE",
"304 -8 CURVE SMOOTH"
);
},
{
closed = 1;
nodes = (
"231 16 OFFCURVE",
"157 67 OFFCURVE",
"157 171 CURVE SMOOTH",
"157 272 OFFCURVE",
"230 323 OFFCURVE",
"304 323 CURVE SMOOTH",
"377 323 OFFCURVE",
"451 272 OFFCURVE",
"451 170 CURVE SMOOTH",
"451 67 OFFCURVE",
"378 16 OFFCURVE",
"304 16 CURVE SMOOTH"
);
},
{
closed = 1;
nodes = (
"639 0 LINE",
"639 658 LINE",
"613 658 LINE",
"613 0 LINE"
);
},
{
closed = 1;
nodes = (
"564 382 OFFCURVE",
"605 397 OFFCURVE",
"629 418 CURVE",
"621 444 LINE",
"603 423 OFFCURVE",
"564 406 OFFCURVE",
"507 406 CURVE SMOOTH",
"416 406 OFFCURVE",
"377 455 OFFCURVE",
"377 514 CURVE SMOOTH",
"377 558 OFFCURVE",
"398 608 OFFCURVE",
"435 648 CURVE",
"423 666 LINE",
"378 622 OFFCURVE",
"352 564 OFFCURVE",
"352 512 CURVE SMOOTH",
"352 442 OFFCURVE",
"398 382 OFFCURVE",
"507 382 CURVE SMOOTH"
);
}
);
width = 709;
},
{
anchors = (
{
name = bottom;
position = "{582, 0}";
},
{
name = bottom_ra;
position = "{752, 0}";
},
{
name = top;
position = "{386, 658}";
},
{
name = topright;
position = "{667, 658}";
}
);
layerId = "639D56B4-59BE-4993-85FD-8F80ECD3B0F6";
paths = (
{
closed = 1;
nodes = (
"233 282 LINE",
"201 317 OFFCURVE",
"187 346 OFFCURVE",
"187 380 CURVE SMOOTH",
"187 454 OFFCURVE",
"234 506 OFFCURVE",
"370 506 CURVE SMOOTH",
"412 506 OFFCURVE",
"454 501 OFFCURVE",
"469 496 CURVE",
"418 666 LINE",
"408 666 OFFCURVE",
"402 666 OFFCURVE",
"386 666 CURVE SMOOTH",
"140 666 OFFCURVE",
"22 556 OFFCURVE",
"22 401 CURVE SMOOTH",
"22 303 OFFCURVE",
"77 230 OFFCURVE",
"173 170 CURVE"
);
},
{
closed = 1;
nodes = (
"451 -8 OFFCURVE",
"538 67 OFFCURVE",
"538 180 CURVE SMOOTH",
"538 293 OFFCURVE",
"451 368 OFFCURVE",
"326 368 CURVE SMOOTH",
"201 368 OFFCURVE",
"118 293 OFFCURVE",
"118 180 CURVE SMOOTH",
"118 67 OFFCURVE",
"201 -8 OFFCURVE",
"326 -8 CURVE SMOOTH"
);
},
{
closed = 1;
nodes = (
"293 130 OFFCURVE",
"272 150 OFFCURVE",
"272 180 CURVE SMOOTH",
"272 210 OFFCURVE",
"293 230 OFFCURVE",
"328 230 CURVE SMOOTH",
"363 230 OFFCURVE",
"384 210 OFFCURVE",
"384 180 CURVE SMOOTH",
"384 150 OFFCURVE",
"363 130 OFFCURVE",
"328 130 CURVE SMOOTH"
);
},
{
closed = 1;
nodes = (
"752 0 LINE",
"752 658 LINE",
"582 658 LINE",
"582 0 LINE"
);
},
{
closed = 1;
nodes = (
"601 349 OFFCURVE",
"652 372 OFFCURVE",
"682 419 CURVE",
"604 512 LINE",
"594 497 OFFCURVE",
"575 487 OFFCURVE",
"548 487 CURVE SMOOTH",
"513 487 OFFCURVE",
"486 506 OFFCURVE",
"486 541 CURVE SMOOTH",
"486 554 OFFCURVE",
"489 568 OFFCURVE",
"496 588 CURVE",
"418 666 LINE",
"350 644 OFFCURVE",
"331 586 OFFCURVE",
"331 530 CURVE SMOOTH",
"331 405 OFFCURVE",
"438 349 OFFCURVE",
"538 349 CURVE SMOOTH"
);
}
);
width = 798;
},
{
anchors = (
{
name = bottom;
position = "{456, 0}";
},
{
name = bottom_ra;
position = "{482, 0}";
},
{
name = top;
position = "{281, 658}";
},
{
name = topright;
position = "{469, 658}";
}
);
layerId = "EAF3E1E9-0001-42EF-B2A4-765526B8C83B";
paths = (
{
closed = 1;
nodes = (
"123 234 LINE",
"76 277 OFFCURVE",
"54 338 OFFCURVE",
"54 406 CURVE SMOOTH",
"54 542 OFFCURVE",
"141 642 OFFCURVE",
"279 642 CURVE SMOOTH",
"289 642 OFFCURVE",
"299 642 OFFCURVE",
"306 642 CURVE",
"299 666 LINE",
"289 666 OFFCURVE",
"291 666 OFFCURVE",
"281 666 CURVE SMOOTH",
"122 666 OFFCURVE",
"28 552 OFFCURVE",
"28 410 CURVE SMOOTH",
"28 327 OFFCURVE",
"60 256 OFFCURVE",
"113 208 CURVE"
);
},
{
closed = 1;
nodes = (
"316 -8 OFFCURVE",
"370 63 OFFCURVE",
"370 170 CURVE SMOOTH",
"370 276 OFFCURVE",
"316 347 OFFCURVE",
"234 347 CURVE SMOOTH",
"152 347 OFFCURVE",
"98 276 OFFCURVE",
"98 170 CURVE SMOOTH",
"98 63 OFFCURVE",
"152 -8 OFFCURVE",
"234 -8 CURVE SMOOTH"
);
},
{
closed = 1;
nodes = (
"167 17 OFFCURVE",
"124 78 OFFCURVE",
"124 171 CURVE SMOOTH",
"124 263 OFFCURVE",
"167 322 OFFCURVE",
"234 322 CURVE SMOOTH",
"301 322 OFFCURVE",
"344 262 OFFCURVE",
"344 170 CURVE SMOOTH",
"344 77 OFFCURVE",
"301 17 OFFCURVE",
"234 17 CURVE SMOOTH"
);
},
{
closed = 1;
nodes = (
"482 0 LINE",
"482 658 LINE",
"456 658 LINE",
"456 0 LINE"
);
},
{
closed = 1;
nodes = (
"404 382 OFFCURVE",
"439 393 OFFCURVE",
"471 415 CURVE",
"469 444 LINE",
"439 420 OFFCURVE",
"405 407 OFFCURVE",
"374 407 CURVE SMOOTH",
"302 407 OFFCURVE",
"273 462 OFFCURVE",
"273 523 CURVE SMOOTH",
"273 566 OFFCURVE",
"287 612 OFFCURVE",
"311 645 CURVE",
"299 666 LINE",
"266 628 OFFCURVE",
"247 572 OFFCURVE",
"247 520 CURVE SMOOTH",
"247 447 OFFCURVE",
"284 382 OFFCURVE",
"372 382 CURVE SMOOTH"
);
}
);
width = 534;
},
{
anchors = (
{
name = bottom;
position = "{465, 0}";
},
{
name = bottom_ra;
position = "{612, 0}";
},
{
name = top;
position = "{312, 658}";
},
{
name = topright;
position = "{539, 658}";
}
);
layerId = "A6029D4D-1571-45DB-86AE-EDC9D2308E6F";
paths = (
{
closed = 1;
nodes = (
"204 290 LINE",
"175 316 OFFCURVE",
"163 349 OFFCURVE",
"163 384 CURVE SMOOTH",
"163 473 OFFCURVE",
"239 520 OFFCURVE",
"314 520 CURVE SMOOTH",
"326 520 OFFCURVE",
"342 520 OFFCURVE",
"357 520 CURVE",
"326 666 LINE",
"311 666 OFFCURVE",
"325 666 OFFCURVE",
"312 666 CURVE SMOOTH",
"104 666 OFFCURVE",
"16 539 OFFCURVE",
"16 415 CURVE SMOOTH",
"16 324 OFFCURVE",
"63 234 OFFCURVE",
"143 196 CURVE"
);
},
{
closed = 1;
nodes = (
"366 -8 OFFCURVE",
"430 65 OFFCURVE",
"430 180 CURVE SMOOTH",
"430 295 OFFCURVE",
"367 368 OFFCURVE",
"268 368 CURVE SMOOTH",
"166 368 OFFCURVE",
"101 295 OFFCURVE",
"101 180 CURVE SMOOTH",
"101 65 OFFCURVE",
"165 -8 OFFCURVE",
"266 -8 CURVE SMOOTH"
);
},
{
closed = 1;
nodes = (
"244 115 OFFCURVE",
"234 136 OFFCURVE",
"234 180 CURVE SMOOTH",
"234 224 OFFCURVE",
"244 245 OFFCURVE",
"266 245 CURVE SMOOTH",
"287 245 OFFCURVE",
"297 224 OFFCURVE",
"297 180 CURVE SMOOTH",
"297 136 OFFCURVE",
"287 115 OFFCURVE",
"266 115 CURVE SMOOTH"
);
},
{
closed = 1;
nodes = (
"612 0 LINE",
"612 658 LINE",
"465 658 LINE",
"465 0 LINE"
);
},
{
closed = 1;
nodes = (
"526 354 OFFCURVE",
"580 425 OFFCURVE",
"580 506 CURVE",
"482 501 LINE",
"469 484 OFFCURVE",
"456 477 OFFCURVE",
"439 477 CURVE SMOOTH",
"411 477 OFFCURVE",
"392 496 OFFCURVE",
"392 543 CURVE SMOOTH",
"392 555 OFFCURVE",
"394 569 OFFCURVE",
"399 588 CURVE",
"326 666 LINE",
"280 630 OFFCURVE",
"264 584 OFFCURVE",
"264 527 CURVE SMOOTH",
"264 416 OFFCURVE",
"325 354 OFFCURVE",
"424 354 CURVE SMOOTH"
);
}
);
width = 646;
}
);
note = khaorya;
rightMetricsKey = "aaMatra-oriya";
unicode = 0B16;
},
{
glyphname = "ga-oriya";
lastChange = "2019-10-25 11:35:51 +0000";
layers = (
{
anchors = (
{
name = bottom;
position = "{612, 0}";
},
{
name = bottom_ra;
position = "{638, 0}";
},
{
name = top;
position = "{330, 658}";
},
{
name = topright;
position = "{625, 658}";
}
);
layerId = "926CF2F4-31F1-4036-BA3C-0F7EE51EF36A";
paths = (
{
closed = 1;
nodes = (
"403 -8 OFFCURVE",
"477 69 OFFCURVE",
"477 170 CURVE SMOOTH",
"477 271 OFFCURVE",
"403 347 OFFCURVE",
"303 347 CURVE SMOOTH",
"201 347 OFFCURVE",
"130 271 OFFCURVE",
"130 170 CURVE SMOOTH",
"130 69 OFFCURVE",
"201 -8 OFFCURVE",
"303 -8 CURVE SMOOTH"
);
},
{
closed = 1;
nodes = (
"216 16 OFFCURVE",
"156 78 OFFCURVE",
"156 171 CURVE SMOOTH",
"156 260 OFFCURVE",
"213 323 OFFCURVE",
"303 323 CURVE SMOOTH",
"391 323 OFFCURVE",
"451 260 OFFCURVE",
"451 170 CURVE SMOOTH",
"451 78 OFFCURVE",
"389 16 OFFCURVE",
"303 16 CURVE SMOOTH"
);
},
{
closed = 1;
nodes = (
"638 0 LINE",
"638 658 LINE",
"612 658 LINE",
"612 493 LINE",
"612 481 LINE",
"612 0 LINE"
);
},
{
closed = 1;
nodes = (
"472 642 OFFCURVE",
"614 550 OFFCURVE",
"614 378 CURVE",
"638 378 LINE",
"638 566 OFFCURVE",
"481 666 OFFCURVE",
"328 666 CURVE SMOOTH",
"181 666 OFFCURVE",
"38 579 OFFCURVE",
"38 416 CURVE SMOOTH",
"38 334 OFFCURVE",
"74 260 OFFCURVE",
"141 214 CURVE",
"151 238 LINE",
"96 278 OFFCURVE",
"64 343 OFFCURVE",
"64 415 CURVE SMOOTH",
"64 562 OFFCURVE",
"195 642 OFFCURVE",
"331 642 CURVE SMOOTH"
);
}
);
width = 708;
},
{
anchors = (
{
name = bottom;
position = "{582, 0}";
},
{
name = bottom_ra;
position = "{752, 0}";
},
{
name = top;
position = "{347, 658}";
},
{
name = topright;
position = "{667, 658}";
}
);
layerId = "639D56B4-59BE-4993-85FD-8F80ECD3B0F6";
paths = (
{
closed = 1;
nodes = (
"451 -8 OFFCURVE",
"538 67 OFFCURVE",
"538 180 CURVE SMOOTH",
"538 293 OFFCURVE",
"451 368 OFFCURVE",
"326 368 CURVE SMOOTH",
"201 368 OFFCURVE",
"118 293 OFFCURVE",
"118 180 CURVE SMOOTH",
"118 67 OFFCURVE",
"201 -8 OFFCURVE",
"326 -8 CURVE SMOOTH"
);
},
{
closed = 1;
nodes = (
"294 130 OFFCURVE",
"272 150 OFFCURVE",
"272 180 CURVE SMOOTH",
"272 210 OFFCURVE",
"294 230 OFFCURVE",
"329 230 CURVE SMOOTH",
"364 230 OFFCURVE",
"384 210 OFFCURVE",
"384 180 CURVE SMOOTH",
"384 150 OFFCURVE",
"364 130 OFFCURVE",
"329 130 CURVE SMOOTH"
);
},
{
closed = 1;
nodes = (
"752 0 LINE",
"752 658 LINE",
"582 658 LINE",
"592 547 LINE",
"582 465 LINE",
"582 0 LINE"
);
},
{
closed = 1;
nodes = (
"493 506 OFFCURVE",
"606 437 OFFCURVE",
"606 285 CURVE",
"734 293 LINE",
"734 547 OFFCURVE",
"544 666 OFFCURVE",
"347 666 CURVE SMOOTH",
"180 666 OFFCURVE",
"22 574 OFFCURVE",
"22 400 CURVE SMOOTH",
"22 317 OFFCURVE",
"62 235 OFFCURVE",
"173 170 CURVE",
"232 282 LINE",
"201 309 OFFCURVE",
"186 343 OFFCURVE",
"186 377 CURVE SMOOTH",
"186 460 OFFCURVE",
"276 506 OFFCURVE",
"373 506 CURVE SMOOTH"
);
}
);
width = 798;
},
{
anchors = (
{
name = bottom;
position = "{456, 0}";
},
{
name = bottom_ra;
position = "{482, 0}";
},
{
name = top;
position = "{253, 658}";
},
{
name = topright;
position = "{469, 658}";
}
);
layerId = "EAF3E1E9-0001-42EF-B2A4-765526B8C83B";
paths = (
{
closed = 1;
nodes = (
"316 -8 OFFCURVE",
"370 63 OFFCURVE",
"370 170 CURVE SMOOTH",
"370 276 OFFCURVE",
"316 347 OFFCURVE",
"234 347 CURVE SMOOTH",
"152 347 OFFCURVE",
"98 276 OFFCURVE",
"98 170 CURVE SMOOTH",
"98 63 OFFCURVE",
"152 -8 OFFCURVE",
"234 -8 CURVE SMOOTH"
);
},
{
closed = 1;
nodes = (
"167 17 OFFCURVE",
"124 78 OFFCURVE",
"124 171 CURVE SMOOTH",
"124 263 OFFCURVE",
"167 322 OFFCURVE",
"234 322 CURVE SMOOTH",
"301 322 OFFCURVE",
"344 262 OFFCURVE",
"344 170 CURVE SMOOTH",
"344 77 OFFCURVE",
"301 17 OFFCURVE",
"234 17 CURVE SMOOTH"
);
},
{
closed = 1;
nodes = (
"482 0 LINE",
"482 658 LINE",
"456 658 LINE",
"456 495 LINE",
"456 480 LINE",
"456 0 LINE"
);
},
{
closed = 1;
nodes = (
"357 641 OFFCURVE",
"460 561 OFFCURVE",
"460 398 CURVE",
"482 398 LINE",
"482 577 OFFCURVE",
"366 666 OFFCURVE",
"252 666 CURVE SMOOTH",
"139 666 OFFCURVE",
"28 580 OFFCURVE",
"28 411 CURVE SMOOTH",
"28 334 OFFCURVE",
"53 266 OFFCURVE",
"106 214 CURVE",
"116 240 LINE",
"74 285 OFFCURVE",
"54 343 OFFCURVE",
"54 410 CURVE SMOOTH",
"54 564 OFFCURVE",
"154 641 OFFCURVE",
"254 641 CURVE SMOOTH"
);
}
);
width = 534;
},
{
anchors = (
{
name = bottom;
position = "{464, 0}";
},
{
name = bottom_ra;
position = "{611, 0}";
},
{
name = top;
position = "{289, 658}";
},
{
name = topright;
position = "{538, 658}";
}
);
guideLines = (
{
position = "{396, 225}";
}
);
layerId = "A6029D4D-1571-45DB-86AE-EDC9D2308E6F";
paths = (
{
closed = 1;
nodes = (
"368 -8 OFFCURVE",
"430 64 OFFCURVE",
"430 180 CURVE SMOOTH",
"430 297 OFFCURVE",
"368 368 OFFCURVE",
"268 368 CURVE SMOOTH",
"165 368 OFFCURVE",
"101 297 OFFCURVE",
"101 180 CURVE SMOOTH",
"101 64 OFFCURVE",
"165 -8 OFFCURVE",
"266 -8 CURVE SMOOTH"
);
},
{
closed = 1;
nodes = (
"244 115 OFFCURVE",
"234 136 OFFCURVE",
"234 180 CURVE SMOOTH",
"234 224 OFFCURVE",
"244 245 OFFCURVE",
"266 245 CURVE SMOOTH",
"287 245 OFFCURVE",
"297 224 OFFCURVE",
"297 180 CURVE SMOOTH",
"297 136 OFFCURVE",
"287 115 OFFCURVE",
"266 115 CURVE SMOOTH"
);
},
{
closed = 1;
nodes = (
"611 0 LINE",
"611 658 LINE",
"464 658 LINE",
"472 575 LINE",
"464 498 LINE",
"464 0 LINE"
);
},
{
closed = 1;
nodes = (
"396 520 OFFCURVE",
"476 471 OFFCURVE",
"476 372 CURVE",
"589 371 LINE",
"589 569 OFFCURVE",
"437 666 OFFCURVE",
"289 666 CURVE SMOOTH",
"151 666 OFFCURVE",
"16 580 OFFCURVE",
"16 415 CURVE SMOOTH",
"16 330 OFFCURVE",
"56 241 OFFCURVE",
"140 196 CURVE",
"205 289 LINE",
"177 313 OFFCURVE",
"163 344 OFFCURVE",
"163 382 CURVE SMOOTH",
"163 473 OFFCURVE",
"239 520 OFFCURVE",
"316 520 CURVE SMOOTH"
);
}
);
width = 645;
}
);
note = gaorya;
rightMetricsKey = "aaMatra-oriya";
unicode = 0B17;
},
{
glyphname = "gha-oriya";
lastChange = "2019-10-25 11:35:51 +0000";
layers = (
{
anchors = (
{
name = bottom;
position = "{612, 0}";
},
{
name = bottom_ra;
position = "{638, 0}";
},
{
name = top;
position = "{324, 658}";
},
{
name = topright;
position = "{625, 658}";
}
);
layerId = "926CF2F4-31F1-4036-BA3C-0F7EE51EF36A";
paths = (
{
closed = 1;
nodes = (
"151 238 LINE",
"96 278 OFFCURVE",
"64 343 OFFCURVE",
"64 414 CURVE SMOOTH",
"64 547 OFFCURVE",
"177 642 OFFCURVE",
"325 642 CURVE SMOOTH",
"466 642 OFFCURVE",
"614 556 OFFCURVE",
"614 378 CURVE",
"638 378 LINE",
"638 551 OFFCURVE",
"502 666 OFFCURVE",
"324 666 CURVE SMOOTH",
"154 666 OFFCURVE",
"38 560 OFFCURVE",
"38 416 CURVE SMOOTH",
"38 337 OFFCURVE",
"73 261 OFFCURVE",
"141 214 CURVE"
);
},
{
closed = 1;
nodes = (
"341 -8 OFFCURVE",
"406 37 OFFCURVE",
"406 124 CURVE",
"392 124 LINE",
"392 36 OFFCURVE",
"455 -8 OFFCURVE",
"515 -8 CURVE SMOOTH",
"575 -8 OFFCURVE",
"632 36 OFFCURVE",
"632 124 CURVE",
"612 124 LINE",
"612 53 OFFCURVE",
"566 16 OFFCURVE",
"518 16 CURVE SMOOTH",
"466 16 OFFCURVE",
"412 59 OFFCURVE",
"412 150 CURVE SMOOTH",
"412 227 LINE",
"386 227 LINE",
"386 150 LINE SMOOTH",
"386 61 OFFCURVE",
"335 16 OFFCURVE",
"270 16 CURVE SMOOTH",
"199 16 OFFCURVE",
"156 76 OFFCURVE",
"156 148 CURVE SMOOTH",
"156 225 OFFCURVE",
"205 316 OFFCURVE",
"305 359 CURVE",
"296 381 LINE",
"184 334 OFFCURVE",
"130 233 OFFCURVE",
"130 146 CURVE SMOOTH",
"130 63 OFFCURVE",
"180 -8 OFFCURVE",
"272 -8 CURVE SMOOTH"
);
},
{
closed = 1;
nodes = (
"638 0 LINE",
"638 658 LINE",
"612 658 LINE",
"612 488 LINE",
"612 473 LINE",
"612 64 LINE",
"612 48 LINE",
"612 0 LINE"
);
}
);
width = 708;
},
{
anchors = (
{
name = bottom;
position = "{582, 0}";
},
{
name = bottom_ra;
position = "{752, 0}";
},
{
name = top;
position = "{356, 658}";
},
{
name = topright;
position = "{667, 658}";
}
);
layerId = "639D56B4-59BE-4993-85FD-8F80ECD3B0F6";
paths = (
{
closed = 1;
nodes = (
"232 282 LINE",
"200 314 OFFCURVE",
"186 344 OFFCURVE",
"186 376 CURVE SMOOTH",
"186 447 OFFCURVE",
"256 506 OFFCURVE",
"372 506 CURVE SMOOTH",
"508 506 OFFCURVE",
"606 424 OFFCURVE",
"606 285 CURVE",
"734 293 LINE",
"734 547 OFFCURVE",
"542 666 OFFCURVE",
"347 666 CURVE SMOOTH",
"167 666 OFFCURVE",
"22 564 OFFCURVE",
"22 401 CURVE SMOOTH",
"22 305 OFFCURVE",
"73 225 OFFCURVE",
"173 170 CURVE"
);
},
{
closed = 1;
nodes = (
"382 -8 OFFCURVE",
"457 38 OFFCURVE",
"457 124 CURVE",
"410 124 LINE",
"410 38 OFFCURVE",
"457 -8 OFFCURVE",
"508 -8 CURVE SMOOTH",
"567 -8 OFFCURVE",
"631 55 OFFCURVE",
"631 193 CURVE",
"582 193 LINE",
"582 153 OFFCURVE",
"567 130 OFFCURVE",
"541 130 CURVE SMOOTH",
"516 130 OFFCURVE",
"502 152 OFFCURVE",
"502 189 CURVE SMOOTH",
"502 247 LINE",
"372 247 LINE",
"372 189 LINE SMOOTH",
"372 148 OFFCURVE",
"348 130 OFFCURVE",
"323 130 CURVE SMOOTH",
"298 130 OFFCURVE",
"272 147 OFFCURVE",
"272 183 CURVE SMOOTH",
"272 221 OFFCURVE",
"300 270 OFFCURVE",
"366 294 CURVE",
"314 411 LINE",
"191 369 OFFCURVE",
"118 280 OFFCURVE",
"118 173 CURVE SMOOTH",
"118 51 OFFCURVE",
"214 -8 OFFCURVE",
"303 -8 CURVE SMOOTH"
);
},
{
closed = 1;
nodes = (
"752 0 LINE",
"752 658 LINE",
"582 658 LINE",
"592 547 LINE",
"582 465 LINE",
"582 112 LINE",
"592 64 LINE",
"582 0 LINE"
);
}
);
width = 798;
},
{
anchors = (
{
name = bottom;
position = "{456, 0}";
},
{
name = bottom_ra;
position = "{482, 0}";
},
{
name = top;
position = "{254, 658}";
},
{
name = topright;
position = "{469, 658}";
}
);
layerId = "EAF3E1E9-0001-42EF-B2A4-765526B8C83B";
paths = (
{
closed = 1;
nodes = (
"116 240 LINE",
"74 286 OFFCURVE",
"54 345 OFFCURVE",
"54 413 CURVE SMOOTH",
"54 564 OFFCURVE",
"154 641 OFFCURVE",
"255 641 CURVE SMOOTH",
"357 641 OFFCURVE",
"460 562 OFFCURVE",
"460 398 CURVE",
"482 398 LINE",
"482 579 OFFCURVE",
"368 666 OFFCURVE",
"254 666 CURVE SMOOTH",
"139 666 OFFCURVE",
"28 578 OFFCURVE",
"28 414 CURVE SMOOTH",
"28 336 OFFCURVE",
"53 265 OFFCURVE",
"106 214 CURVE"
);
},
{
closed = 1;
nodes = (
"256 -8 OFFCURVE",
"295 28 OFFCURVE",
"306 81 CURVE",
"302 81 LINE",
"313 27 OFFCURVE",
"342 -8 OFFCURVE",
"387 -8 CURVE SMOOTH",
"446 -8 OFFCURVE",
"474 46 OFFCURVE",
"474 124 CURVE",
"456 124 LINE",
"456 60 OFFCURVE",
"431 17 OFFCURVE",
"390 17 CURVE SMOOTH",
"342 17 OFFCURVE",
"318 71 OFFCURVE",
"318 150 CURVE SMOOTH",
"318 227 LINE",
"292 227 LINE",
"292 150 LINE SMOOTH",
"292 71 OFFCURVE",
"260 17 OFFCURVE",
"209 17 CURVE SMOOTH",
"158 17 OFFCURVE",
"124 69 OFFCURVE",
"124 151 CURVE SMOOTH",
"124 247 OFFCURVE",
"171 322 OFFCURVE",
"237 359 CURVE",
"225 381 LINE",
"150 342 OFFCURVE",
"98 260 OFFCURVE",
"98 153 CURVE SMOOTH",
"98 54 OFFCURVE",
"142 -8 OFFCURVE",
"207 -8 CURVE SMOOTH"
);
},
{
closed = 1;
nodes = (
"482 0 LINE",
"482 658 LINE",
"456 658 LINE",
"456 495 LINE",
"456 480 LINE",
"456 74 LINE",
"456 58 LINE",
"456 0 LINE"
);
}
);
width = 534;
},
{
anchors = (
{
name = bottom;
position = "{464, 0}";
},
{
name = bottom_ra;
position = "{611, 0}";
},
{
name = top;
position = "{284, 658}";
},
{
name = topright;
position = "{538, 658}";
}
);
layerId = "A6029D4D-1571-45DB-86AE-EDC9D2308E6F";
paths = (
{
closed = 1;
nodes = (
"205 289 LINE",
"177 313 OFFCURVE",
"163 344 OFFCURVE",
"163 385 CURVE SMOOTH",
"163 474 OFFCURVE",
"230 520 OFFCURVE",
"311 520 CURVE SMOOTH",
"380 520 OFFCURVE",
"476 486 OFFCURVE",
"476 372 CURVE",
"589 371 LINE",
"589 601 OFFCURVE",
"402 666 OFFCURVE",
"284 666 CURVE SMOOTH",
"139 666 OFFCURVE",
"16 569 OFFCURVE",
"16 411 CURVE SMOOTH",
"16 321 OFFCURVE",
"56 241 OFFCURVE",
"140 196 CURVE"
);
},
{
closed = 1;
nodes = (
"317 -8 OFFCURVE",
"383 43 OFFCURVE",
"383 142 CURVE",
"334 142 LINE",
"334 43 OFFCURVE",
"375 -8 OFFCURVE",
"416 -8 CURVE SMOOTH",
"461 -8 OFFCURVE",
"507 50 OFFCURVE",
"507 169 CURVE",
"464 169 LINE",
"464 134 OFFCURVE",
"456 122 OFFCURVE",
"442 122 CURVE SMOOTH",
"428 122 OFFCURVE",
"420 134 OFFCURVE",
"420 169 CURVE SMOOTH",
"420 247 LINE",
"302 247 LINE",
"302 169 LINE SMOOTH",
"302 134 OFFCURVE",
"289 122 OFFCURVE",
"274 122 CURVE SMOOTH",
"255 122 OFFCURVE",
"244 139 OFFCURVE",
"244 176 CURVE SMOOTH",
"244 224 OFFCURVE",
"263 269 OFFCURVE",
"310 302 CURVE",
"242 411 LINE",
"157 369 OFFCURVE",
"101 274 OFFCURVE",
"101 173 CURVE SMOOTH",
"101 51 OFFCURVE",
"177 -8 OFFCURVE",
"249 -8 CURVE SMOOTH"
);
},
{
closed = 1;
nodes = (
"611 0 LINE",
"611 658 LINE",
"464 658 LINE",
"472 575 LINE",
"464 499 LINE",
"464 111 LINE",
"474 64 LINE",
"464 0 LINE"
);
}
);
width = 645;
}
);
note = ghaorya;
rightMetricsKey = "aaMatra-oriya";
unicode = 0B18;
},
{
glyphname = "nga-oriya";
lastChange = "2019-10-25 11:35:51 +0000";
layers = (
{
anchors = (
{
name = bottom;
position = "{334, 0}";
},
{
name = bottom_ra;
position = "{579, 0}";
},
{
name = top;
position = "{333, 658}";
},
{
name = topright;
position = "{559, 658}";
}
);
layerId = "926CF2F4-31F1-4036-BA3C-0F7EE51EF36A";
paths = (
{
closed = 1;
nodes = (
"174 236 LINE",
"95 280 OFFCURVE",
"64 357 OFFCURVE",
"64 422 CURVE SMOOTH",
"64 532 OFFCURVE",
"151 642 OFFCURVE",
"334 642 CURVE SMOOTH",
"392 642 OFFCURVE",
"446 631 OFFCURVE",
"498 608 CURVE",
"513 626 LINE",
"457 653 OFFCURVE",
"397 666 OFFCURVE",
"333 666 CURVE SMOOTH",
"135 666 OFFCURVE",
"38 545 OFFCURVE",
"38 425 CURVE SMOOTH",
"38 344 OFFCURVE",
"77 256 OFFCURVE",
"165 210 CURVE"
);
},
{
closed = 1;
nodes = (
"489 345 LINE",
"472 360 LINE",
"335 207 LINE",
"352 192 LINE"
);
},
{
closed = 1;
nodes = (
"668 408 OFFCURVE",
"706 471 OFFCURVE",
"706 533 CURVE SMOOTH",
"706 596 OFFCURVE",
"667 658 OFFCURVE",
"591 658 CURVE SMOOTH",
"523 658 OFFCURVE",
"474 607 OFFCURVE",
"474 532 CURVE SMOOTH",
"474 450 OFFCURVE",
"531 408 OFFCURVE",
"593 408 CURVE SMOOTH"
);
},
{
closed = 1;
nodes = (
"544 432 OFFCURVE",
"500 465 OFFCURVE",
"500 532 CURVE SMOOTH",
"500 599 OFFCURVE",
"544 634 OFFCURVE",
"592 634 CURVE SMOOTH",
"649 634 OFFCURVE",
"680 584 OFFCURVE",
"680 533 CURVE SMOOTH",
"680 483 OFFCURVE",
"650 432 OFFCURVE",
"591 432 CURVE SMOOTH"
);
},
{
closed = 1;
nodes = (
"430 -8 OFFCURVE",
"517 46 OFFCURVE",
"517 141 CURVE SMOOTH",
"517 198 OFFCURVE",
"485 256 OFFCURVE",
"418 290 CURVE",
"399 274 LINE",
"459 244 OFFCURVE",
"491 196 OFFCURVE",
"491 142 CURVE SMOOTH",
"491 59 OFFCURVE",
"414 16 OFFCURVE",
"336 16 CURVE SMOOTH",
"245 16 OFFCURVE",
"180 74 OFFCURVE",
"180 157 CURVE SMOOTH",
"180 213 OFFCURVE",
"209 287 OFFCURVE",
"291 357 CURVE",
"275 373 LINE",
"190 302 OFFCURVE",
"154 227 OFFCURVE",
"154 157 CURVE SMOOTH",
"154 55 OFFCURVE",
"231 -8 OFFCURVE",
"334 -8 CURVE SMOOTH"
);
}
);
width = 718;
},
{
anchors = (
{
name = bottom;
position = "{336, 0}";
},
{
name = bottom_ra;
position = "{726, 0}";
},
{
name = top;
position = "{371, 658}";
},
{
name = topright;
position = "{647, 658}";
}
);
layerId = "639D56B4-59BE-4993-85FD-8F80ECD3B0F6";
paths = (
{
closed = 1;
nodes = (
"233 282 LINE",
"205 302 OFFCURVE",
"186 340 OFFCURVE",
"186 382 CURVE SMOOTH",
"186 466 OFFCURVE",
"263 528 OFFCURVE",
"383 528 CURVE SMOOTH",
"460 528 OFFCURVE",
"511 503 OFFCURVE",
"556 466 CURVE",
"616 598 LINE",
"553 642 OFFCURVE",
"477 666 OFFCURVE",
"370 666 CURVE SMOOTH",
"161 666 OFFCURVE",
"22 554 OFFCURVE",
"22 399 CURVE SMOOTH",
"22 305 OFFCURVE",
"74 229 OFFCURVE",
"173 170 CURVE"
);
},
{
closed = 1;
nodes = (
"575 344 LINE",
"492 431 LINE",
"314 261 LINE",
"397 174 LINE"
);
},
{
closed = 1;
nodes = (
"743 364 OFFCURVE",
"801 425 OFFCURVE",
"801 511 CURVE SMOOTH",
"801 598 OFFCURVE",
"744 658 OFFCURVE",
"648 658 CURVE SMOOTH",
"550 658 OFFCURVE",
"495 595 OFFCURVE",
"495 509 CURVE SMOOTH",
"495 423 OFFCURVE",
"549 364 OFFCURVE",
"646 364 CURVE SMOOTH"
);
},
{
closed = 1;
nodes = (
"628 472 OFFCURVE",
"617 490 OFFCURVE",
"617 511 CURVE SMOOTH",
"617 532 OFFCURVE",
"628 550 OFFCURVE",
"648 550 CURVE SMOOTH",
"669 550 OFFCURVE",
"679 532 OFFCURVE",
"679 511 CURVE SMOOTH",
"679 490 OFFCURVE",
"669 472 OFFCURVE",
"648 472 CURVE SMOOTH"
);
},
{
closed = 1;
nodes = (
"490 -8 OFFCURVE",
"603 56 OFFCURVE",
"603 186 CURVE SMOOTH",
"603 249 OFFCURVE",
"577 295 OFFCURVE",
"490 348 CURVE",
"382 260 LINE",
"442 228 OFFCURVE",
"459 207 OFFCURVE",
"459 182 CURVE SMOOTH",
"459 148 OFFCURVE",
"427 130 OFFCURVE",
"383 130 CURVE SMOOTH",
"334 130 OFFCURVE",
"293 158 OFFCURVE",
"293 212 CURVE SMOOTH",
"293 259 OFFCURVE",
"318 305 OFFCURVE",
"383 349 CURVE",
"318 442 LINE",
"186 379 OFFCURVE",
"139 272 OFFCURVE",
"139 198 CURVE SMOOTH",
"139 54 OFFCURVE",
"258 -8 OFFCURVE",
"371 -8 CURVE SMOOTH"
);
}
);
width = 807;
},
{
anchors = (
{
name = bottom;
position = "{246, 0}";
},
{
name = bottom_ra;
position = "{467, 0}";
},
{
name = top;
position = "{256, 658}";
},
{
name = topright;
position = "{417, 658}";
}
);
layerId = "EAF3E1E9-0001-42EF-B2A4-765526B8C83B";
paths = (
{
closed = 1;
nodes = (
"124 234 LINE",
"84 278 OFFCURVE",
"54 343 OFFCURVE",
"54 410 CURVE SMOOTH",
"54 539 OFFCURVE",
"139 641 OFFCURVE",
"256 641 CURVE SMOOTH",
"299 641 OFFCURVE",
"338 628 OFFCURVE",
"369 605 CURVE",
"385 625 LINE",
"349 651 OFFCURVE",
"305 666 OFFCURVE",
"256 666 CURVE SMOOTH",
"120 666 OFFCURVE",
"28 552 OFFCURVE",
"28 413 CURVE SMOOTH",
"28 331 OFFCURVE",
"64 252 OFFCURVE",
"116 207 CURVE"
);
},
{
closed = 1;
nodes = (
"368 345 LINE",
"350 360 LINE",
"236 213 LINE",
"254 198 LINE"
);
},
{
closed = 1;
nodes = (
"495 408 OFFCURVE",
"524 471 OFFCURVE",
"524 533 CURVE SMOOTH",
"524 596 OFFCURVE",
"494 658 OFFCURVE",
"437 658 CURVE SMOOTH",
"385 658 OFFCURVE",
"348 607 OFFCURVE",
"348 532 CURVE SMOOTH",
"348 450 OFFCURVE",
"391 408 OFFCURVE",
"438 408 CURVE SMOOTH"
);
},
{
closed = 1;
nodes = (
"404 433 OFFCURVE",
"374 466 OFFCURVE",
"374 532 CURVE SMOOTH",
"374 598 OFFCURVE",
"404 633 OFFCURVE",
"438 633 CURVE SMOOTH",
"478 633 OFFCURVE",
"499 583 OFFCURVE",
"499 533 CURVE SMOOTH",
"499 483 OFFCURVE",
"478 433 OFFCURVE",
"437 433 CURVE SMOOTH"
);
},
{
closed = 1;
nodes = (
"334 -8 OFFCURVE",
"381 59 OFFCURVE",
"381 137 CURVE SMOOTH",
"381 190 OFFCURVE",
"359 247 OFFCURVE",
"313 290 CURVE",
"298 271 LINE",
"336 236 OFFCURVE",
"355 186 OFFCURVE",
"355 139 CURVE SMOOTH",
"355 74 OFFCURVE",
"318 17 OFFCURVE",
"246 17 CURVE SMOOTH",
"172 17 OFFCURVE",
"131 77 OFFCURVE",
"131 164 CURVE SMOOTH",
"131 236 OFFCURVE",
"161 295 OFFCURVE",
"215 357 CURVE",
"197 373 LINE",
"137 306 OFFCURVE",
"105 234 OFFCURVE",
"105 164 CURVE SMOOTH",
"105 61 OFFCURVE",
"156 -8 OFFCURVE",
"246 -8 CURVE SMOOTH"
);
}
);
width = 530;
},
{
anchors = (
{
name = bottom;
position = "{270, 0}";
},
{
name = bottom_ra;
position = "{622, 0}";
},
{
name = top;
position = "{318, 658}";
},
{
name = topright;
position = "{545, 658}";
}
);
layerId = "A6029D4D-1571-45DB-86AE-EDC9D2308E6F";
paths = (
{
closed = 1;
nodes = (
"202 290 LINE",
"176 316 OFFCURVE",
"164 349 OFFCURVE",
"164 386 CURVE SMOOTH",
"164 470 OFFCURVE",
"237 520 OFFCURVE",
"326 520 CURVE SMOOTH",
"370 520 OFFCURVE",
"428 502 OFFCURVE",
"461 473 CURVE",
"510 609 LINE",
"455 647 OFFCURVE",
"384 666 OFFCURVE",
"318 666 CURVE SMOOTH",
"161 666 OFFCURVE",
"16 574 OFFCURVE",
"16 405 CURVE SMOOTH",
"16 319 OFFCURVE",
"54 244 OFFCURVE",
"141 196 CURVE"
);
},
{
closed = 1;
nodes = (
"469 363 LINE",
"392 431 LINE",
"244 242 LINE",
"321 174 LINE"
);
},
{
closed = 1;
nodes = (
"625 364 OFFCURVE",
"675 426 OFFCURVE",
"675 514 CURVE SMOOTH",
"675 599 OFFCURVE",
"627 658 OFFCURVE",
"544 658 CURVE SMOOTH",
"460 658 OFFCURVE",
"411 597 OFFCURVE",
"411 511 CURVE SMOOTH",
"411 424 OFFCURVE",
"458 364 OFFCURVE",
"541 364 CURVE SMOOTH"
);
},
{
closed = 1;
nodes = (
"521 469 OFFCURVE",
"515 488 OFFCURVE",
"515 512 CURVE SMOOTH",
"515 535 OFFCURVE",
"521 553 OFFCURVE",
"542 553 CURVE SMOOTH",
"564 553 OFFCURVE",
"571 535 OFFCURVE",
"571 513 CURVE SMOOTH",
"571 489 OFFCURVE",
"563 469 OFFCURVE",
"542 469 CURVE SMOOTH"
);
},
{
closed = 1;
nodes = (
"410 -8 OFFCURVE",
"500 52 OFFCURVE",
"500 183 CURVE SMOOTH",
"500 241 OFFCURVE",
"470 313 OFFCURVE",
"390 343 CURVE",
"326 253 LINE",
"362 232 OFFCURVE",
"378 203 OFFCURVE",
"378 177 CURVE SMOOTH",
"378 144 OFFCURVE",
"352 117 OFFCURVE",
"304 117 CURVE SMOOTH",
"249 117 OFFCURVE",
"220 153 OFFCURVE",
"220 199 CURVE SMOOTH",
"220 249 OFFCURVE",
"249 308 OFFCURVE",
"304 355 CURVE",
"237 436 LINE",
"148 375 OFFCURVE",
"96 279 OFFCURVE",
"96 192 CURVE SMOOTH",
"96 70 OFFCURVE",
"189 -8 OFFCURVE",
"300 -8 CURVE SMOOTH"
);
}
);
width = 675;
},
{
anchors = (
{
name = bottom;
position = "{336, 0}";
},
{
name = bottom_ra;
position = "{726, 0}";
},
{
name = top;
position = "{371, 658}";
},
{
name = topright;
position = "{647, 658}";
}
);
associatedMasterId = "639D56B4-59BE-4993-85FD-8F80ECD3B0F6";
background = {
paths = (
{
closed = 1;
nodes = (
"233 282 LINE",
"205 302 OFFCURVE",
"186 340 OFFCURVE",
"186 382 CURVE SMOOTH",
"186 466 OFFCURVE",
"263 528 OFFCURVE",
"383 528 CURVE SMOOTH",
"460 528 OFFCURVE",
"511 503 OFFCURVE",
"556 466 CURVE",
"616 598 LINE",
"553 642 OFFCURVE",
"477 666 OFFCURVE",
"370 666 CURVE SMOOTH",
"161 666 OFFCURVE",
"22 554 OFFCURVE",
"22 399 CURVE SMOOTH",
"22 305 OFFCURVE",
"74 229 OFFCURVE",
"173 170 CURVE"
);
},
{
closed = 1;
nodes = (
"743 364 OFFCURVE",
"801 425 OFFCURVE",
"801 511 CURVE SMOOTH",
"801 598 OFFCURVE",
"744 658 OFFCURVE",
"648 658 CURVE SMOOTH",
"550 658 OFFCURVE",
"494 595 OFFCURVE",
"494 509 CURVE SMOOTH",
"494 423 OFFCURVE",
"549 364 OFFCURVE",
"646 364 CURVE SMOOTH"
);
},
{
closed = 1;
nodes = (
"627 472 OFFCURVE",
"616 490 OFFCURVE",
"616 511 CURVE SMOOTH",
"616 532 OFFCURVE",
"627 550 OFFCURVE",
"648 550 CURVE SMOOTH",
"669 550 OFFCURVE",
"679 532 OFFCURVE",
"679 511 CURVE SMOOTH",
"679 490 OFFCURVE",
"669 472 OFFCURVE",
"648 472 CURVE SMOOTH"
);
},
{
closed = 1;
nodes = (
"490 -8 OFFCURVE",
"603 56 OFFCURVE",
"603 186 CURVE SMOOTH",
"603 249 OFFCURVE",
"577 295 OFFCURVE",
"490 348 CURVE",
"382 260 LINE",
"442 228 OFFCURVE",
"459 207 OFFCURVE",
"459 182 CURVE SMOOTH",
"459 148 OFFCURVE",
"427 130 OFFCURVE",
"383 130 CURVE SMOOTH",
"334 130 OFFCURVE",
"293 158 OFFCURVE",
"293 212 CURVE SMOOTH",
"293 259 OFFCURVE",
"318 305 OFFCURVE",
"383 349 CURVE",
"318 442 LINE",
"186 379 OFFCURVE",
"139 272 OFFCURVE",
"139 198 CURVE SMOOTH",
"139 54 OFFCURVE",
"258 -8 OFFCURVE",
"371 -8 CURVE SMOOTH"
);
},
{
closed = 1;
nodes = (
"575 344 LINE",
"492 431 LINE",
"314 261 LINE",
"397 174 LINE"
);
}
);
};
layerId = "042E1C75-B9B9-432A-B881-27AA258611E2";
name = "Black ]141]";
paths = (
{
closed = 1;
nodes = (
"233 282 LINE",
"205 302 OFFCURVE",
"186 340 OFFCURVE",
"186 382 CURVE SMOOTH",
"186 466 OFFCURVE",
"263 528 OFFCURVE",
"383 528 CURVE SMOOTH",
"460 528 OFFCURVE",
"511 503 OFFCURVE",
"556 466 CURVE",
"616 598 LINE",
"553 642 OFFCURVE",
"477 666 OFFCURVE",
"370 666 CURVE SMOOTH",
"161 666 OFFCURVE",
"22 554 OFFCURVE",
"22 399 CURVE SMOOTH",
"22 305 OFFCURVE",
"74 229 OFFCURVE",
"173 170 CURVE"
);
},
{
closed = 1;
nodes = (
"575 344 LINE",
"492 431 LINE",
"314 261 LINE",
"397 174 LINE"
);
},
{
closed = 1;
nodes = (
"743 364 OFFCURVE",
"801 425 OFFCURVE",
"801 511 CURVE SMOOTH",
"801 598 OFFCURVE",
"744 658 OFFCURVE",
"648 658 CURVE SMOOTH",
"550 658 OFFCURVE",
"494 595 OFFCURVE",
"494 509 CURVE SMOOTH",
"494 423 OFFCURVE",
"549 364 OFFCURVE",
"646 364 CURVE SMOOTH"
);
},
{
closed = 1;
nodes = (
"629 476 OFFCURVE",
"620 492 OFFCURVE",
"620 511 CURVE SMOOTH",
"620 530 OFFCURVE",
"629 546 OFFCURVE",
"648 546 CURVE SMOOTH",
"667 546 OFFCURVE",
"675 530 OFFCURVE",
"675 511 CURVE SMOOTH",
"675 492 OFFCURVE",
"667 476 OFFCURVE",
"648 476 CURVE SMOOTH"
);
},
{
closed = 1;
nodes = (
"487 -8 OFFCURVE",
"603 56 OFFCURVE",
"603 186 CURVE SMOOTH",
"603 247 OFFCURVE",
"577 299 OFFCURVE",
"490 344 CURVE",
"382 244 LINE",
"434 218 OFFCURVE",
"449 200 OFFCURVE",
"449 180 CURVE SMOOTH",
"449 152 OFFCURVE",
"418 140 OFFCURVE",
"382 140 CURVE SMOOTH",
"350 140 OFFCURVE",
"304 157 OFFCURVE",
"304 213 CURVE SMOOTH",
"304 255 OFFCURVE",
"330 303 OFFCURVE",
"387 344 CURVE",
"318 442 LINE",
"182 376 OFFCURVE",
"139 272 OFFCURVE",
"139 193 CURVE SMOOTH",
"139 67 OFFCURVE",
"247 -8 OFFCURVE",
"372 -8 CURVE SMOOTH"
);
}
);
width = 807;
},
{
anchors = (
{
name = bottom;
position = "{270, 0}";
},
{
name = bottom_ra;
position = "{622, 0}";
},
{
name = top;
position = "{318, 658}";
},
{
name = topright;
position = "{545, 658}";
}
);
associatedMasterId = "A6029D4D-1571-45DB-86AE-EDC9D2308E6F";
background = {
paths = (
{
closed = 1;
nodes = (
"207 290 LINE",
"181 316 OFFCURVE",
"168 349 OFFCURVE",
"168 386 CURVE SMOOTH",
"168 470 OFFCURVE",
"235 520 OFFCURVE",
"319 520 CURVE SMOOTH",
"370 520 OFFCURVE",
"428 502 OFFCURVE",
"461 473 CURVE",
"509 602 LINE",
"454 645 OFFCURVE",
"383 666 OFFCURVE",
"312 666 CURVE SMOOTH",
"166 666 OFFCURVE",
"21 574 OFFCURVE",
"21 405 CURVE SMOOTH",
"21 319 OFFCURVE",
"59 244 OFFCURVE",
"146 196 CURVE"
);
},
{
closed = 1;
nodes = (
"625 365 OFFCURVE",
"675 427 OFFCURVE",
"675 514 CURVE SMOOTH",
"675 599 OFFCURVE",
"627 658 OFFCURVE",
"544 658 CURVE SMOOTH",
"460 658 OFFCURVE",
"410 597 OFFCURVE",
"410 511 CURVE SMOOTH",
"410 425 OFFCURVE",
"458 365 OFFCURVE",
"541 365 CURVE SMOOTH"
);
},
{
closed = 1;
nodes = (
"521 470 OFFCURVE",
"514 489 OFFCURVE",
"514 512 CURVE SMOOTH",
"514 535 OFFCURVE",
"521 553 OFFCURVE",
"542 553 CURVE SMOOTH",
"564 553 OFFCURVE",
"571 535 OFFCURVE",
"571 513 CURVE SMOOTH",
"571 490 OFFCURVE",
"563 470 OFFCURVE",
"542 470 CURVE SMOOTH"
);
},
{
closed = 1;
nodes = (
"418 -8 OFFCURVE",
"497 67 OFFCURVE",
"497 172 CURVE SMOOTH",
"497 241 OFFCURVE",
"463 304 OFFCURVE",
"385 343 CURVE",
"321 253 LINE",
"357 232 OFFCURVE",
"374 203 OFFCURVE",
"374 177 CURVE SMOOTH",
"374 144 OFFCURVE",
"347 117 OFFCURVE",
"298 117 CURVE SMOOTH",
"242 117 OFFCURVE",
"215 152 OFFCURVE",
"215 198 CURVE SMOOTH",
"215 248 OFFCURVE",
"244 303 OFFCURVE",
"299 355 CURVE",
"232 436 LINE",
"138 369 OFFCURVE",
"91 280 OFFCURVE",
"91 192 CURVE SMOOTH",
"91 75 OFFCURVE",
"174 -8 OFFCURVE",
"299 -8 CURVE SMOOTH"
);
},
{
closed = 1;
nodes = (
"461 354 LINE",
"384 422 LINE",
"238 245 LINE",
"315 177 LINE"
);
}
);
};
layerId = "B349C759-DE3D-4DEC-AD73-DE789CD92118";
name = "ExtraCondensed Black ]141]";
paths = (
{
closed = 1;
nodes = (
"202 290 LINE",
"176 316 OFFCURVE",
"164 349 OFFCURVE",
"164 386 CURVE SMOOTH",
"164 470 OFFCURVE",
"237 520 OFFCURVE",
"326 520 CURVE SMOOTH",
"370 520 OFFCURVE",
"428 502 OFFCURVE",
"461 473 CURVE",
"510 609 LINE",
"455 647 OFFCURVE",
"384 666 OFFCURVE",
"318 666 CURVE SMOOTH",
"161 666 OFFCURVE",
"16 574 OFFCURVE",
"16 405 CURVE SMOOTH",
"16 319 OFFCURVE",
"54 244 OFFCURVE",
"141 196 CURVE"
);
},
{
closed = 1;
nodes = (
"469 363 LINE",
"392 431 LINE",
"244 242 LINE",
"321 174 LINE"
);
},
{
closed = 1;
nodes = (
"625 365 OFFCURVE",
"675 427 OFFCURVE",
"675 514 CURVE SMOOTH",
"675 599 OFFCURVE",
"627 658 OFFCURVE",
"544 658 CURVE SMOOTH",
"460 658 OFFCURVE",
"410 597 OFFCURVE",
"410 511 CURVE SMOOTH",
"410 425 OFFCURVE",
"458 365 OFFCURVE",
"541 365 CURVE SMOOTH"
);
},
{
closed = 1;
nodes = (
"523 475 OFFCURVE",
"517 492 OFFCURVE",
"517 512 CURVE SMOOTH",
"517 532 OFFCURVE",
"523 548 OFFCURVE",
"542 548 CURVE SMOOTH",
"562 548 OFFCURVE",
"568 532 OFFCURVE",
"568 513 CURVE SMOOTH",
"568 492 OFFCURVE",
"561 475 OFFCURVE",
"542 475 CURVE SMOOTH"
);
},
{
closed = 1;
nodes = (
"410 -8 OFFCURVE",
"500 52 OFFCURVE",
"500 183 CURVE SMOOTH",
"500 241 OFFCURVE",
"470 313 OFFCURVE",
"390 343 CURVE",
"326 227 LINE",
"354 211 OFFCURVE",
"366 191 OFFCURVE",
"366 172 CURVE SMOOTH",
"366 149 OFFCURVE",
"345 130 OFFCURVE",
"306 130 CURVE SMOOTH",
"255 130 OFFCURVE",
"228 162 OFFCURVE",
"228 203 CURVE SMOOTH",
"228 250 OFFCURVE",
"256 302 OFFCURVE",
"308 350 CURVE",
"237 436 LINE",
"148 375 OFFCURVE",
"96 279 OFFCURVE",
"96 192 CURVE SMOOTH",
"96 70 OFFCURVE",
"189 -8 OFFCURVE",
"300 -8 CURVE SMOOTH"
);
}
);
width = 675;
}
);
note = ngaorya;
rightMetricsKey = "pha-oriya";
unicode = 0B19;
},
{
glyphname = "ca-oriya";
lastChange = "2019-10-25 11:35:51 +0000";
layers = (
{
anchors = (
{
name = bottom;
position = "{303, 0}";
},
{
name = bottom_ra;
position = "{588, 0}";
},
{
name = top;
position = "{334, 658}";
},
{
name = topright;
position = "{574, 658}";
}
);
layerId = "926CF2F4-31F1-4036-BA3C-0F7EE51EF36A";
paths = (
{
closed = 1;
nodes = (
"152 238 LINE",
"92 287 OFFCURVE",
"64 346 OFFCURVE",
"64 418 CURVE SMOOTH",
"64 566 OFFCURVE",
"197 642 OFFCURVE",
"333 642 CURVE SMOOTH",
"472 642 OFFCURVE",
"613 563 OFFCURVE",
"613 403 CURVE SMOOTH",
"613 337 OFFCURVE",
"587 282 OFFCURVE",
"547 240 CURVE",
"532 267 LINE",
"625 196 LINE",
"569 227 LINE",
"612 273 OFFCURVE",
"639 332 OFFCURVE",
"639 403 CURVE SMOOTH",
"639 579 OFFCURVE",
"485 666 OFFCURVE",
"334 666 CURVE SMOOTH",
"185 666 OFFCURVE",
"38 582 OFFCURVE",
"38 421 CURVE SMOOTH",
"38 337 OFFCURVE",
"71 265 OFFCURVE",
"142 214 CURVE"
);
},
{
closed = 1;
nodes = (
"403 -8 OFFCURVE",
"477 69 OFFCURVE",
"477 170 CURVE SMOOTH",
"477 271 OFFCURVE",
"403 347 OFFCURVE",
"303 347 CURVE SMOOTH",
"201 347 OFFCURVE",
"130 271 OFFCURVE",
"130 170 CURVE SMOOTH",
"130 69 OFFCURVE",
"201 -8 OFFCURVE",
"303 -8 CURVE SMOOTH"
);
},
{
closed = 1;
nodes = (
"216 16 OFFCURVE",
"156 78 OFFCURVE",
"156 171 CURVE SMOOTH",
"156 260 OFFCURVE",
"213 323 OFFCURVE",
"303 323 CURVE SMOOTH",
"391 323 OFFCURVE",
"451 260 OFFCURVE",
"451 170 CURVE SMOOTH",
"451 78 OFFCURVE",
"389 16 OFFCURVE",
"303 16 CURVE SMOOTH"
);
}
);
width = 677;
},
{
anchors = (
{
name = bottom;
position = "{285, 0}";
},
{
name = bottom_ra;
position = "{707, 0}";
},
{
name = top;
position = "{360, 658}";
},
{
name = topright;
position = "{564, 658}";
}
);
layerId = "639D56B4-59BE-4993-85FD-8F80ECD3B0F6";
paths = (
{
closed = 1;
nodes = (
"233 282 LINE",
"202 309 OFFCURVE",
"187 343 OFFCURVE",
"187 377 CURVE SMOOTH",
"187 451 OFFCURVE",
"258 506 OFFCURVE",
"363 506 CURVE SMOOTH",
"455 506 OFFCURVE",
"539 465 OFFCURVE",
"539 381 CURVE SMOOTH",
"539 342 OFFCURVE",
"518 303 OFFCURVE",
"472 255 CURVE",
"480 332 LINE",
"719 221 LINE",
"665 224 LINE",
"694 265 OFFCURVE",
"714 325 OFFCURVE",
"714 379 CURVE SMOOTH",
"714 571 OFFCURVE",
"537 666 OFFCURVE",
"360 666 CURVE SMOOTH",
"189 666 OFFCURVE",
"22 584 OFFCURVE",
"22 400 CURVE SMOOTH",
"22 317 OFFCURVE",
"62 235 OFFCURVE",
"173 170 CURVE"
);
},
{
closed = 1;
nodes = (
"435 -8 OFFCURVE",
"538 55 OFFCURVE",
"538 180 CURVE SMOOTH",
"538 306 OFFCURVE",
"435 368 OFFCURVE",
"329 368 CURVE SMOOTH",
"214 368 OFFCURVE",
"118 306 OFFCURVE",
"118 180 CURVE SMOOTH",
"118 55 OFFCURVE",
"214 -8 OFFCURVE",
"329 -8 CURVE SMOOTH"
);
},
{
closed = 1;
nodes = (
"301 130 OFFCURVE",
"272 147 OFFCURVE",
"272 180 CURVE SMOOTH",
"272 213 OFFCURVE",
"301 230 OFFCURVE",
"329 230 CURVE SMOOTH",
"358 230 OFFCURVE",
"384 213 OFFCURVE",
"384 180 CURVE SMOOTH",
"384 147 OFFCURVE",
"358 130 OFFCURVE",
"329 130 CURVE SMOOTH"
);
}
);
width = 736;
},
{
anchors = (
{
name = bottom;
position = "{234, 0}";
},
{
name = bottom_ra;
position = "{440, 0}";
},
{
name = top;
position = "{259, 658}";
},
{
name = topright;
position = "{445, 658}";
}
);
guideLines = (
{
position = "{262, 217}";
}
);
layerId = "EAF3E1E9-0001-42EF-B2A4-765526B8C83B";
paths = (
{
closed = 1;
nodes = (
"121 234 LINE",
"81 278 OFFCURVE",
"54 342 OFFCURVE",
"54 412 CURVE SMOOTH",
"54 540 OFFCURVE",
"141 641 OFFCURVE",
"261 641 CURVE SMOOTH",
"378 641 OFFCURVE",
"464 542 OFFCURVE",
"464 407 CURVE SMOOTH",
"464 349 OFFCURVE",
"448 288 OFFCURVE",
"414 242 CURVE",
"409 255 LINE",
"447 226 LINE",
"434 227 LINE",
"469 273 OFFCURVE",
"490 338 OFFCURVE",
"490 408 CURVE SMOOTH",
"490 561 OFFCURVE",
"390 666 OFFCURVE",
"259 666 CURVE SMOOTH",
"125 666 OFFCURVE",
"28 555 OFFCURVE",
"28 414 CURVE SMOOTH",
"28 330 OFFCURVE",
"62 252 OFFCURVE",
"113 207 CURVE"
);
},
{
closed = 1;
nodes = (
"316 -8 OFFCURVE",
"370 63 OFFCURVE",
"370 170 CURVE SMOOTH",
"370 276 OFFCURVE",
"316 347 OFFCURVE",
"234 347 CURVE SMOOTH",
"152 347 OFFCURVE",
"98 276 OFFCURVE",
"98 170 CURVE SMOOTH",
"98 63 OFFCURVE",
"152 -8 OFFCURVE",
"234 -8 CURVE SMOOTH"
);
},
{
closed = 1;
nodes = (
"167 17 OFFCURVE",
"124 78 OFFCURVE",
"124 171 CURVE SMOOTH",
"124 263 OFFCURVE",
"167 322 OFFCURVE",
"234 322 CURVE SMOOTH",
"301 322 OFFCURVE",
"344 262 OFFCURVE",
"344 170 CURVE SMOOTH",
"344 77 OFFCURVE",
"301 17 OFFCURVE",
"234 17 CURVE SMOOTH"
);
}
);
width = 518;
},
{
anchors = (
{
name = bottom;
position = "{221, 0}";
},
{
name = bottom_ra;
position = "{570, 0}";
},
{
name = top;
position = "{291, 658}";
},
{
name = topright;
position = "{444, 658}";
}
);
guideLines = (
{
position = "{391, 225}";
}
);
layerId = "A6029D4D-1571-45DB-86AE-EDC9D2308E6F";
paths = (
{
closed = 1;
nodes = (
"202 290 LINE",
"176 316 OFFCURVE",
"163 349 OFFCURVE",
"163 388 CURVE SMOOTH",
"163 466 OFFCURVE",
"215 520 OFFCURVE",
"292 520 CURVE SMOOTH",
"370 520 OFFCURVE",
"422 465 OFFCURVE",
"422 385 CURVE SMOOTH",
"422 360 OFFCURVE",
"417 334 OFFCURVE",
"406 307 CURVE",
"391 323 LINE",
"576 253 LINE",
"547 256 LINE",
"563 290 OFFCURVE",
"574 340 OFFCURVE",
"574 391 CURVE SMOOTH",
"574 555 OFFCURVE",
"462 666 OFFCURVE",
"291 666 CURVE SMOOTH",
"126 666 OFFCURVE",
"16 561 OFFCURVE",
"16 408 CURVE SMOOTH",
"16 318 OFFCURVE",
"54 244 OFFCURVE",
"141 196 CURVE"
);
},
{
closed = 1;
nodes = (
"368 -8 OFFCURVE",
"430 64 OFFCURVE",
"430 180 CURVE SMOOTH",
"430 297 OFFCURVE",
"368 368 OFFCURVE",
"268 368 CURVE SMOOTH",
"165 368 OFFCURVE",
"101 297 OFFCURVE",
"101 180 CURVE SMOOTH",
"101 64 OFFCURVE",
"165 -8 OFFCURVE",
"266 -8 CURVE SMOOTH"
);
},
{
closed = 1;
nodes = (
"244 115 OFFCURVE",
"234 136 OFFCURVE",
"234 180 CURVE SMOOTH",
"234 224 OFFCURVE",
"244 245 OFFCURVE",
"266 245 CURVE SMOOTH",
"287 245 OFFCURVE",
"297 224 OFFCURVE",
"297 180 CURVE SMOOTH",
"297 136 OFFCURVE",
"287 115 OFFCURVE",
"266 115 CURVE SMOOTH"
);
}
);
width = 590;
}
);
note = caorya;
unicode = 0B1A;
},
